<?xml version="1.0" encoding="utf-8"?>
<svg version="1.1" xmlns:xlink="http://www.w3.org/1999/xlink" width="18px" height="20px" xmlns="http://www.w3.org/2000/svg">
  <g transform="matrix(1 0 0 1 -34 -408 )">
    <path d="M 17.8711578947368 8.87710236220471  C 17.8711578947368 8.0667716535433  17.2062315789474 7.40359055118108  16.3937684210526 7.40359055118108  C 16.2846315789474 7.40359055118108  16.1795368421053 7.41568503937009  16.0764631578947 7.43785826771654  C 16.0138105263158 6.57310236220474  15.8096842105263 5.73051968503938  15.4681263157895 4.92825196850396  C 15.0639157894737 3.98085039370079  14.4879157894737 3.13020472440945  13.7542736842105 2.39848818897639  C 13.0206315789474 1.66677165354332  12.1657263157895 1.09228346456695  11.2178526315789 0.689133858267724  C 10.2315789473684 0.269858267716529  9.18669473684211 0.0582047244094497  8.11351578947368 0.0582047244094497  C 7.04033684210526 0.0582047244094497  5.99747368421053 0.269858267716529  5.01322105263158 0.687118110236213  C 4.06332631578947 1.09026771653544  3.21044210526316 1.66475590551181  2.4768 2.39647244094488  C 1.74315789473684 3.12818897637794  1.16513684210526 3.98085039370079  0.762947368421052 4.92623622047245  C 0.344589473684209 5.90790551181101  0.132378947368423 6.94803149606298  0.132378947368423 8.01839370078739  L 0.132378947368423 10.9694488188977  L 1.31469473684211 10.9694488188977  L 1.31469473684211 8.0204094488189  C 1.31469473684211 4.28119685039371  4.36446315789473 1.23943307086614  8.11351578947368 1.23943307086614  C 11.8625684210526 1.23943307086614  14.9123368421053 4.28119685039371  14.9123368421053 8.0204094488189  L 14.9123368421053 10.9694488188977  C 14.9123368421053 14.4526614173228  12.2667789473684 17.3291338582677  8.87545263157894 17.708094488189  C 8.6208 17.2646299212598  8.14181052631579 16.9642834645669  7.59208421052632 16.9642834645669  C 6.77557894736842 16.9642834645669  6.1146947368421 17.6234330708662  6.1146947368421 18.4377952755905  C 6.1146947368421 19.252157480315  6.77557894736842 19.9113070866142  7.59208421052632 19.9113070866142  C 8.25296842105263 19.9113070866142  8.81482105263158 19.4779212598425  9.00277894736842 18.8792440944882  C 9.76269473684211 18.7945826771654  10.5044210526316 18.6010708661418  11.2158315789474 18.3007244094488  C 12.1657263157895 17.8975748031496  13.0186105263158 17.3230866141732  13.7522526315789 16.5913700787402  C 14.4858947368421 15.8596535433071  15.0618947368421 15.0090078740158  15.4661052631579 14.0616062992126  C 15.5914105263158 13.7693228346457  15.6965052631579 13.4709921259843  15.7854315789474 13.1686299212598  C 15.9713684210526 13.2532913385827  16.1775157894737 13.2996535433071  16.3937684210526 13.2996535433071  C 17.2062315789474 13.2996535433071  17.8711578947368 12.6364724409449  17.8711578947368 11.8261417322835  L 17.8711578947368 8.87710236220471  Z " fill-rule="nonzero" fill="#000000" stroke="none" transform="matrix(1 0 0 1 34 408 )" />
  </g>
</svg>