<?xml version="1.0" encoding="utf-8"?>
<svg version="1.1" xmlns:xlink="http://www.w3.org/1999/xlink" width="22px" height="20px" xmlns="http://www.w3.org/2000/svg">
  <g transform="matrix(1 0 0 1 -32 -348 )">
    <path d="M 19.8753322477679 9.97737148809523  C 19.8753573660715 8.9119757738095  20.5472218482143 8.33316821428571  20.5699355714286 8.31370711309523  C 21.3453435691964 7.68955125000002  21.9297199196428 6.36835940476192  21.9297199196428 5.24068205357145  L 21.9297199441964 2.42186940476188  C 21.9297199441964 1.12093047619049  21.0561453683036 0.0620522321428325  19.9828958950893 0  L 6.3355545 0  C 6.29083053794642 0.0515450297618827  6.24939805580357 0.0296779761904986  6.20266404017855 0.0296779761904986  C 6.15590488169642 0.0296779761904986  6.11449754241073 0.0515450595237894  6.06974843749998 0.0620522023809258  L 2.01710412946431 0.0620522023809258  C 0.943829513392871 0.0620522023809258  0.0702549620535819 1.12093047619049  0.0702549620535819 2.42186937500003  L 0.0702549620535819 5.24796089285712  C 0.0702549620535819 6.37484639880955  0.652646377232145 7.69844422619047  1.4180291763393 8.32016366071429  C 1.44606960044644 8.34443672619045  2.10459226116069 8.91843232142855  2.10459226116069 9.97731059523812  C 2.10459226116069 11.0362193154762  1.44606960044644 11.6101540178572  1.42403424330354 11.628792797619  C 0.652646377232145 12.2561769642857  0.0702549620535819 13.5798052380952  0.0702549620535819 14.7066602976191  L 0.0702549620535819 17.6105352678571  C 0.0702549620535819 18.9114437202381  0.943854656250039 19.9702915476191  2.01710412946431 20  L 19.9828707767857 20  C 21.0561453928572 19.9702915476191  21.9296948258929 18.9114132738095  21.9296948258929 17.6105352678571  L 21.9296948258929 14.7140000595238  C 21.9296948258929 13.5863227083333  21.3453184508929 12.2651308630952  20.5759155446428 11.6458478869048  C 20.5471967299108 11.6215138988095  19.8753322477679 11.0427063392857  19.8753322477679 9.97737148809523  Z M 20.5725988973214 5.24068205357145  C 20.572598921875 5.81467764880955  20.2132745424107 6.62662238095237  19.8192513995536 6.94396913690474  C 19.7658339017858 6.98688098214285  18.51823634375 8.01417687499998  18.51823634375 9.97734107142855  C 18.51823634375 11.9404748214286  19.7658339017858 12.9677707142857  19.8192513995536 13.0106825595238  C 20.2132996607143 13.3280293154762  20.572598921875 14.1400349404762  20.572598921875 14.7140000892857  L 20.572598921875 17.610535297619  C 20.572598921875 18.0047822916667  20.308149640625 18.3253573214286  19.9828707522321 18  L 2.01710412946431 18  C 1.691850359375 18.3253573214286  1.42735084151786 18.0048127380952  1.42735084151786 17.610535297619  L 1.42735084151786 14.706660327381  C 1.42735084151786 14.1311114880953  1.78599683035713 13.3150857142857  2.18004509151785 12.9944802380952  C 2.23283443526788 12.9515988392857  3.46171325892857 11.9291453869047  3.46171325892857 9.97734110119046  C 3.46171325892857 8.02553681547619  2.23283443526788 7.00308336309524  2.18004509151785 6.95934919642855  C 1.78599683035713 6.63956601190478  1.42735084151786 5.82357068452382  1.42735084151786 5.24799139880952  L 1.42735081696429 2.42186940476188  C 1.42735081696429 2.02762241071429  1.69182521651788 1.70704738095236  2.01710410491074 1.70704738095236  L 5.5187391383929 1.70704738095236  L 5.5187391383929 2.51658613095236  C 5.5187391383929 2.97478976190479  5.82464602008929 3.3455555059524  6.20266401562498 3.3455555059524  C 6.58068201116072 3.3455555059524  6.88656374999999 2.97478973214288  6.88656374999999 2.51658613095236  L 6.88656374999999 2  L 19.9828707276786 2  C 20.3081244977678 1.70704738095236  20.5725988973214 2.02762241071429  20.5725988973214 2.42186940476188  L 20.5725988973214 5.24068205357145  Z M 6.88656374999999 5.83249413690476  C 6.88656377455357 5.37426005952381  6.58068201116072 5.00352476190477  6.20266401562498 5.00352476190477  C 5.82464602008929 5.00352476190477  5.5187391383929 5.37429053571429  5.5187391383929 5.83249413690476  L 5.5187391383929 7.49043291666669  C 5.5187391383929 7.94863654761906  5.82464602008929 8.31940229166668  6.20266401562498 8.31940229166668  C 6.58068201116072 8.31940229166668  6.88656374999999 7.94863651785715  6.88656374999999 7.49043291666669  L 6.88656374999999 5.83249413690476  Z M 6.88656374999999 10.8063104464286  C 6.88656377455357 10.3481068452381  6.58068201116072 9.97734107142855  6.20266401562498 9.97734107142855  C 5.82464602008929 9.97734107142855  5.5187391383929 10.3481068452381  5.5187391383929 10.8063104464286  L 5.5187391383929 12.4642492261905  C 5.5187391383929 12.9224528571428  5.82464602008929 13.2932186011905  6.20266401562498 13.2932186011905  C 6.58068201116072 13.2932186011905  6.88656374999999 12.9224528273809  6.88656374999999 12.4642492261905  L 6.88656374999999 10.8063104464286  Z M 6.88656374999999 15.7801572321429  C 6.88656377455357 15.3219536309524  6.58068201116072 14.9511269345238  6.20266401562498 14.9511269345238  C 5.82464602008929 14.9511269345238  5.5187391383929 15.3219536011905  5.5187391383929 15.7801572321429  L 5.5187391383929 17.4380960119047  C 5.5187391383929 17.8962996428571  5.82464602008929 18.2670653869047  6.20266401562498 18.2670653869047  C 6.58068201116072 18.2670653869047  6.88656374999999 17.8962996130953  6.88656374999999 17.4380960119047  L 6.88656374999999 15.7801572321429  Z " fill-rule="nonzero" fill="#000000" stroke="none" transform="matrix(1 0 0 1 32 348 )" />
  </g>
</svg>