<?xml version="1.0" encoding="utf-8"?>
<svg version="1.1" xmlns:xlink="http://www.w3.org/1999/xlink" width="48px" height="81px" xmlns="http://www.w3.org/2000/svg">
  <defs>
    <mask fill="white" id="clip78">
      <path d="M 7.88529067454355 0.355145492309653  C 7.88529067454355 0.355145492309653  0.372512214599141 0.355145492309653  0.372512214599141 0.355145492309653  C 0.372512214599141 0.355145492309653  0.372512214599141 40.6465430688849  0.372512214599141 40.6465430688849  C 0.372512214599141 40.6465430688849  7.88529067454355 40.6465430688849  7.88529067454355 40.6465430688849  C 7.88529067454355 40.6465430688849  7.88529067454355 0.355145492309653  7.88529067454355 0.355145492309653  Z " fill-rule="evenodd" />
    </mask>
    <filter x="52px" y="25px" width="48px" height="81px" filterUnits="userSpaceOnUse" id="filter79">
      <feOffset dx="1" dy="1" in="SourceAlpha" result="shadowOffsetInner" />
      <feGaussianBlur stdDeviation="10" in="shadowOffsetInner" result="shadowGaussian" />
      <feComposite in2="shadowGaussian" operator="atop" in="SourceAlpha" result="shadowComposite" />
      <feColorMatrix type="matrix" values="0 0 0 0 0.972549019607843  0 0 0 0 0.937254901960784  0 0 0 0 0.847058823529412  0 0 0 1 0  " in="shadowComposite" />
    </filter>
    <g id="widget80">
      <path d="M 7.88529067454355 0.355145492309653  C 7.88529067454355 0.355145492309653  0.372512214599141 0.355145492309653  0.372512214599141 0.355145492309653  C 0.372512214599141 0.355145492309653  0.372512214599141 40.6465430688849  0.372512214599141 40.6465430688849  C 0.372512214599141 40.6465430688849  7.88529067454355 40.6465430688849  7.88529067454355 40.6465430688849  C 7.88529067454355 40.6465430688849  7.88529067454355 0.355145492309653  7.88529067454355 0.355145492309653  Z " fill-rule="nonzero" fill="#ffffff" stroke="none" fill-opacity="0" transform="matrix(1 0 0 1 71 44 )" />
      <path d="M 7.88529067454355 0.355145492309653  C 7.88529067454355 0.355145492309653  0.372512214599141 0.355145492309653  0.372512214599141 0.355145492309653  C 0.372512214599141 0.355145492309653  0.372512214599141 40.6465430688849  0.372512214599141 40.6465430688849  C 0.372512214599141 40.6465430688849  7.88529067454355 40.6465430688849  7.88529067454355 40.6465430688849  C 7.88529067454355 40.6465430688849  7.88529067454355 0.355145492309653  7.88529067454355 0.355145492309653  Z " stroke-width="7.98220833082888" stroke="#ffffff" fill="none" transform="matrix(1 0 0 1 71 44 )" mask="url(#clip78)" />
    </g>
  </defs>
  <g transform="matrix(1 0 0 1 -52 -25 )">
    <use xlink:href="#widget80" filter="url(#filter79)" />
    <use xlink:href="#widget80" />
  </g>
</svg>