<?xml version="1.0" encoding="utf-8"?>
<svg version="1.1" xmlns:xlink="http://www.w3.org/1999/xlink" width="46px" height="66px" xmlns="http://www.w3.org/2000/svg">
  <defs>
    <mask fill="white" id="clip69">
      <path d="M 5.91939652581596 0.347473359723182  C 5.91939652581596 0.347473359723182  0.11570745927753 0.347473359723182  0.11570745927753 0.347473359723182  C 0.11570745927753 0.347473359723182  0.11570745927753 25.7478295365751  0.11570745927753 25.7478295365751  C 0.11570745927753 25.7478295365751  5.91939652581596 25.7478295365751  5.91939652581596 25.7478295365751  C 5.91939652581596 25.7478295365751  5.91939652581596 0.347473359723182  5.91939652581596 0.347473359723182  Z " fill-rule="evenodd" />
    </mask>
    <filter x="34px" y="25px" width="46px" height="66px" filterUnits="userSpaceOnUse" id="filter70">
      <feOffset dx="1" dy="1" in="SourceAlpha" result="shadowOffsetInner" />
      <feGaussianBlur stdDeviation="10" in="shadowOffsetInner" result="shadowGaussian" />
      <feComposite in2="shadowGaussian" operator="atop" in="SourceAlpha" result="shadowComposite" />
      <feColorMatrix type="matrix" values="0 0 0 0 0.972549019607843  0 0 0 0 0.937254901960784  0 0 0 0 0.847058823529412  0 0 0 1 0  " in="shadowComposite" />
    </filter>
    <g id="widget71">
      <path d="M 5.91939652581596 0.347473359723182  C 5.91939652581596 0.347473359723182  0.11570745927753 0.347473359723182  0.11570745927753 0.347473359723182  C 0.11570745927753 0.347473359723182  0.11570745927753 25.7478295365751  0.11570745927753 25.7478295365751  C 0.11570745927753 25.7478295365751  5.91939652581596 25.7478295365751  5.91939652581596 25.7478295365751  C 5.91939652581596 25.7478295365751  5.91939652581596 0.347473359723182  5.91939652581596 0.347473359723182  Z " fill-rule="nonzero" fill="#ffffff" stroke="none" fill-opacity="0" transform="matrix(1 0 0 1 53 44 )" />
      <path d="M 5.91939652581596 0.347473359723182  C 5.91939652581596 0.347473359723182  0.11570745927753 0.347473359723182  0.11570745927753 0.347473359723182  C 0.11570745927753 0.347473359723182  0.11570745927753 25.7478295365751  0.11570745927753 25.7478295365751  C 0.11570745927753 25.7478295365751  5.91939652581596 25.7478295365751  5.91939652581596 25.7478295365751  C 5.91939652581596 25.7478295365751  5.91939652581596 0.347473359723182  5.91939652581596 0.347473359723182  Z " stroke-width="7.98220833082888" stroke="#ffffff" fill="none" transform="matrix(1 0 0 1 53 44 )" mask="url(#clip69)" />
    </g>
  </defs>
  <g transform="matrix(1 0 0 1 -34 -25 )">
    <use xlink:href="#widget71" filter="url(#filter70)" />
    <use xlink:href="#widget71" />
  </g>
</svg>