<?xml version="1.0" encoding="utf-8"?>
<svg version="1.1" xmlns:xlink="http://www.w3.org/1999/xlink" width="53px" height="52px" xmlns="http://www.w3.org/2000/svg">
  <defs>
    <mask fill="white" id="clip72">
      <path d="M 4.31390274688947 0.340183708819879  C 4.31390274688947 0.340183708819879  0.114976086004539 0.340183708819879  0.114976086004539 0.340183708819879  C 0.114976086004539 0.340183708819879  8.59584437441504 11.7805023851547  8.59584437441504 11.7805023851547  C 8.59584437441504 11.7805023851547  12.7955122403593 11.7805023851547  12.7955122403593 11.7805023851547  C 12.7955122403593 11.7805023851547  4.31390274688947 0.340183708819879  4.31390274688947 0.340183708819879  Z " fill-rule="evenodd" />
    </mask>
    <filter x="34px" y="25px" width="53px" height="52px" filterUnits="userSpaceOnUse" id="filter73">
      <feOffset dx="1" dy="1" in="SourceAlpha" result="shadowOffsetInner" />
      <feGaussianBlur stdDeviation="10" in="shadowOffsetInner" result="shadowGaussian" />
      <feComposite in2="shadowGaussian" operator="atop" in="SourceAlpha" result="shadowComposite" />
      <feColorMatrix type="matrix" values="0 0 0 0 0.972549019607843  0 0 0 0 0.937254901960784  0 0 0 0 0.847058823529412  0 0 0 1 0  " in="shadowComposite" />
    </filter>
    <g id="widget74">
      <path d="M 4.31390274688947 0.340183708819879  C 4.31390274688947 0.340183708819879  0.114976086004539 0.340183708819879  0.114976086004539 0.340183708819879  C 0.114976086004539 0.340183708819879  8.59584437441504 11.7805023851547  8.59584437441504 11.7805023851547  C 8.59584437441504 11.7805023851547  12.7955122403593 11.7805023851547  12.7955122403593 11.7805023851547  C 12.7955122403593 11.7805023851547  4.31390274688947 0.340183708819879  4.31390274688947 0.340183708819879  Z " fill-rule="nonzero" fill="#ffffff" stroke="none" fill-opacity="0" transform="matrix(1 0 0 1 53 44 )" />
      <path d="M 4.31390274688947 0.340183708819879  C 4.31390274688947 0.340183708819879  0.114976086004539 0.340183708819879  0.114976086004539 0.340183708819879  C 0.114976086004539 0.340183708819879  8.59584437441504 11.7805023851547  8.59584437441504 11.7805023851547  C 8.59584437441504 11.7805023851547  12.7955122403593 11.7805023851547  12.7955122403593 11.7805023851547  C 12.7955122403593 11.7805023851547  4.31390274688947 0.340183708819879  4.31390274688947 0.340183708819879  Z " stroke-width="7.98220833082888" stroke="#ffffff" fill="none" transform="matrix(1 0 0 1 53 44 )" mask="url(#clip72)" />
    </g>
  </defs>
  <g transform="matrix(1 0 0 1 -34 -25 )">
    <use xlink:href="#widget74" filter="url(#filter73)" />
    <use xlink:href="#widget74" />
  </g>
</svg>