<?xml version="1.0" encoding="utf-8"?>
<svg version="1.1" xmlns:xlink="http://www.w3.org/1999/xlink" width="8px" height="14px" xmlns="http://www.w3.org/2000/svg">
  <g transform="matrix(1 0 0 1 -1087 -186 )">
    <path d="M 7.49732178013392 7.50808443847657  C 7.54285138392856 7.45937206054688  7.56695527901786 7.39975306396485  7.59802829799105 7.34398517822265  C 7.60661008928571 7.32702256835938  7.62051950892851 7.31282336914063  7.62803578124999 7.29530221191408  C 7.77536621651791 6.98247884277345  7.72712959821433 6.59968838867186  7.4662487779018 6.3481009033203  L 1.55249871093747 0.638199672851556  C 1.22999022321426 0.327022585449214  0.721619598214374 0.34178034912108  0.416245898437523 0.670478593750005  C 0.111419363839332 0.999706008300791  0.125357578124976 1.51866768798828  0.447866065848189 1.83040333984374  L 5.7541229129464 6.95460959716797  L 0.468744592633925 12.1548388964844  C 0.149461473214274 12.469279152832  0.139814146205367 12.9882702270508  0.447866065848189 13.3147636425781  C 0.605362181919645 13.4820966601563  0.815904157366049 13.5657925634765  1.02644613281257 13.5657925634765  C 1.22734079799113 13.5657925634765  1.42823544642863 13.4892403515625  1.58411887834814 13.3361065332031  L 7.44430471540181 7.57040803955078  C 7.45556472656256 7.55891344482421  7.45982681919645 7.5430679638672  7.47108683035708 7.5310442163086  C 7.47966862165174 7.52284220214844  7.4887687834821 7.5168156225586  7.49732178013392 7.50808443847657  Z " fill-rule="nonzero" fill="#272636" stroke="none" transform="matrix(1 0 0 1 1087 186 )" />
  </g>
</svg>