<?xml version="1.0" encoding="utf-8"?>
<svg version="1.1" xmlns:xlink="http://www.w3.org/1999/xlink" width="16px" height="17px" xmlns="http://www.w3.org/2000/svg">
  <defs>
    <mask fill="white" id="clip134">
      <path d="M 9.41907407407405 16.0501851851852  C 9.04407407407405 16.1046296296296  8.66962962962964 16.1312962962963  8.29740740740743 16.1312962962963  C 6.62796296296295 16.1312962962963  5.01018518518521 15.5962962962963  3.65018518518519 14.577962962963  C 1.98796296296297 13.332962962963  0.909629629629649 11.5140740740741  0.614629629629633 9.45796296296299  C 0.319629629629617 7.40129629629632  0.842962962962986 5.35296296296298  2.08796296296293 3.69018518518521  C 4.65907407407406 0.256851851851877  9.54351851851851 -0.443148148148168  12.9757407407407 2.12629629629629  C 14.4146296296296 3.20407407407407  15.4412962962963 4.75796296296295  15.8674074074074 6.50129629629629  C 15.9401851851852 6.79962962962964  15.7574074074074 7.10018518518518  15.4596296296296 7.17296296296297  C 15.1618518518518 7.2435185185185  14.8607407407408 7.06351851851855  14.787962962963 6.7651851851852  C 14.4235185185185 5.27129629629633  13.5435185185185 3.93962962962962  12.3096296296296 3.01574074074074  C 9.36907407407409 0.812962962962956  5.18185185185183 1.41351851851852  2.97740740740738 4.35629629629631  C 1.91018518518518 5.78129629629632  1.46185185185186 7.53685185185185  1.71518518518519 9.29962962962964  C 1.96796296296299 11.0624074074074  2.8924074074074 12.6207407407408  4.31740740740742 13.6874074074074  C 7.26074074074074 15.892962962963  11.4474074074074 15.2912962962963  13.6507407407407 12.3485185185185  C 14.2274074074074 11.577962962963  14.622962962963 10.7146296296297  14.8251851851852 9.78185185185185  C 14.8907407407407 9.48185185185184  15.187962962963 9.29129629629631  15.4857407407408 9.35629629629631  C 15.7857407407407 9.4212962962963  15.9762962962963 9.71740740740739  15.9112962962963 10.0168518518519  C 15.6740740740741 11.1068518518518  15.212962962963 12.1146296296296  14.5401851851852 13.0146296296297  C 13.2951851851852 14.6768518518518  11.4762962962963 15.7557407407407  9.41907407407405 16.0501851851852  Z " fill-rule="evenodd" />
    </mask>
  </defs>
  <g>
    <path d="M 9.41907407407405 16.0501851851852  C 9.04407407407405 16.1046296296296  8.66962962962964 16.1312962962963  8.29740740740743 16.1312962962963  C 6.62796296296295 16.1312962962963  5.01018518518521 15.5962962962963  3.65018518518519 14.577962962963  C 1.98796296296297 13.332962962963  0.909629629629649 11.5140740740741  0.614629629629633 9.45796296296299  C 0.319629629629617 7.40129629629632  0.842962962962986 5.35296296296298  2.08796296296293 3.69018518518521  C 4.65907407407406 0.256851851851877  9.54351851851851 -0.443148148148168  12.9757407407407 2.12629629629629  C 14.4146296296296 3.20407407407407  15.4412962962963 4.75796296296295  15.8674074074074 6.50129629629629  C 15.9401851851852 6.79962962962964  15.7574074074074 7.10018518518518  15.4596296296296 7.17296296296297  C 15.1618518518518 7.2435185185185  14.8607407407408 7.06351851851855  14.787962962963 6.7651851851852  C 14.4235185185185 5.27129629629633  13.5435185185185 3.93962962962962  12.3096296296296 3.01574074074074  C 9.36907407407409 0.812962962962956  5.18185185185183 1.41351851851852  2.97740740740738 4.35629629629631  C 1.91018518518518 5.78129629629632  1.46185185185186 7.53685185185185  1.71518518518519 9.29962962962964  C 1.96796296296299 11.0624074074074  2.8924074074074 12.6207407407408  4.31740740740742 13.6874074074074  C 7.26074074074074 15.892962962963  11.4474074074074 15.2912962962963  13.6507407407407 12.3485185185185  C 14.2274074074074 11.577962962963  14.622962962963 10.7146296296297  14.8251851851852 9.78185185185185  C 14.8907407407407 9.48185185185184  15.187962962963 9.29129629629631  15.4857407407408 9.35629629629631  C 15.7857407407407 9.4212962962963  15.9762962962963 9.71740740740739  15.9112962962963 10.0168518518519  C 15.6740740740741 11.1068518518518  15.212962962963 12.1146296296296  14.5401851851852 13.0146296296297  C 13.2951851851852 14.6768518518518  11.4762962962963 15.7557407407407  9.41907407407405 16.0501851851852  Z " fill-rule="nonzero" fill="#ffffff" stroke="none" />
    <path d="M 9.41907407407405 16.0501851851852  C 9.04407407407405 16.1046296296296  8.66962962962964 16.1312962962963  8.29740740740743 16.1312962962963  C 6.62796296296295 16.1312962962963  5.01018518518521 15.5962962962963  3.65018518518519 14.577962962963  C 1.98796296296297 13.332962962963  0.909629629629649 11.5140740740741  0.614629629629633 9.45796296296299  C 0.319629629629617 7.40129629629632  0.842962962962986 5.35296296296298  2.08796296296293 3.69018518518521  C 4.65907407407406 0.256851851851877  9.54351851851851 -0.443148148148168  12.9757407407407 2.12629629629629  C 14.4146296296296 3.20407407407407  15.4412962962963 4.75796296296295  15.8674074074074 6.50129629629629  C 15.9401851851852 6.79962962962964  15.7574074074074 7.10018518518518  15.4596296296296 7.17296296296297  C 15.1618518518518 7.2435185185185  14.8607407407408 7.06351851851855  14.787962962963 6.7651851851852  C 14.4235185185185 5.27129629629633  13.5435185185185 3.93962962962962  12.3096296296296 3.01574074074074  C 9.36907407407409 0.812962962962956  5.18185185185183 1.41351851851852  2.97740740740738 4.35629629629631  C 1.91018518518518 5.78129629629632  1.46185185185186 7.53685185185185  1.71518518518519 9.29962962962964  C 1.96796296296299 11.0624074074074  2.8924074074074 12.6207407407408  4.31740740740742 13.6874074074074  C 7.26074074074074 15.892962962963  11.4474074074074 15.2912962962963  13.6507407407407 12.3485185185185  C 14.2274074074074 11.577962962963  14.622962962963 10.7146296296297  14.8251851851852 9.78185185185185  C 14.8907407407407 9.48185185185184  15.187962962963 9.29129629629631  15.4857407407408 9.35629629629631  C 15.7857407407407 9.4212962962963  15.9762962962963 9.71740740740739  15.9112962962963 10.0168518518519  C 15.6740740740741 11.1068518518518  15.212962962963 12.1146296296296  14.5401851851852 13.0146296296297  C 13.2951851851852 14.6768518518518  11.4762962962963 15.7557407407407  9.41907407407405 16.0501851851852  Z " stroke-width="2" stroke="#ffffff" fill="none" mask="url(#clip134)" />
  </g>
</svg>