<?xml version="1.0" encoding="utf-8"?>
<svg version="1.1" xmlns:xlink="http://www.w3.org/1999/xlink" width="16px" height="16px" xmlns="http://www.w3.org/2000/svg">
  <defs>
    <mask fill="white" id="clip133">
      <path d="M 15.3619543805804 15.3907513839286  C 15.5808115959821 15.1891723270089  15.592330390625 14.8493676674107  15.3907513671875 14.6333901339286  L 12.8364570145089 11.9005543470982  C 13.873149202009 10.6536440234375  14.4404502064733 9.09860574218749  14.4404502064733 7.46293586495534  C 14.4404502064733 3.62429508928574  11.3159751506697 0.499820033482138  7.47445467633929 0.499820033482138  C 3.63581390066963 0.499820033482138  0.511338844866032 3.62429508928574  0.511338844866032 7.46293586495534  C 0.511338844866032 11.301576640625  3.63581390066963 14.4260516964286  7.47445467633929 14.4260516964286  C 8.47947016183036 14.4260516964286  9.44992922991071 14.2158335602679  10.3570348939732 13.8011566852679  C 10.627726735491 13.6773295591518  10.7457944642857 13.3605625055804  10.6219673381696 13.0927503627232  C 10.4981402120536 12.8220585212053  10.1813731584821 12.7039907924107  9.91356101562502 12.8278179185268  C 9.14468097098211 13.1762616741072  8.32396633370536 13.3548031082589  7.47445467633929 13.3548031082589  C 4.22615249441964 13.3548031082589  1.58258743303571 10.711238046875  1.58258743303571 7.46293586495534  C 1.58258743303571 4.21463368303571  4.22615249441964 1.57106862165176  7.47445467633929 1.57106862165176  C 10.7227568582589 1.57106862165176  13.3663219196429 4.21463368303571  13.3663219196429 7.46293586495534  C 13.3663219196429 8.99205684151787  12.7817427232143 10.4405461886161  11.7248926283482 11.5434714955357  C 11.5204338895089 11.7565693303571  11.5261932868304 12.0963739899554  11.7392911383929 12.3008327287947  C 11.7565693470982 12.3152312388393  11.7767272377232 12.3209906361607  11.7940054464286 12.3353891294643  C 11.8084039564732 12.3555470368304  11.8170430524553 12.3814643415179  11.8343212611607 12.4016222488839  L 14.6045931473215 15.3648340792411  C 14.7082623660714 15.4771423939732  14.8522473995536 15.5347364174107  14.9962324162946 15.5347364174107  C 15.1286986383928 15.5347364174107  15.2582851618304 15.4857815066964  15.3619543805804 15.3907513839286  Z " fill-rule="evenodd" />
    </mask>
  </defs>
  <g>
    <path d="M 15.3619543805804 15.3907513839286  C 15.5808115959821 15.1891723270089  15.592330390625 14.8493676674107  15.3907513671875 14.6333901339286  L 12.8364570145089 11.9005543470982  C 13.873149202009 10.6536440234375  14.4404502064733 9.09860574218749  14.4404502064733 7.46293586495534  C 14.4404502064733 3.62429508928574  11.3159751506697 0.499820033482138  7.47445467633929 0.499820033482138  C 3.63581390066963 0.499820033482138  0.511338844866032 3.62429508928574  0.511338844866032 7.46293586495534  C 0.511338844866032 11.301576640625  3.63581390066963 14.4260516964286  7.47445467633929 14.4260516964286  C 8.47947016183036 14.4260516964286  9.44992922991071 14.2158335602679  10.3570348939732 13.8011566852679  C 10.627726735491 13.6773295591518  10.7457944642857 13.3605625055804  10.6219673381696 13.0927503627232  C 10.4981402120536 12.8220585212053  10.1813731584821 12.7039907924107  9.91356101562502 12.8278179185268  C 9.14468097098211 13.1762616741072  8.32396633370536 13.3548031082589  7.47445467633929 13.3548031082589  C 4.22615249441964 13.3548031082589  1.58258743303571 10.711238046875  1.58258743303571 7.46293586495534  C 1.58258743303571 4.21463368303571  4.22615249441964 1.57106862165176  7.47445467633929 1.57106862165176  C 10.7227568582589 1.57106862165176  13.3663219196429 4.21463368303571  13.3663219196429 7.46293586495534  C 13.3663219196429 8.99205684151787  12.7817427232143 10.4405461886161  11.7248926283482 11.5434714955357  C 11.5204338895089 11.7565693303571  11.5261932868304 12.0963739899554  11.7392911383929 12.3008327287947  C 11.7565693470982 12.3152312388393  11.7767272377232 12.3209906361607  11.7940054464286 12.3353891294643  C 11.8084039564732 12.3555470368304  11.8170430524553 12.3814643415179  11.8343212611607 12.4016222488839  L 14.6045931473215 15.3648340792411  C 14.7082623660714 15.4771423939732  14.8522473995536 15.5347364174107  14.9962324162946 15.5347364174107  C 15.1286986383928 15.5347364174107  15.2582851618304 15.4857815066964  15.3619543805804 15.3907513839286  Z " fill-rule="nonzero" fill="#ffffff" stroke="none" />
    <path d="M 15.3619543805804 15.3907513839286  C 15.5808115959821 15.1891723270089  15.592330390625 14.8493676674107  15.3907513671875 14.6333901339286  L 12.8364570145089 11.9005543470982  C 13.873149202009 10.6536440234375  14.4404502064733 9.09860574218749  14.4404502064733 7.46293586495534  C 14.4404502064733 3.62429508928574  11.3159751506697 0.499820033482138  7.47445467633929 0.499820033482138  C 3.63581390066963 0.499820033482138  0.511338844866032 3.62429508928574  0.511338844866032 7.46293586495534  C 0.511338844866032 11.301576640625  3.63581390066963 14.4260516964286  7.47445467633929 14.4260516964286  C 8.47947016183036 14.4260516964286  9.44992922991071 14.2158335602679  10.3570348939732 13.8011566852679  C 10.627726735491 13.6773295591518  10.7457944642857 13.3605625055804  10.6219673381696 13.0927503627232  C 10.4981402120536 12.8220585212053  10.1813731584821 12.7039907924107  9.91356101562502 12.8278179185268  C 9.14468097098211 13.1762616741072  8.32396633370536 13.3548031082589  7.47445467633929 13.3548031082589  C 4.22615249441964 13.3548031082589  1.58258743303571 10.711238046875  1.58258743303571 7.46293586495534  C 1.58258743303571 4.21463368303571  4.22615249441964 1.57106862165176  7.47445467633929 1.57106862165176  C 10.7227568582589 1.57106862165176  13.3663219196429 4.21463368303571  13.3663219196429 7.46293586495534  C 13.3663219196429 8.99205684151787  12.7817427232143 10.4405461886161  11.7248926283482 11.5434714955357  C 11.5204338895089 11.7565693303571  11.5261932868304 12.0963739899554  11.7392911383929 12.3008327287947  C 11.7565693470982 12.3152312388393  11.7767272377232 12.3209906361607  11.7940054464286 12.3353891294643  C 11.8084039564732 12.3555470368304  11.8170430524553 12.3814643415179  11.8343212611607 12.4016222488839  L 14.6045931473215 15.3648340792411  C 14.7082623660714 15.4771423939732  14.8522473995536 15.5347364174107  14.9962324162946 15.5347364174107  C 15.1286986383928 15.5347364174107  15.2582851618304 15.4857815066964  15.3619543805804 15.3907513839286  Z " stroke-width="2" stroke="#797979" fill="none" mask="url(#clip133)" />
  </g>
</svg>