<?xml version="1.0" encoding="utf-8"?>
<svg version="1.1" xmlns:xlink="http://www.w3.org/1999/xlink" width="28px" height="28px" xmlns="http://www.w3.org/2000/svg">
  <g transform="matrix(1 0 0 1 -73 -649 )">
    <path d="M 27.9087500365343 24.6962516825796  C 27.9087500365343 27.275170536312  25.9215742843755 27.8034270298217  22.9382028139429 27.8034270298217  C 21.8324777235027 27.8034270298217  20.5650664170078 27.7282238484539  19.2211584061426 27.647517995279  C 17.6390674748526 27.5539725745534  15.8466106065449 27.4457533623413  14.0054740172744 27.4457533623413  C 12.1643374280039 27.4457533623413  10.3666648753073 27.5521383506176  8.78978962840608 27.647517995279  C 7.44762017900393 27.7282238484539  6.18194743397191 27.8034270298217  5.07448378206891 27.8034270298217  C 3.83879543418459 27.8938866917902  2.5996932722627 27.6888596640756  1.44958313180541 27.2036358028158  C 0.548363907764838 26.745282407841  0.00836142477226076 25.7480978485266  0.0917666292367585 24.6962516825796  C 0.0917666292367585 20.1345367542498  6.33146371978614 16.4239017321299  14.0002583328856 16.4239017321299  C 21.6690529459848 16.4239017321299  27.9087500365343 20.1345367542498  27.9087500365343 24.6962516825796  Z M 21.4117647058823 21.8235294117648  L 7.41176470588232 21.8235294117648  L 21.4117647058823 21.8235294117648  Z M 6.58823529411768 7.41176470588243  C 6.58823529411768 3.26117647058811  9.84941176470591 0  14 0  C 18.1505882352941 0  21.4117647058823 3.26117647058811  21.4117647058823 7.41176470588243  C 21.4117647058823 11.5623529411764  18.1505882352941 14.8235294117648  14 14.8235294117648  C 9.84941176470591 14.8235294117648  6.58823529411768 11.5623529411764  6.58823529411768 7.41176470588243  Z " fill-rule="nonzero" fill="#748aa1" stroke="none" transform="matrix(1 0 0 1 73 649 )" />
  </g>
</svg>