<?xml version="1.0" encoding="utf-8"?>
<svg version="1.1" xmlns:xlink="http://www.w3.org/1999/xlink" width="93px" height="48px" xmlns="http://www.w3.org/2000/svg">
  <g transform="matrix(1 0 0 1 -126 -56 )">
    <path d="M 54.5707407957923 47  L 6.15111110572974 47  C 3.60266076112617 47.25  1.40066899320249 46.0103126750669  0.131276621295513 44.1029319225135  C 2.10864469232141 38.9179542012893  4.43749261675814 33.8518189100237  7.10282349318624 28.9737681007287  C 9.5219322151116 24.4020999315737  12.5693488794981 20.1741599866521  16.1606417891992 16.4070875299032  C 19.9803117497035 12.6166084717764  23.8197077053091 10.6951190877399  27.576613135946 10.6951190877399  C 37.1401342154624 10.6951190877399  46.2212650511404 22.9940511378391  54.5707407957923 47  Z M 92.4745966420323 44.6373149060458  C 91.1699742171941 46.2386021946198  89.1507605171008 47.25  86.8488888682093 47  L 54.5707407957923 47  C 56.1389091352345 44.3512599991912  58.0275003749264 41.5986082044217  60.1836830382235 39.0852122363965  C 62.0004928091503 36.9232252386056  64.1312943164163 35.0319213792766  66.5085543765799 33.4712432527997  C 68.8815291327193 31.8728974903467  71.68139386103 30.9860596015886  74.5639334669956 30.9197573494069  C 80.7822622752747 30.9197573494069  86.7989058231624 35.5317480546664  92.4745966420323 44.6373149060458  Z M 56.3640130777191 5.25089916630296  C 56.3640130777191 2.35142024891184  58.7726391226925 0.000928171667567312  61.7438299235001 0.000928171667567312  C 64.7150207243075 0.000928171667567312  67.1236467692808 2.35142024891184  67.1236467692808 5.25089916630296  C 67.1236467692808 8.15037808369408  64.7150207243075 10.5008701609383  61.7438299235001 10.5008701609383  C 58.7726391226925 10.5008701609383  56.3640130777191 8.15037808369408  56.3640130777191 5.25089916630296  Z " fill-rule="nonzero" fill="#d1dbe3" stroke="none" transform="matrix(1 0 0 1 126 56 )" />
  </g>
</svg>