<?xml version="1.0" encoding="utf-8"?>
<svg version="1.1" xmlns:xlink="http://www.w3.org/1999/xlink" width="60px" height="31px" xmlns="http://www.w3.org/2000/svg">
  <g transform="matrix(1 0 0 1 -97 -39 )">
    <path d="M 35.2069295456724 30  L 3.96845877789019 30  C 2.32429726524265 30.515625  0.903657414969302 29.7149936026474  0.0846945943842456 28.48314353329  C 1.36041593052994 25.1345120883327  2.8628984624246 21.862633046057  4.58246676979752 18.7122252317207  C 6.1431820742655 15.7596895391413  8.10925734161162 13.0291449913795  10.4262205091608 10.5962440297291  C 12.8905237094862 8.14822630468893  15.3675533582639 6.907264410832  17.7913633135136 6.907264410832  C 23.9613769132015 6.907264410832  29.8201710007357 14.8503246931877  35.2069295456724 30  Z M 59.6610300916337 28.8282658768213  C 58.8193382046413 29.8624305840253  57.5166196884521 30.515625  56.0315412052963 30  L 35.2069295456724 30  C 36.21865105499 28.643522082811  37.4370970160816 26.865767798689  38.8281826053055 25.2425329026727  C 40.0003179413873 23.8462496332661  41.3750285912363 22.6247825574495  42.9087447590838 21.6168446007665  C 44.4396962146576 20.5845796291823  46.2460605555033 20.0118301593592  48.1057635270939 19.9690099548253  C 52.1175885646934 19.9690099548253  55.9992940794597 22.9475872853054  59.6610300916337 28.8282658768213  Z M 36.36387940498 3.39120571157065  C 36.36387940498 1.5186255774222  37.9178316920596 0.000599444201952792  39.8347289829032 0.000599444201952792  C 41.7516262737468 0.000599444201952792  43.3055785608262 1.5186255774222  43.3055785608262 3.39120571157065  C 43.3055785608262 5.2637858457191  41.7516262737468 6.78181197893935  39.8347289829032 6.78181197893935  C 37.9178316920596 6.78181197893935  36.36387940498 5.2637858457191  36.36387940498 3.39120571157065  Z " fill-rule="nonzero" fill="#d1dbe3" stroke="none" transform="matrix(1 0 0 1 97 39 )" />
  </g>
</svg>