<?xml version="1.0" encoding="utf-8"?>
<svg version="1.1" xmlns:xlink="http://www.w3.org/1999/xlink" width="10px" height="15px" xmlns="http://www.w3.org/2000/svg">
  <g transform="matrix(1 0 0 1 -348 -381 )">
    <path d="M 9.3716522251674 8.04437618408201  C 9.42856422991076 7.99218435058594  9.4586940987723 7.92830685424804  9.49753537248887 7.86855554809568  C 9.50826261160717 7.85038132324218  9.52564938616069 7.83516789550782  9.53504472656255 7.81639522705075  C 9.71920777064736 7.48122733154298  9.65891199776786 7.07109470214846  9.33281097237727 6.80153668212893  L 1.94062338867184 0.683785363769573  C 1.53748777901785 0.350381341552747  0.902024497767911 0.36619323120118  0.520307373046876 0.718369921875023  C 0.139274204799108 1.07111358032228  0.156696972656277 1.62714395141597  0.559832582310264 1.96114643554688  L 7.19265364118303 7.45136742553711  L 0.585930740792378 13.0230416748047  C 0.186826841517814 13.3599419494629  0.174767682756737 13.9160038146973  0.559832582310264 14.2658181884765  C 0.756702727399556 14.4451035644531  1.01988019670762 14.534777746582  1.28305766601568 14.534777746582  C 1.53417599748889 14.534777746582  1.78529430803576 14.4527575195312  1.98014859793523 14.2886855712891  L 9.30538089425227 8.11115147094722  C 9.31945590820317 8.09883583374022  9.32478352399551 8.08185853271488  9.33885853794641 8.06897594604493  C 9.3495857770647 8.06018807373044  9.36096097935263 8.05373102416991  9.3716522251674 8.04437618408201  Z " fill-rule="nonzero" fill="#999999" stroke="none" transform="matrix(1 0 0 1 348 381 )" />
  </g>
</svg>