<?xml version="1.0" encoding="utf-8"?>
<svg version="1.1" xmlns:xlink="http://www.w3.org/1999/xlink" width="19px" height="24px" xmlns="http://www.w3.org/2000/svg">
  <g transform="matrix(1 0 0 1 -15 -20 )">
    <path d="M 18.2685320424107 9.59185043805803  C 18.2685320675223 4.71507764229911  14.3031844754464 0.749730025111607  9.42641165457589 0.749730025111607  C 4.55395838169643 0.749730025111607  0.588610789620535 4.71507764229911  0.588610789620535 9.58753089006697  C 0.588610789620535 14.2915216657366  8.51066690290179 22.6455328543527  8.84759184709822 22.999736015625  C 8.99877612723214 23.1595593917411  9.21043410435268 23.2502699497768  9.43073120256697 23.2502699497768  C 9.43505075055804 23.2502699497768  9.44368984654018 23.2502699497768  9.44800939453125 23.2502699497768  C 9.67262604073661 23.2502699497768  9.88860356584821 23.1466007226562  10.0354682979911 22.973818702567  L 12.7783830301339 19.8335053041295  C 16.4240838699777 15.3714093666295  18.2685320424107 11.924407859933  18.2685320424107 9.59185043805803  Z M 13.4435938727679 9.58753089006697  C 13.4435938727679 11.8077799888393  11.6466607533482 13.6047131082589  9.42641165457589 13.6047131082589  C 7.20616255580357 13.6047131082589  5.40922943638393 11.8077799888393  5.40922943638393 9.58753089006697  C 5.40922943638393 7.36728179129464  7.20616255580357 5.570348671875  9.42641165457589 5.570348671875  C 11.6466607533482 5.570348671875  13.4435938727679 7.36728179129464  13.4435938727679 9.58753089006697  Z " fill-rule="nonzero" fill="#7f99ae" stroke="none" transform="matrix(1 0 0 1 15 20 )" />
  </g>
</svg>