<?xml version="1.0" encoding="utf-8"?>
<svg version="1.1" xmlns:xlink="http://www.w3.org/1999/xlink" width="7px" height="12px" xmlns="http://www.w3.org/2000/svg">
  <g transform="matrix(1 0 0 1 -102 -26 )">
    <path d="M 6.56015655761719 6.43550094726562  C 6.59999496093749 6.39374748046875  6.62108586914063 6.34264548339844  6.64827476074218 6.29484443847656  C 6.655783828125 6.28030505859375  6.6679545703125 6.26813431640625  6.67453130859376 6.25311618164062  C 6.80344543945313 5.98498186523437  6.7612383984375 5.65687576171875  6.53296768066406 5.44122934570312  L 1.35843637207032 0.547028291015625  C 1.0762414453125 0.280305073242186  0.631417148437507 0.292954584960938  0.364215161132819 0.5746959375  C 0.0974919433593726 0.856890864257814  0.109687880859383 1.30171516113281  0.391882807617193 1.5689171484375  L 5.03485754882813 5.96109394042969  L 0.410151518554684 10.4184333398438  C 0.130778789062504 10.6879535595703  0.122337377929682 11.1328030517578  0.391882807617193 11.4126545507812  C 0.529691909179689 11.5560828515625  0.713916137695307 11.6278221972656  0.898140366210939 11.6278221972656  C 1.07392319824218 11.6278221972656  1.24970601562499 11.562206015625  1.38610401855469 11.4309484570312  L 6.51376662597656 6.48892117675781  C 6.52361913574219 6.47906866699218  6.52734846679688 6.46548682617187  6.5372009765625 6.45518075683594  C 6.54471004394532 6.44815045898437  6.55267268554688 6.44298481933593  6.56015655761719 6.43550094726562  Z " fill-rule="nonzero" fill="#7f99ae" stroke="none" transform="matrix(1 0 0 1 102 26 )" />
  </g>
</svg>