<?xml version="1.0" encoding="utf-8"?>
<svg version="1.1" xmlns:xlink="http://www.w3.org/1999/xlink" width="22px" height="27px" xmlns="http://www.w3.org/2000/svg">
  <g transform="matrix(1 0 0 1 -81 -769 )">
    <path d="M 19.3292152777778 0  L 2.52592592592593 0  C 1.14980555555556 0  0.0633773148148151 1.12500878906258  0 2.47500878906249  L 0 24.4500029296876  C 0.0633773148148151 25.8000029296875  1.14980555555556 26.9250117187501  2.52592592592593 27  L 19.4740740740741 27  C 20.8501944444444 26.9250117187501  21.9366226851852 25.8000029296875  22 24.4500029296876  L 22 2.39999414062504  C 21.8642060185185 0.97500585937496  20.7053611111111 0  19.3292152777778 0  Z M 5 25.57501171875  L 4.84361574074073 25.1250029296875  L 2.38109259259259 25.1250029296875  C 1.72924074074075 25.1250029296875  1.14980555555556 24.600005859375  1.14980555555556 23.8499912109376  L 1.14980555555556 3.2249970703125  C 1.14980555555556 2.62501171874999  1.65677314814815 1.95001171875003  2.38106712962963 1.95001171875003  L 5 1.95001171875003  L 5 25.57501171875  Z M 20.7777777777778 23.8499912109376  C 20.8501944444444 24.5249912109375  20.3432013888889 25.1250029296875  19.6189328703704 25  L 6.14731944444445 25  L 6.14731944444445 2.02500000000009  L 13.4625740740741 2.02500000000009  L 13.4625740740741 8.55000878906253  L 15.8526805555556 6.00001171874999  L 18.3152037037037 8.47499414062509  L 18.3152037037037 1.95001171875003  L 19.5464907407407 1.95001171875003  C 20.1983425925926 1.95001171875003  20.7777777777778 2.47498242187498  20.7777777777778 3.2249970703125  L 20.7777777777778 23.8499912109376  Z " fill-rule="nonzero" fill="#666666" stroke="none" transform="matrix(1 0 0 1 81 769 )" />
  </g>
</svg>