<?xml version="1.0" encoding="utf-8"?>
<svg version="1.1" xmlns:xlink="http://www.w3.org/1999/xlink" width="22px" height="27px" xmlns="http://www.w3.org/2000/svg">
  <g transform="matrix(1 0 0 1 -331 -769 )">
    <path d="M 21.8688505154639 25.9006891304348  L 21.8688505154639 22.2514923913044  L 21.8740386597938 22.2514923913044  C 21.8883587884522 18.3825810406273  20.0250450272258 14.7647563993991  16.9138891752577 12.620827173913  C 17.8820728171974 11.2627792734778  18.4026118861539 9.61837457739864  18.3986056701031 7.93054565217392  C 18.3986056701031 3.62451521739126  15.0942680412371 0.134148913043418  11.0174922680412 0.134148913043418  C 6.94278608247424 0.134148913043418  3.63742783505154 3.62448586956521  3.63742783505154 7.93054565217392  C 3.63742783505154 9.69074021739129  4.19003608247419 11.3157293478262  5.12214432989691 12.620827173913  C 2.01098007053332 14.7647621386244  0.147665177969543 18.3826000011824  0.161994845360823 22.2515217391305  L 0.166162371134021 22.2515217391305  L 0.166162371134021 25.900718478261  L 0.164064432989676 25.9457967391304  C 0.164064432989676 26.4931630434783  0.582943298969099 26.9342902173913  1.1003118556701 26.9342902173913  C 1.62174673177338 26.9284038966612  2.0401506458972 26.4866420847269  2.03553865979382 25.9468532608696  L 2.03346907216496 25.900718478261  L 2.03346907216496 21.9552554347825  C 2.11677946263336 18.7164546807575  3.78506253133588 15.7436799244176  6.46170618556698 14.0644173913043  C 7.75232526736499 15.140919469297  9.36004524292156 15.7276287192618  11.0174922680412 15.7269717391305  C 12.6748122913748 15.7279363436847  14.2825186242218 15.1416152684698  15.5732783505155 14.0655032608696  C 18.2492406745345 15.7435409743019  19.9178146787191 18.7145048135428  20.0025644329897 21.9520271739131  L 20.0025644329897 25.9017456521739  C 20.001543814433 25.9157152173913  19.9994458762887 25.9307413043479  19.9994458762887 25.9457673913043  C 19.9994458762887 26.4931336956521  20.4183247422681 26.9342608695653  20.9356932989691 26.9342608695653  C 21.4571281750723 26.9283745488351  21.8755320891962 26.4866127369008  21.8709201030928 25.9468239130435  L 21.8688505154639 25.9006891304348  Z M 11.0174922680412 13.5975228260869  L 11.0174922680412 13.5986086956522  C 8.05426804123709 13.5986086956522  5.65195876288658 11.0613423913044  5.65195876288658 7.93054565217392  C 5.65195876288658 4.79974891304346  8.05426804123709 2.26251195652173  11.0174922680412 2.26251195652173  C 13.9807164948454 2.26251195652173  16.384074742268 4.79974891304346  16.384074742268 7.93054565217392  C 16.384074742268 11.0613423913044  13.9807164948454 13.5975228260869  11.0174922680412 13.5975228260869  Z " fill-rule="nonzero" fill="#666666" stroke="none" transform="matrix(1 0 0 1 331 769 )" />
  </g>
</svg>