<?xml version="1.0" encoding="utf-8"?>
<svg version="1.1" xmlns:xlink="http://www.w3.org/1999/xlink" width="20px" height="20px" xmlns="http://www.w3.org/2000/svg">
  <defs>
    <linearGradient gradientUnits="userSpaceOnUse" x1="15" y1="24" x2="35" y2="24" id="LinearGradient122">
      <stop id="Stop123" stop-color="#d88bff" offset="0" />
      <stop id="Stop124" stop-color="#9c56ff" offset="1" />
    </linearGradient>
  </defs>
  <g transform="matrix(1 0 0 1 -15 -14 )">
    <path d="M 16.5 18  A 2.5 2.5 0 0 1 19 15.5 L 31 15.5  A 2.5 2.5 0 0 1 33.5 18 L 33.5 30  A 2.5 2.5 0 0 1 31 32.5 L 19 32.5  A 2.5 2.5 0 0 1 16.5 30 L 16.5 18  Z " fill-rule="nonzero" fill="#ffffff" stroke="none" />
    <path d="M 16 18  A 3 3 0 0 1 19 15 L 31 15  A 3 3 0 0 1 34 18 L 34 30  A 3 3 0 0 1 31 33 L 19 33  A 3 3 0 0 1 16 30 L 16 18  Z " stroke-width="2" stroke="url(#LinearGradient122)" fill="none" />
  </g>
</svg>