<?xml version="1.0" encoding="utf-8"?>
<svg version="1.1" xmlns:xlink="http://www.w3.org/1999/xlink" width="178px" height="40px" xmlns="http://www.w3.org/2000/svg">
  <g transform="matrix(1 0 0 1 -115 -461 )">
    <path d="M 115.5 465  A 3.5 3.5 0 0 1 119 461.5 L 289 461.5  A 3.5 3.5 0 0 1 292.5 465 L 292.5 497  A 3.5 3.5 0 0 1 289 500.5 L 119 500.5  A 3.5 3.5 0 0 1 115.5 497 L 115.5 465  Z " fill-rule="nonzero" fill="#ffffff" stroke="none" />
    <path d="M 115.5 465  A 3.5 3.5 0 0 1 119 461.5 L 289 461.5  A 3.5 3.5 0 0 1 292.5 465 L 292.5 497  A 3.5 3.5 0 0 1 289 500.5 L 119 500.5  A 3.5 3.5 0 0 1 115.5 497 L 115.5 465  Z " stroke-width="1" stroke="#d8d8d8" fill="none" />
  </g>
</svg>