<?xml version="1.0" encoding="utf-8"?>
<svg version="1.1" xmlns:xlink="http://www.w3.org/1999/xlink" width="13px" height="19px" xmlns="http://www.w3.org/2000/svg">
  <g>
    <path d="M 12.1831478927177 10.1895431665039  C 12.2571334988839 10.1234335107422  12.296302328404 10.0425220153809  12.3467959842355 9.96683702758789  C 12.3607413950893 9.94381634277345  12.383344202009 9.92454600097656  12.3955581445313 9.90076728759766  C 12.6349701018415 9.4762212866211  12.5565855970982 8.95671995605468  12.1326542640904 8.61527979736329  L 2.52281040527345 0.866128127441399  C 1.99873411272324 0.443816365966796  1.17263184709822 0.463844759521493  0.676399584960905 0.909935234374998  C 0.181056466238829 1.3567438684082  0.203706064453115 2.06104900512696  0.727782357003321 2.48411881835938  L 9.35044973353797 9.43839873901368  L 0.761709963030171 16.4958527880859  C 0.24287489397318 16.9225931359863  0.227197987583736 17.6269381652832  0.727782357003321 18.0700363720703  C 0.983713545619423 18.2971311816406  1.32584425571986 18.4107184790039  1.66797496582035 18.4107184790039  C 1.99442879673552 18.4107184790039  2.32088260044645 18.3068261914063  2.57419317731586 18.0990017236328  L 12.0969951625279 10.2741251965332  C 12.1152926806641 10.2585253894043  12.1222185811942 10.2370208081055  12.1405160993304 10.2207028649902  C 12.1544615101841 10.2095715600586  12.1692492731585 10.2013926306152  12.1831478927177 10.1895431665039  Z " fill-rule="nonzero" fill="#999999" stroke="none" />
  </g>
</svg>