<?xml version="1.0" encoding="utf-8"?>
<svg version="1.1" xmlns:xlink="http://www.w3.org/1999/xlink" width="2px" height="5px" xmlns="http://www.w3.org/2000/svg">
  <defs>
    <mask fill="white" id="clip44">
      <path d="M 1.99999999994066 2.67128559977367  C 2.00000643151498 1.79900547323714  1.47722205202904 1.01167960049404  0.673283666520976 0.673218832516032  L 0.673283666520976 4.66935236703131  C 1.47722205202904 4.3308915990533  2.00000643151498 3.5435657263102  1.99999999994066 2.67128559977367  Z " fill-rule="evenodd" />
    </mask>
  </defs>
  <g transform="matrix(1 0 0 1 -388 -45 )">
    <path d="M 1.99999999994066 2.67128559977367  C 2.00000643151498 1.79900547323714  1.47722205202904 1.01167960049404  0.673283666520976 0.673218832516032  L 0.673283666520976 4.66935236703131  C 1.47722205202904 4.3308915990533  2.00000643151498 3.5435657263102  1.99999999994066 2.67128559977367  Z " fill-rule="nonzero" fill="#000000" stroke="none" transform="matrix(1 0 0 1 388 45 )" />
    <path d="M 1.99999999994066 2.67128559977367  C 2.00000643151498 1.79900547323714  1.47722205202904 1.01167960049404  0.673283666520976 0.673218832516032  L 0.673283666520976 4.66935236703131  C 1.47722205202904 4.3308915990533  2.00000643151498 3.5435657263102  1.99999999994066 2.67128559977367  Z " stroke-width="2" stroke="#797979" fill="none" transform="matrix(1 0 0 1 388 45 )" mask="url(#clip44)" />
  </g>
</svg>