<?xml version="1.0" encoding="utf-8"?>
<svg version="1.1" xmlns:xlink="http://www.w3.org/1999/xlink" width="18px" height="12px" xmlns="http://www.w3.org/2000/svg">
  <defs>
    <mask fill="white" id="clip46">
      <path d="M 17.3870031356092 10.001096284421  C 17.3870031356092 10.552847186771  16.9397206543304 11.0001296680498  16.3879697519804 11.0001296680498  L 15.3889363683516 11.0001296680498  C 14.8371854660015 11.0001296680498  14.3899029847228 10.552847186771  14.3899029847228 10.001096284421  L 14.3899029847228 1.34247394851  C 14.3899029847228 0.790723046159943  14.8371854660015 0.343440564881178  15.3889363683516 0.343440564881178  L 16.3879697519804 0.343440564881178  C 16.9397206543304 0.343440564881178  17.3870031356092 0.790723046159943  17.3870031356092 1.34247394851  L 17.3870031356092 10.001096284421  Z M 11.7254809505847 11.0001296680498  L 10.7264475669559 11.0001296680498  C 10.1746966646058 11.0001296680498  9.72741418332703 10.552847186771  9.72741418332703 10.001096284421  L 9.72741418332703 3.67421786589966  C 9.72741418332703 3.12246696354961  10.1746966646058 2.67518448227084  10.7264475669559 2.67518448227084  L 11.7254809505847 2.67518448227084  C 12.2772318529347 2.67518448227084  12.7245143342135 3.12246696354961  12.7245143342135 3.67421786589966  L 12.7245143342135 10.001096284421  C 12.7245146098941 10.5524572753232  12.2778406991901 10.999578307059  11.7264799839683 11.0001296680498  Z M 8.06202553281781 10.001096284421  C 8.06202553281781 10.552847186771  7.61474305153905 11.0001296680498  7.06299214918897 11.0001296680498  L 6.06395876556019 11.0001296680498  C 5.51220786321011 11.0001296680498  5.06492538193135 10.552847186771  5.06492538193135 10.001096284421  L 5.06492538193135 6.0049627499057  C 5.06492538193135 5.45321184755564  5.51220786321011 5.00592936627688  6.06395876556019 5.00592936627688  L 7.06299214918897 5.00592936627688  C 7.61474305153905 5.00592936627688  8.06202553281781 5.45321184755564  8.06202553281781 6.0049627499057  L 8.06202553281781 10.001096284421  Z M 3.40053576480574 10.001096284421  C 3.40053576480574 10.552847186771  2.95325328352698 11.0001296680498  2.4015023811769 11.0001296680498  L 1.40246899754811 11.0001296680498  C 0.850718095198033 11.0001296680498  0.403435613919271 10.552847186771  0.403435613919271 10.001096284421  L 0.403435613919271 8.00302951716334  C 0.403435613919271 7.45127861481328  0.850718095198033 7.00399613353452  1.40246899754811 7.00399613353452  L 2.4015023811769 7.00399613353452  C 2.95325328352698 7.00399613353452  3.40053576480574 7.45127861481328  3.40053576480574 8.00302951716334  L 3.40053576480574 10.001096284421  Z " fill-rule="evenodd" />
    </mask>
  </defs>
  <g transform="matrix(1 0 0 1 -323 -42 )">
    <path d="M 17.3870031356092 10.001096284421  C 17.3870031356092 10.552847186771  16.9397206543304 11.0001296680498  16.3879697519804 11.0001296680498  L 15.3889363683516 11.0001296680498  C 14.8371854660015 11.0001296680498  14.3899029847228 10.552847186771  14.3899029847228 10.001096284421  L 14.3899029847228 1.34247394851  C 14.3899029847228 0.790723046159943  14.8371854660015 0.343440564881178  15.3889363683516 0.343440564881178  L 16.3879697519804 0.343440564881178  C 16.9397206543304 0.343440564881178  17.3870031356092 0.790723046159943  17.3870031356092 1.34247394851  L 17.3870031356092 10.001096284421  Z M 11.7254809505847 11.0001296680498  L 10.7264475669559 11.0001296680498  C 10.1746966646058 11.0001296680498  9.72741418332703 10.552847186771  9.72741418332703 10.001096284421  L 9.72741418332703 3.67421786589966  C 9.72741418332703 3.12246696354961  10.1746966646058 2.67518448227084  10.7264475669559 2.67518448227084  L 11.7254809505847 2.67518448227084  C 12.2772318529347 2.67518448227084  12.7245143342135 3.12246696354961  12.7245143342135 3.67421786589966  L 12.7245143342135 10.001096284421  C 12.7245146098941 10.5524572753232  12.2778406991901 10.999578307059  11.7264799839683 11.0001296680498  Z M 8.06202553281781 10.001096284421  C 8.06202553281781 10.552847186771  7.61474305153905 11.0001296680498  7.06299214918897 11.0001296680498  L 6.06395876556019 11.0001296680498  C 5.51220786321011 11.0001296680498  5.06492538193135 10.552847186771  5.06492538193135 10.001096284421  L 5.06492538193135 6.0049627499057  C 5.06492538193135 5.45321184755564  5.51220786321011 5.00592936627688  6.06395876556019 5.00592936627688  L 7.06299214918897 5.00592936627688  C 7.61474305153905 5.00592936627688  8.06202553281781 5.45321184755564  8.06202553281781 6.0049627499057  L 8.06202553281781 10.001096284421  Z M 3.40053576480574 10.001096284421  C 3.40053576480574 10.552847186771  2.95325328352698 11.0001296680498  2.4015023811769 11.0001296680498  L 1.40246899754811 11.0001296680498  C 0.850718095198033 11.0001296680498  0.403435613919271 10.552847186771  0.403435613919271 10.001096284421  L 0.403435613919271 8.00302951716334  C 0.403435613919271 7.45127861481328  0.850718095198033 7.00399613353452  1.40246899754811 7.00399613353452  L 2.4015023811769 7.00399613353452  C 2.95325328352698 7.00399613353452  3.40053576480574 7.45127861481328  3.40053576480574 8.00302951716334  L 3.40053576480574 10.001096284421  Z " fill-rule="nonzero" fill="#000000" stroke="none" transform="matrix(1 0 0 1 323 42 )" />
    <path d="M 17.3870031356092 10.001096284421  C 17.3870031356092 10.552847186771  16.9397206543304 11.0001296680498  16.3879697519804 11.0001296680498  L 15.3889363683516 11.0001296680498  C 14.8371854660015 11.0001296680498  14.3899029847228 10.552847186771  14.3899029847228 10.001096284421  L 14.3899029847228 1.34247394851  C 14.3899029847228 0.790723046159943  14.8371854660015 0.343440564881178  15.3889363683516 0.343440564881178  L 16.3879697519804 0.343440564881178  C 16.9397206543304 0.343440564881178  17.3870031356092 0.790723046159943  17.3870031356092 1.34247394851  L 17.3870031356092 10.001096284421  Z " stroke-width="2" stroke="#797979" fill="none" transform="matrix(1 0 0 1 323 42 )" mask="url(#clip46)" />
    <path d="M 11.7254809505847 11.0001296680498  L 10.7264475669559 11.0001296680498  C 10.1746966646058 11.0001296680498  9.72741418332703 10.552847186771  9.72741418332703 10.001096284421  L 9.72741418332703 3.67421786589966  C 9.72741418332703 3.12246696354961  10.1746966646058 2.67518448227084  10.7264475669559 2.67518448227084  L 11.7254809505847 2.67518448227084  C 12.2772318529347 2.67518448227084  12.7245143342135 3.12246696354961  12.7245143342135 3.67421786589966  L 12.7245143342135 10.001096284421  C 12.7245146098941 10.5524572753232  12.2778406991901 10.999578307059  11.7264799839683 11.0001296680498  Z " stroke-width="2" stroke="#797979" fill="none" transform="matrix(1 0 0 1 323 42 )" mask="url(#clip46)" />
    <path d="M 8.06202553281781 10.001096284421  C 8.06202553281781 10.552847186771  7.61474305153905 11.0001296680498  7.06299214918897 11.0001296680498  L 6.06395876556019 11.0001296680498  C 5.51220786321011 11.0001296680498  5.06492538193135 10.552847186771  5.06492538193135 10.001096284421  L 5.06492538193135 6.0049627499057  C 5.06492538193135 5.45321184755564  5.51220786321011 5.00592936627688  6.06395876556019 5.00592936627688  L 7.06299214918897 5.00592936627688  C 7.61474305153905 5.00592936627688  8.06202553281781 5.45321184755564  8.06202553281781 6.0049627499057  L 8.06202553281781 10.001096284421  Z " stroke-width="2" stroke="#797979" fill="none" transform="matrix(1 0 0 1 323 42 )" mask="url(#clip46)" />
    <path d="M 3.40053576480574 10.001096284421  C 3.40053576480574 10.552847186771  2.95325328352698 11.0001296680498  2.4015023811769 11.0001296680498  L 1.40246899754811 11.0001296680498  C 0.850718095198033 11.0001296680498  0.403435613919271 10.552847186771  0.403435613919271 10.001096284421  L 0.403435613919271 8.00302951716334  C 0.403435613919271 7.45127861481328  0.850718095198033 7.00399613353452  1.40246899754811 7.00399613353452  L 2.4015023811769 7.00399613353452  C 2.95325328352698 7.00399613353452  3.40053576480574 7.45127861481328  3.40053576480574 8.00302951716334  L 3.40053576480574 10.001096284421  Z " stroke-width="2" stroke="#797979" fill="none" transform="matrix(1 0 0 1 323 42 )" mask="url(#clip46)" />
  </g>
</svg>