<?xml version="1.0" encoding="utf-8"?>
<svg version="1.1" xmlns:xlink="http://www.w3.org/1999/xlink" width="57px" height="56px" xmlns="http://www.w3.org/2000/svg">
  <defs>
    <mask fill="white" id="clip35">
      <path d="M 5.64125743824007 0.453578278426505  C 5.64125743824007 0.453578278426505  0.150353343236702 0.453578278426505  0.150353343236702 0.453578278426505  C 0.150353343236702 0.453578278426505  11.2407195665427 15.7073365135396  11.2407195665427 15.7073365135396  C 11.2407195665427 15.7073365135396  16.7325929297006 15.7073365135396  16.7325929297006 15.7073365135396  C 16.7325929297006 15.7073365135396  5.64125743824007 0.453578278426505  5.64125743824007 0.453578278426505  Z " fill-rule="evenodd" />
    </mask>
    <filter x="188px" y="155px" width="57px" height="56px" filterUnits="userSpaceOnUse" id="filter36">
      <feOffset dx="1" dy="1" in="SourceAlpha" result="shadowOffsetInner" />
      <feGaussianBlur stdDeviation="10" in="shadowOffsetInner" result="shadowGaussian" />
      <feComposite in2="shadowGaussian" operator="atop" in="SourceAlpha" result="shadowComposite" />
      <feColorMatrix type="matrix" values="0 0 0 0 0.972549019607843  0 0 0 0 0.937254901960784  0 0 0 0 0.847058823529412  0 0 0 1 0  " in="shadowComposite" />
    </filter>
    <g id="widget37">
      <path d="M 5.64125743824007 0.453578278426505  C 5.64125743824007 0.453578278426505  0.150353343236702 0.453578278426505  0.150353343236702 0.453578278426505  C 0.150353343236702 0.453578278426505  11.2407195665427 15.7073365135396  11.2407195665427 15.7073365135396  C 11.2407195665427 15.7073365135396  16.7325929297006 15.7073365135396  16.7325929297006 15.7073365135396  C 16.7325929297006 15.7073365135396  5.64125743824007 0.453578278426505  5.64125743824007 0.453578278426505  Z " fill-rule="nonzero" fill="#ffffff" stroke="none" fill-opacity="0" transform="matrix(1 0 0 1 207 174 )" />
      <path d="M 5.64125743824007 0.453578278426505  C 5.64125743824007 0.453578278426505  0.150353343236702 0.453578278426505  0.150353343236702 0.453578278426505  C 0.150353343236702 0.453578278426505  11.2407195665427 15.7073365135396  11.2407195665427 15.7073365135396  C 11.2407195665427 15.7073365135396  16.7325929297006 15.7073365135396  16.7325929297006 15.7073365135396  C 16.7325929297006 15.7073365135396  5.64125743824007 0.453578278426505  5.64125743824007 0.453578278426505  Z " stroke-width="7.98220833082888" stroke="#ffffff" fill="none" transform="matrix(1 0 0 1 207 174 )" mask="url(#clip35)" />
    </g>
  </defs>
  <g transform="matrix(1 0 0 1 -188 -155 )">
    <use xlink:href="#widget37" filter="url(#filter36)" />
    <use xlink:href="#widget37" />
  </g>
</svg>