<?xml version="1.0" encoding="utf-8"?>
<svg version="1.1" xmlns:xlink="http://www.w3.org/1999/xlink" width="48px" height="74px" xmlns="http://www.w3.org/2000/svg">
  <defs>
    <mask fill="white" id="clip32">
      <path d="M 7.89252870108794 0.454388239638007  C 7.89252870108794 0.454388239638007  0.15427661237004 0.454388239638007  0.15427661237004 0.454388239638007  C 0.15427661237004 0.454388239638007  0.15427661237004 33.6702386247521  0.15427661237004 33.6702386247521  C 0.15427661237004 33.6702386247521  7.89252870108794 33.6702386247521  7.89252870108794 33.6702386247521  C 7.89252870108794 33.6702386247521  7.89252870108794 0.454388239638007  7.89252870108794 0.454388239638007  Z " fill-rule="evenodd" />
    </mask>
    <filter x="188px" y="155px" width="48px" height="74px" filterUnits="userSpaceOnUse" id="filter33">
      <feOffset dx="1" dy="1" in="SourceAlpha" result="shadowOffsetInner" />
      <feGaussianBlur stdDeviation="10" in="shadowOffsetInner" result="shadowGaussian" />
      <feComposite in2="shadowGaussian" operator="atop" in="SourceAlpha" result="shadowComposite" />
      <feColorMatrix type="matrix" values="0 0 0 0 0.972549019607843  0 0 0 0 0.937254901960784  0 0 0 0 0.847058823529412  0 0 0 1 0  " in="shadowComposite" />
    </filter>
    <g id="widget34">
      <path d="M 7.89252870108794 0.454388239638007  C 7.89252870108794 0.454388239638007  0.15427661237004 0.454388239638007  0.15427661237004 0.454388239638007  C 0.15427661237004 0.454388239638007  0.15427661237004 33.6702386247521  0.15427661237004 33.6702386247521  C 0.15427661237004 33.6702386247521  7.89252870108794 33.6702386247521  7.89252870108794 33.6702386247521  C 7.89252870108794 33.6702386247521  7.89252870108794 0.454388239638007  7.89252870108794 0.454388239638007  Z " fill-rule="nonzero" fill="#ffffff" stroke="none" fill-opacity="0" transform="matrix(1 0 0 1 207 174 )" />
      <path d="M 7.89252870108794 0.454388239638007  C 7.89252870108794 0.454388239638007  0.15427661237004 0.454388239638007  0.15427661237004 0.454388239638007  C 0.15427661237004 0.454388239638007  0.15427661237004 33.6702386247521  0.15427661237004 33.6702386247521  C 0.15427661237004 33.6702386247521  7.89252870108794 33.6702386247521  7.89252870108794 33.6702386247521  C 7.89252870108794 33.6702386247521  7.89252870108794 0.454388239638007  7.89252870108794 0.454388239638007  Z " stroke-width="7.98220833082888" stroke="#ffffff" fill="none" transform="matrix(1 0 0 1 207 174 )" mask="url(#clip32)" />
    </g>
  </defs>
  <g transform="matrix(1 0 0 1 -188 -155 )">
    <use xlink:href="#widget34" filter="url(#filter33)" />
    <use xlink:href="#widget34" />
  </g>
</svg>