<?xml version="1.0" encoding="utf-8"?>
<svg version="1.1" xmlns:xlink="http://www.w3.org/1999/xlink" width="50px" height="93px" xmlns="http://www.w3.org/2000/svg">
  <defs>
    <mask fill="white" id="clip41">
      <path d="M 9.85661334317945 0.459090514449059  C 9.85661334317945 0.459090514449059  0.465640268248933 0.459090514449059  0.465640268248933 0.459090514449059  C 0.465640268248933 0.459090514449059  0.465640268248933 52.543092259778  0.465640268248933 52.543092259778  C 0.465640268248933 52.543092259778  9.85661334317945 52.543092259778  9.85661334317945 52.543092259778  C 9.85661334317945 52.543092259778  9.85661334317945 0.459090514449059  9.85661334317945 0.459090514449059  Z " fill-rule="evenodd" />
    </mask>
    <filter x="212px" y="155px" width="50px" height="93px" filterUnits="userSpaceOnUse" id="filter42">
      <feOffset dx="1" dy="1" in="SourceAlpha" result="shadowOffsetInner" />
      <feGaussianBlur stdDeviation="10" in="shadowOffsetInner" result="shadowGaussian" />
      <feComposite in2="shadowGaussian" operator="atop" in="SourceAlpha" result="shadowComposite" />
      <feColorMatrix type="matrix" values="0 0 0 0 0.972549019607843  0 0 0 0 0.937254901960784  0 0 0 0 0.847058823529412  0 0 0 1 0  " in="shadowComposite" />
    </filter>
    <g id="widget43">
      <path d="M 9.85661334317945 0.459090514449059  C 9.85661334317945 0.459090514449059  0.465640268248933 0.459090514449059  0.465640268248933 0.459090514449059  C 0.465640268248933 0.459090514449059  0.465640268248933 52.543092259778  0.465640268248933 52.543092259778  C 0.465640268248933 52.543092259778  9.85661334317945 52.543092259778  9.85661334317945 52.543092259778  C 9.85661334317945 52.543092259778  9.85661334317945 0.459090514449059  9.85661334317945 0.459090514449059  Z " fill-rule="nonzero" fill="#ffffff" stroke="none" fill-opacity="0" transform="matrix(1 0 0 1 231 174 )" />
      <path d="M 9.85661334317945 0.459090514449059  C 9.85661334317945 0.459090514449059  0.465640268248933 0.459090514449059  0.465640268248933 0.459090514449059  C 0.465640268248933 0.459090514449059  0.465640268248933 52.543092259778  0.465640268248933 52.543092259778  C 0.465640268248933 52.543092259778  9.85661334317945 52.543092259778  9.85661334317945 52.543092259778  C 9.85661334317945 52.543092259778  9.85661334317945 0.459090514449059  9.85661334317945 0.459090514449059  Z " stroke-width="7.98220833082888" stroke="#ffffff" fill="none" transform="matrix(1 0 0 1 231 174 )" mask="url(#clip41)" />
    </g>
  </defs>
  <g transform="matrix(1 0 0 1 -212 -155 )">
    <use xlink:href="#widget43" filter="url(#filter42)" />
    <use xlink:href="#widget43" />
  </g>
</svg>