<?xml version="1.0" encoding="utf-8"?>
<svg version="1.1" xmlns:xlink="http://www.w3.org/1999/xlink" width="64px" height="56px" xmlns="http://www.w3.org/2000/svg">
  <defs>
    <mask fill="white" id="clip38">
      <path d="M 15.6451773953556 0.453578278426505  C 15.6451773953556 0.453578278426505  23.7190996708836 0.453578278426505  23.7190996708836 0.453578278426505  C 23.7190996708836 0.453578278426505  8.30969084153469 15.7073365135396  8.30969084153469 15.7073365135396  C 8.30969084153469 15.7073365135396  0.236257272639193 15.7073365135396  0.236257272639193 15.7073365135396  C 0.236257272639193 15.7073365135396  15.6451773953556 0.453578278426505  15.6451773953556 0.453578278426505  Z " fill-rule="evenodd" />
    </mask>
    <filter x="198px" y="155px" width="64px" height="56px" filterUnits="userSpaceOnUse" id="filter39">
      <feOffset dx="1" dy="1" in="SourceAlpha" result="shadowOffsetInner" />
      <feGaussianBlur stdDeviation="10" in="shadowOffsetInner" result="shadowGaussian" />
      <feComposite in2="shadowGaussian" operator="atop" in="SourceAlpha" result="shadowComposite" />
      <feColorMatrix type="matrix" values="0 0 0 0 0.972549019607843  0 0 0 0 0.937254901960784  0 0 0 0 0.847058823529412  0 0 0 1 0  " in="shadowComposite" />
    </filter>
    <g id="widget40">
      <path d="M 15.6451773953556 0.453578278426505  C 15.6451773953556 0.453578278426505  23.7190996708836 0.453578278426505  23.7190996708836 0.453578278426505  C 23.7190996708836 0.453578278426505  8.30969084153469 15.7073365135396  8.30969084153469 15.7073365135396  C 8.30969084153469 15.7073365135396  0.236257272639193 15.7073365135396  0.236257272639193 15.7073365135396  C 0.236257272639193 15.7073365135396  15.6451773953556 0.453578278426505  15.6451773953556 0.453578278426505  Z " fill-rule="nonzero" fill="#ffffff" stroke="none" fill-opacity="0" transform="matrix(1 0 0 1 217 174 )" />
      <path d="M 15.6451773953556 0.453578278426505  C 15.6451773953556 0.453578278426505  23.7190996708836 0.453578278426505  23.7190996708836 0.453578278426505  C 23.7190996708836 0.453578278426505  8.30969084153469 15.7073365135396  8.30969084153469 15.7073365135396  C 8.30969084153469 15.7073365135396  0.236257272639193 15.7073365135396  0.236257272639193 15.7073365135396  C 0.236257272639193 15.7073365135396  15.6451773953556 0.453578278426505  15.6451773953556 0.453578278426505  Z " stroke-width="7.98220833082888" stroke="#ffffff" fill="none" transform="matrix(1 0 0 1 217 174 )" mask="url(#clip38)" />
    </g>
  </defs>
  <g transform="matrix(1 0 0 1 -198 -155 )">
    <use xlink:href="#widget40" filter="url(#filter39)" />
    <use xlink:href="#widget40" />
  </g>
</svg>