<?xml version="1.0" encoding="utf-8"?>
<svg version="1.1" xmlns:xlink="http://www.w3.org/1999/xlink" width="113px" height="113px" xmlns="http://www.w3.org/2000/svg">
  <defs>
    <filter x="131px" y="72px" width="113px" height="113px" filterUnits="userSpaceOnUse" id="filter63">
      <feOffset dx="0" dy="2" in="SourceAlpha" result="shadowOffsetInner" />
      <feGaussianBlur stdDeviation="5" in="shadowOffsetInner" result="shadowGaussian" />
      <feComposite in2="shadowGaussian" operator="atop" in="SourceAlpha" result="shadowComposite" />
      <feColorMatrix type="matrix" values="0 0 0 0 0.8  0 0 0 0 0.8  0 0 0 0 0.8  0 0 0 0.309803921568627 0  " in="shadowComposite" />
    </filter>
    <g id="widget64">
      <path d="M 92.9287108204909 46.5  C 92.9287108204909 20.9006584273451  72.1027438584601 0.0712891795090655  46.5 0.0712891795090655  C 20.900658427345 0.0712891795090655  0.0712891795090513 20.9004792774897  0.0712891795090513 46.5  C 0.0712891795090513 72.1027438584601  20.8972560374436 92.9287108204909  46.5 92.9287108204909  C 72.1027439625565 92.9287108204909  92.9287108204909 72.1027438584601  92.9287108204909 46.5  Z M 68.8811590486627 34.1284770690472  C 70.1840467221729 35.4242020794293  70.1972976697791 37.5327096845151  68.9047958994432 38.8418645841661  L 42.2328461479314 65.8035437885596  C 42.2262207261764 65.8101692103146  42.2127907328112 65.8135714961197  42.2061652069599 65.8235992036798  C 42.1961374993998 65.8302246254347  42.1961374993998 65.8436546188  42.1861097918397 65.8502801446513  C 41.9728416221157 66.056743742765  41.7097930061092 66.1833437719159  41.4632184736587 66.3233736903356  C 41.340020730313 66.3933887015937  41.2401016421337 66.499933211528  41.110099431274 66.5498928076659  C 40.7104230785565 66.7097991995432  40.2872890249137 66.7930650543111  39.8643340170298 66.7930650543111  C 39.4379767233408 66.7930650543111  39.0082172479431 66.7097991995432  38.6051386094204 66.5432673859109  C 38.4719131585146 66.486682368018  38.3653686485802 66.3733332864734  38.2387686194294 66.3034974250708  C 37.9921940869789 66.1636465524099  37.7357708927274 66.0402697633053  37.5225027230034 65.8304038793864  C 37.5158773012485 65.8237784576315  37.5124750154433 65.8103484642662  37.5058495936884 65.8037229384149  C 37.4992241719334 65.7936952308548  37.4857941785682 65.7936952308548  37.4791686527168 65.7836675232948  L 24.3612967026578 52.3028278690498  C 23.0788226398821 50.9836452618388  23.1087268208997 48.8751376567529  24.4279094281108 47.5926635939771  C 25.7470920353217 46.3135918170065  27.8521974586989 46.3368704721728  29.1380737031834 47.65927631943  L 39.8874335223409 58.7051701630795  L 64.17099477359 34.1551580100187  C 65.4634965439258 32.8460031103678  67.5754063307205 32.8327521627615  68.8811590486627 34.1284770690472  Z " fill-rule="nonzero" fill="#272636" stroke="none" transform="matrix(1 0 0 1 141 80 )" />
    </g>
  </defs>
  <g transform="matrix(1 0 0 1 -131 -72 )">
    <use xlink:href="#widget64" filter="url(#filter63)" />
    <use xlink:href="#widget64" />
  </g>
</svg>