<?xml version="1.0" encoding="utf-8"?>
<svg version="1.1" xmlns:xlink="http://www.w3.org/1999/xlink" width="63px" height="68px" xmlns="http://www.w3.org/2000/svg">
  <g transform="matrix(1 0 0 1 -158 -114 )">
    <path d="M 30.5454545454545 68  C 19.0614247520595 68  8.56867981420271 64.3060272684025  0.132044503676298 58.0002678490197  C 0.0446867963920567 57.4724040799143  0.00115690486040876 56.9225731051873  0.00115690486040876 56.3504537625286  C 0.00115690486040876 46.0651824809929  14.0982946654237 37.6972105062904  31.4297169709732 37.6972105062904  C 48.7611392765224 37.6972105062904  62.8582770370863 46.0651824809929  62.8571567848485 56.5088323394843  C 54.1206711520558 63.7196691770845  42.9073804506629 68  30.5454545454545 68  Z M 15.0588235294116 17.217391304348  C 15.0588235294116 7.57565217391294  22.5129411764706 0  32 0  C 41.4870588235294 0  48.9411764705884 7.57565217391294  48.9411764705884 17.217391304348  C 48.9411764705884 26.8591304347825  41.4870588235294 34.4347826086957  32 34.4347826086957  C 22.5129411764706 34.4347826086957  15.0588235294116 26.8591304347825  15.0588235294116 17.217391304348  Z M 45 56.3504537625286  L 23 49.7989130434783  L 45 56.3504537625286  Z " fill-rule="nonzero" fill="#748aa1" stroke="none" transform="matrix(1 0 0 1 158 114 )" />
  </g>
</svg>