<?xml version="1.0" encoding="utf-8"?>
<svg version="1.1" xmlns:xlink="http://www.w3.org/1999/xlink" width="11px" height="19px" xmlns="http://www.w3.org/2000/svg">
  <g transform="matrix(1 0 0 1 -334 -260 )">
    <path d="M 10.3088174476841 10.1895431665039  C 10.3714206529018 10.1234335107422  10.4045635086496 10.0425220153809  10.4472889097377 9.96683702758787  C 10.4590888727678 9.94381634277346  10.4782143247768 9.92454600097659  10.4885491992188 9.90076728759766  C 10.691128547712 9.47622128662107  10.6248031975446 8.95671995605471  10.266092069615 8.61527979736326  L 2.13468572753908 0.866128127441414  C 1.69123655691965 0.443816365966796  0.992226947544623 0.463844759521493  0.572338110351552 0.909935234375013  C 0.153201625278996 1.35674386840822  0.172366669921871 2.06104900512696  0.615815840541302 2.48411881835938  L 7.91191900530134 9.43839873901368  L 0.644523814871661 16.4958527880859  C 0.20550952566964 16.9225931359863  0.192244451032366 17.6269381652832  0.615815840541302 18.0700363720703  C 0.832373000139512 18.2971311816406  1.12186821637835 18.4107184790039  1.41136343261718 18.4107184790039  C 1.68759359723771 18.4107184790039  1.96382373883927 18.3068261914062  2.17816345772877 18.0990017236328  L 10.2359189836774 10.2741251965332  C 10.2514014990234 10.2585253894043  10.2572618763951 10.2370208081055  10.2727443917411 10.2207028649902  C 10.2845443547712 10.2095715600586  10.2970570772879 10.2013926306152  10.3088174476841 10.1895431665039  Z " fill-rule="nonzero" fill="#999999" stroke="none" transform="matrix(1 0 0 1 334 260 )" />
  </g>
</svg>