<?xml version="1.0" encoding="utf-8"?>
<svg version="1.1" xmlns:xlink="http://www.w3.org/1999/xlink" width="27px" height="26px" xmlns="http://www.w3.org/2000/svg">
  <g transform="matrix(1 0 0 1 -157 -770 )">
    <path d="M 21.5325 26  C 21.5403106173003 21.4096712410558  18.5999078260691 17.4022857599441  14.2425 15.9872340425532  C 17.3511768156036 14.4395581237882  19.321660975285 11.3150537318693  19.35 7.88851063829782  C 19.2946513510295 3.55260175404078  15.7048509615274 0.0662492004869364  11.2956346640513 0.0662492004869364  C 11.1528474168363 0.0662492004869364  11.0100854123568 0.0699830559792645  10.8675 0.0774468085106719  C 10.7174406516671 0.0691780378111844  10.5671753759687 0.065041223077742  10.4168806623216 0.065041223077742  C 6.00718587755688 0.065041223077742  2.41718222267855 3.55212297051207  2.36250000000001 7.88851063829782  C 2.39944881021913 11.3248328744637  4.3888517781262 14.4517856889584  7.51499999999999 15.9872340425532  C 3.15759217393088 17.4022857599441  0.217189382699729 21.4096712410558  0.224999999999994 26  L 21.5325 26  Z M 12.96 11.2961702127659  C 12.8586961775887 12.4067121329127  11.933028909372 13.2696470251904  10.8 13.3097872340426  C 9.65777832903757 13.3103594596921  8.72145373964557 12.4189177903589  8.685 11.2961702127659  L 12.96 11.2961702127659  Z M 26.775 23.5106382978723  C 26.7827462142924 20.1378820140901  24.6003808674437 17.1366934802486  21.3525 16.0536170212766  C 23.6677535754017 14.8627818513436  25.1290383451124 12.5157974748961  25.155 9.94638297872336  C 25.109936385988 6.82271398180251  22.5913463336415 4.27780908229522  19.4175 4.14893617021278  C 19.9855170142637 5.32317067149836  20.2704050769067 6.61045479328686  20.25 7.91063829787231  C 20.2390357338625 11.0804352360162  18.7556334354742 14.0714939903188  16.2225 16.0314893617021  C 19.1777220235759 17.5888204061997  21.3208095253742 20.3078145723057  22.1175 23.5106382978723  L 26.775 23.5106382978723  Z " fill-rule="nonzero" fill="#333333" stroke="none" transform="matrix(1 0 0 1 157 770 )" />
  </g>
</svg>