<?xml version="1.0" encoding="utf-8"?>
<svg version="1.1" xmlns:xlink="http://www.w3.org/1999/xlink" width="12px" height="18px" xmlns="http://www.w3.org/2000/svg">
  <g transform="matrix(1 0 0 1 -356 -243 )">
    <path d="M 9.30665382558141 9.20124987890625  C 9.30665382558141 11.115320765625  7.8277284767442 12.6655600078125  6 12.6655600078125  C 4.17227150581397 12.6655600078125  2.73520254069769 11.115320765625  2.69334617441859 9.20300751562499  L 2.69334617441859 3.46255249218748  C 2.69334617441859 1.54848158789062  4.17227150581397 0  6 0  C 7.82772849418603 0  9.30665382558141 1.5502392421875  9.30665382558141 3.46255249218748  L 9.30665382558141 9.20124987890625  Z M 10.6111775930232 7.51391465624999  C 10.6216416802326 7.14656772070313  10.9163803430233 6.85128404882812  11.2808796453488 6.844253484375  C 11.45876925 6.83898055664062  11.6314268023256 6.90928620117188  11.7587399476744 7.03407870703126  C 11.8860530930232 7.16062884960937  11.9558137325581 7.33287765234377  11.9523256918605 7.51391465624999  L 11.9523256918605 9.34361878710936  C 11.9523256918605 12.3773069003906  9.62406469186044 14.9206132265625  6.67144606395351 15.2334733007812  L 6.67144606395351 16.6606776738281  L 8.90901824999997 16.6606776738281  C 9.27526154651162 16.6677082382813  9.57000020930235 16.9629918925781  9.58046429651165 17.330338828125  C 9.57000020930235 17.6976857636719  9.27351753488369 17.9929694355469  8.90901824999997 18  L 3.09098175000003 18  C 2.72473845348838 17.9929694355469  2.42999979069765 17.69768578125  2.41953570348835 17.330338828125  C 2.42999979069765 16.9629918925781  2.72648246511625 16.6677082207031  3.09098175000003 16.6606776738281  L 5.32855393604649 16.6606776738281  L 5.32855393604649 15.2334733007812  C 2.37419127906975 14.9188555898438  0.047674290697671 12.3773069179688  0.0476743081395057 9.34361878710936  L 0.0476743081395057 7.3346352890625  C 0.0581383953488626 6.96553071679688  0.354621069767461 6.67200468164063  0.719120354651182 6.66497411718751  C 1.0836196395349 6.67200468164063  1.3801023139535 6.9672883359375  1.39056641860464 7.3346352890625  L 1.39056641860464 9.34186115039063  C 1.38882240697677 11.8851674589844  3.44850498837212 13.9380919804688  6 13.9380919804688  C 8.55149501162788 13.9380919804688  10.6111775930232 11.8851674589844  10.6111775930232 9.34186115039063  L 10.6111775930232 7.51391465624999  Z " fill-rule="nonzero" fill="#4287ff" stroke="none" transform="matrix(1 0 0 1 356 243 )" />
  </g>
</svg>