<?xml version="1.0" encoding="utf-8"?>
<svg version="1.1" xmlns:xlink="http://www.w3.org/1999/xlink" width="13px" height="13px" xmlns="http://www.w3.org/2000/svg">
  <g transform="matrix(1 0 0 1 -45 -311 )">
    <path d="M 12.4815879342215 12.504985499442  C 12.6594094217355 12.3412025156948  12.6687684423828 12.0651112297712  12.5049854858398 11.889629483817  L 10.4296213242885 9.66920040701731  C 11.2719337266323 8.65608576904296  11.7328657927595 7.39261716552735  11.7328657927595 6.06363539027623  C 11.7328657927595 2.94473976004466  9.19422980991909 0.406103777204237  6.07299442452567 0.406103777204237  C 2.95409879429409 0.406103777204237  0.415462811453683 2.94473976004466  0.415462811453683 6.06363539027623  C 0.415462811453683 9.18253102050781  2.95409879429409 11.7211670033482  6.07299442452567 11.7211670033482  C 6.88956950648717 11.7211670033482  7.67806749930246 11.5503647677176  8.41509085135324 11.2134398067801  C 8.6350279725865 11.1128302668108  8.73095800223214 10.855457035784  8.63034846226284 10.6378596697126  C 8.52973892229353 10.4179225484794  8.27236569126674 10.3219925188337  8.05476832519531 10.422602058803  C 7.43005328892299 10.7057126102121  6.7632226461356 10.8507775254604  6.07299442452567 10.8507775254604  C 3.43374890171596 10.8507775254604  1.28585228934152 8.70288091308595  1.28585228934152 6.06363539027623  C 1.28585228934152 3.42438986746652  3.43374890171596 1.27649325509208  6.07299442452567 1.27649325509208  C 8.71223994733538 1.27649325509208  10.8601365597098 3.42438986746652  10.8601365597098 6.06363539027623  C 10.8601365597098 7.30604618373326  10.3851659626116 8.48294377825056  9.52647526053292 9.37907059012275  C 9.36035253522601 9.55221258091518  9.36503204554967 9.82830386683872  9.5381740499442 9.99442659214563  C 9.5522125945173 10.0061253815569  9.56859088065011 10.0108048918806  9.58262942522321 10.0225036676897  C 9.59432821463449 10.0388819674247  9.60134748011998 10.0599397774832  9.61538602469308 10.0763180772182  L 11.8662319321987 12.4839276893834  C 11.950463172433 12.5751781951032  12.0674510121373 12.6219733391462  12.1844388382394 12.6219733391462  C 12.2920676436942 12.6219733391462  12.3973566939872 12.5821974741908  12.4815879342215 12.504985499442  Z " fill-rule="nonzero" fill="#272636" stroke="none" transform="matrix(1 0 0 1 45 311 )" />
  </g>
</svg>