<?xml version="1.0" encoding="utf-8"?>
<svg version="1.1" xmlns:xlink="http://www.w3.org/1999/xlink" width="2px" height="4px" xmlns="http://www.w3.org/2000/svg">
  <g transform="matrix(1 0 0 1 -41 -198 )">
    <path d="M 1.17667975000001 0.928704809523822  C 1.26564834615385 0.811024595238109  1.36581428846154 0.702651595238081  1.47711851923077 0.603537095238096  C 1.52720148076924 0.555782809523805  1.55152469230769 0.500329357142846  1.55014715384615 0.437103642857153  C 1.54871059615385 0.373975404761893  1.52993686538461 0.315086571428594  1.49380626923077 0.260437142857143  C 1.46879430769231 0.222891547619042  1.43882323076923 0.192167999999981  1.4040701923077 0.168217761904771  C 1.36925809615384 0.14438935714287  1.33102186538461 0.132353309523808  1.28932215384616 0.132353309523808  C 1.24478865384616 0.132353309523808  1.18079265384615 0.16911923809522  1.09735384615385 0.242480547619039  C 1.01389534615384 0.315914952380979  0.909557480769237 0.434545380952386  0.784379576923072 0.598444928571439  C 0.684213634615389 0.731596547619063  0.594477557692315 0.87753952380956  0.51519101923077 1.03632252380953  C 0.435904461538456 1.19508116666668  0.368405615384617 1.3615389761905  0.31277317307692 1.53567159523811  C 0.257081692307693 1.70977983333336  0.214004442307697 1.88649507142856  0.183423326923077 2.06571983333333  C 0.152783173076926 2.24499333333335  0.137531980769225 2.42000304761905  0.137531980769225 2.59067590476189  C 0.137531980769225 2.75118878571431  0.157643884615382 2.90480654761905  0.19802511538461 3.05160226190475  C 0.238327634615388 3.19842233333333  0.296774173076926 3.3281873095238  0.37330565384616 3.44084845238098  C 0.449817461538458 3.55348523809522  0.544433942307691 3.64312197619046  0.657056653846155 3.70968561904766  C 0.769797442307691 3.77624926190475  0.899777019230768 3.80953107142858  1.04727086538462 3.80953107142858  C 1.19193094230769 3.80953107142858  1.32198923076923 3.77371535714286  1.43748507692308 3.70196209523812  C 1.55292188461539 3.63028192857143  1.65033276923077 3.53733161904762  1.72961932692307 3.4228675  C 1.80890588461538 3.30852521428568  1.86941869230769 3.17878461904763  1.91115778846154 3.03362130952382  C 1.9528771923077 2.88857983333332  1.97371721153846 2.74090699999999  1.97371721153846 2.59065154761907  C 1.97371721153846 2.41313228571431  1.9528771923077 2.24925711904763  1.91115778846154 2.09900164285716  C 1.86941871153846 1.94877054761906  1.80890588461538 1.81985833333334  1.72961932692307 1.71228935714288  C 1.65033276923077 1.60472038095241  1.55363034615385 1.52112602380953  1.43959073076923 1.46136004761905  C 1.32547240384615 1.40164283333331  1.19608321153846 1.37169892857145  1.05148217307692 1.37169892857145  C 1.03198032692308 1.37169892857145  1.01247846153846 1.37347752380953  0.99303565384615 1.3767910952381  C 0.973553480769226 1.38029957142857  0.94850215384615 1.39050826190476  0.917921038461543 1.40756338095241  C 1.00137953846153 1.20611823809526  1.08757340384615 1.04650683333335  1.17667975000001 0.928704809523822  Z M 0.746851807692309 2.11184169047618  C 0.816338211538465 2.00093478571426  0.917921038461543 1.94538388095236  1.0514625 1.94538388095236  C 1.18502363461539 1.94538388095236  1.28788559615384 2.00093478571426  1.36026482692307 2.11184169047618  C 1.43262438461538 2.22282169047622  1.46879432692307 2.38248180952382  1.46879432692307 2.59070026190477  C 1.46879432692307 2.67261347619046  1.45899421153847 2.75201716666669  1.43957105769231 2.82883823809522  C 1.42006921153846 2.90565928571431  1.39220378846154 2.97400152380953  1.35609288461539 3.03369440476189  C 1.3199229423077 3.09346035714287  1.27609788461538 3.14216485714286  1.22461771153846 3.17968609523808  C 1.17315721153847 3.21730478571425  1.11406128846154 3.23601666666667  1.04727088461539 3.23601666666667  C 0.983255211538463 3.23601666666667  0.926264923076928 3.2173047857143  0.876181961538464 3.17968609523808  C 0.82611867307692 3.14216485714286  0.783671153846157 3.09348473809524  0.748937769230778 3.03369440476189  C 0.714125673076921 2.9740259047619  0.687677153846153 2.9056593095238  0.669631538461545 2.82883823809522  C 0.651507211538458 2.75201719047618  0.642494249999999 2.67261350000001  0.642494249999999 2.59070026190477  C 0.642494249999999 2.38248180952382  0.677286653846153 2.2227973095238  0.746851807692309 2.11184169047618  Z " fill-rule="nonzero" fill="#333333" stroke="none" transform="matrix(1 0 0 1 41 198 )" />
  </g>
</svg>