<?xml version="1.0" encoding="utf-8"?>
<svg version="1.1" xmlns:xlink="http://www.w3.org/1999/xlink" width="21px" height="20px" xmlns="http://www.w3.org/2000/svg">
  <g transform="matrix(1 0 0 1 -32 -288 )">
    <path d="M 20.6149171662382 15.7711824861298  C 20.6149171662382 15.3430955165692  20.2704784006178 15.0977285949917  19.8437856014163 15.0925080221922  L 17.3915872252827 15.0925080221922  C 16.9905988115754 12.6701622432149  15.3712225254494 10.5349479682111  13.1452227416636 9.57436257309945  C 14.5281186812442 8.62421832358672  15.355799894153 7.04238476533214  15.3506590170542 5.34569860548805  C 15.3506590170542 2.53703043934621  13.0783913393791 0.224316689158798  10.3074585831191 0.224316689158798  C 8.90914001224209 0.224316689158798  7.71645652531759 0.725491677912714  6.72940812234558 1.73306222822015  C 5.76292322776883 2.71452991452992  5.26425814918402 3.92570280401861  5.26425814918402 5.34569860548805  C 5.26425814918402 7.05804648373066  6.12278462468571 8.63465946918581  7.46969442457459 9.57436257309945  C 5.15115885301014 10.5558302594092  3.5317825668842 12.7275885440096  3.17192116996732 15.2647869245764  C 3.15135766157208 15.3117720797721  3.15135766157208 15.3535366621683  3.15135766157208 15.4005218173639  L 3.15135766157208 15.5832418653471  C 3.15135766157208 15.9486819613135  3.23875257225188 16.3141220572799  3.66544537145332 16.3141220572799  C 4.05101115386427 16.3141220572799  4.38516816528708 15.9695642525116  4.38516816528708 15.5832418653471  L 4.38516816528708 15.5571390013495  C 4.77073394769801 12.7902354176039  7.17666442994228 10.232154745839  9.98872420299272 10.0703169890539  C 10.1892184098464 10.0911992802519  10.4154170021942 10.0911992802519  10.6159112090479 10.0703169890539  C 12.0142297799249 10.1381844354476  13.2274767752446 11.0309023841655  14.2402295637107 12.0123700704753  C 15.1141786705088 12.8372205727995  15.684816028477 13.9387614334983  15.9264372521212 15.0872874493927  L 9.94759718620222 15.0872874493927  C 9.52090438700079 15.0872874493927  9.17132474428153 15.3378749437697  9.17132474428153 15.7711824861298  C 9.17132474428153 16.2044900284901  9.52090438700079 16.4028717948718  9.94759718620222 16.4028717948718  L 19.8386447243175 16.4028717948718  C 20.265337523519 16.4028717948718  20.6149171662382 16.2044900284901  20.6149171662382 15.7711824861298  Z M 14.0140309713629 5.34569860548805  C 14.0088900942641 7.36083970610287  12.2866962661619 9.00532013795169  10.3074585831191 9.00532013795169  C 8.34878440847153 9.00532013795169  6.60088619487527 7.3399574149048  6.60088619487527 5.34569860548805  C 6.60088619487527 4.31724576398261  7.0635651337684 3.36710151446994  7.7627244192069 2.65710361373516  C 8.4618837046454 1.94710571300044  9.31526930304828 1.58166561703405  10.3074585831191 1.58166561703405  C 11.2996478631899 1.58166561703405  12.1530334615928 1.94710571300044  12.8521927470313 2.65710361373516  C 13.5513520324698 3.36710151446994  14.0140309713629 4.31724576398261  14.0140309713629 5.34569860548805  Z M 20.620058043337 19.3002896986055  C 20.6149171662382 19.7335972409657  20.2704784006178 19.9789641625432  19.8437856014163 20  L 0.776272441920689 20  C 0.349579642719249 19.9841847353426  0 19.7335972409657  0 19.3002896986055  C 0 18.8669821562453  0.349579642719249 18.6163946618684  0.776272441920689 18.6163946618684  L 19.8437856014163 18.6163946618684  C 20.2704784006178 18.6163946618684  20.620058043337 18.8669821562453  20.620058043337 19.3002896986055  Z " fill-rule="nonzero" fill="#333333" stroke="none" transform="matrix(1 0 0 1 32 288 )" />
  </g>
</svg>