<?xml version="1.0" encoding="utf-8"?>
<svg version="1.1" xmlns:xlink="http://www.w3.org/1999/xlink" width="10px" height="17px" xmlns="http://www.w3.org/2000/svg">
  <g transform="matrix(1 0 0 1 -332 -290 )">
    <path d="M 9.37165222516742 9.11695967529295  C 9.42856422991071 9.05780893066407  9.45869409877233 8.98541443481446  9.49753537248884 8.91769628784181  C 9.50826261160714 8.89709883300782  9.52564938616072 8.87985694824221  9.53504472656249 8.8585812573242  C 9.71920777064733 8.47872430908205  9.65891199776786 8.01390732910158  9.33281097237725 7.70840823974612  L 1.94062338867187 0.774956745605493  C 1.53748777901785 0.397098853759758  0.902024497767854 0.415018995361322  0.520307373046876 0.814152578125004  C 0.139274204799108 1.21392872436525  0.156696972656249 1.84409647827147  0.559832582310264 2.2226326269531  L 7.19265364118303 8.4448830822754  L 0.585930740792406 14.7594472314453  C 0.18682684151787 15.1412675427246  0.174767682756709 15.7714709899902  0.559832582310264 16.1679272802734  C 0.756702727399556 16.3711173730469  1.01988019670759 16.4727481127929  1.28305766601562 16.4727481127929  C 1.53417599748883 16.4727481127929  1.7852943080357 16.3797918554687  1.98014859793525 16.1938436474609  L 9.30538089425224 9.19263833374021  C 9.31945590820311 9.17868061157225  9.32478352399554 9.15943967041017  9.33885853794644 9.14483940551759  C 9.34958577706473 9.13487981689451  9.36096097935268 9.12756182739258  9.37165222516742 9.11695967529295  Z " fill-rule="nonzero" fill="#cccccc" stroke="none" transform="matrix(1 0 0 1 332 290 )" />
  </g>
</svg>