<?xml version="1.0" encoding="utf-8"?>
<svg version="1.1" xmlns:xlink="http://www.w3.org/1999/xlink" width="20px" height="19px" xmlns="http://www.w3.org/2000/svg">
  <g transform="matrix(1 0 0 1 -32 -469 )">
    <path d="M 5.11465909090909 12.7262395833333  C 5.66505681818182 13.0903214285714  6.0309375 13.5447663690476  6.30295454545455 13.9992113095238  L 9.41465909090909 13.3612410714286  C 9.41465909090909 12.5425729166666  9.68673295454546 11.6306860119047  10.1464488636364 10.8121592261905  C 10.6936931818182 9.90335416666665  11.4255113636364 9.17352232142855  12.3417897727273 8.80929910714286  L 10.9689204545455 4.89388541666665  C 10.6030965909091 4.89388541666665  10.1464772727273 4.80208035714287  9.78053977272727 4.5298035714286  C 8.68289772727272 3.89174851190478  8.31698863636363 2.43516666666665  9.04883522727273 1.34269494047618  C 9.68676136363636 0.158418154761932  11.1503977272727 -0.205776785714306  12.2480681818182 0.522584821428552  C 12.8891193181818 0.886694940476218  13.2550852272727 1.43291666666664  13.3457102272727 2.16125  L 16.3634943181818 2.34333333333336  C 16.4573863636364 2.07102827380953  16.6386647727273 1.79711160714288  16.9138636363636 1.61508482142858  C 17.7363352272727 0.978641369047637  18.9247443181818 1.16063988095237  19.4751420454545 1.9792232142857  C 20.1130681818182 2.79933333333332  19.9317613636364 3.98355357142856  19.1093181818182 4.52983184523811  C 18.2836931818182 5.16630357142856  17.0952272727273 4.98422023809525  16.5480113636364 4.16569345238094  C 16.2728693181818 3.89180505952379  16.1822159090909 3.52763839285717  16.1822159090909 3.25530505952383  L 13.3456818181818 3.07169494047616  C 13.2550568181818 3.25530505952383  13.1642613636364 3.52763839285711  13.0736079545455 3.70969345238098  C 12.7984375 4.16569345238094  12.5232386363636 4.43802678571427  12.1572159090909 4.62005357142857  L 13.4394318181818 8.44521726190476  C 14.7184659090909 8.17132886904761  16.0913636363636 8.35341220238092  17.2797443181818 8.99141071428573  C 19.7471590909091 10.4480773809524  20.4789488636364 13.6351860119048  19.0153409090909 16.0939330357143  C 17.5518181818182 18.5527083333333  14.3526136363636 19.3712351190476  11.8820170454545 17.824375  C 10.6936931818182 17.0961830357143  9.87125 16.0035982142857  9.59914772727272 14.7276294642857  L 6.67201704545455 15.27540625  C 6.76264204545455 16.0035982142857  6.57809659090909 16.6417380952381  6.21539772727273 17.1863764880952  C 5.29914772727273 18.7332931547619  3.28823863636364 19.2810699404762  1.73085227272728 18.3690133928571  C 0.179715909090909 17.3700431547619  -0.27991477272727 15.365599702381  0.636335227272731 13.8187113095238  C 1.54957386363637 12.3591041666667  3.56349431818182 11.8144375  5.11460227272728 12.7263244047619  Z " fill-rule="nonzero" fill="#000000" stroke="none" transform="matrix(1 0 0 1 32 469 )" />
  </g>
</svg>