<?xml version="1.0" encoding="utf-8"?>
<svg version="1.1" xmlns:xlink="http://www.w3.org/1999/xlink" width="59px" height="52px" xmlns="http://www.w3.org/2000/svg">
  <defs>
    <mask fill="white" id="clip75">
      <path d="M 12.3857654379898 0.340183708819879  C 12.3857654379898 0.340183708819879  18.7776205727829 0.340183708819879  18.7776205727829 0.340183708819879  C 18.7776205727829 0.340183708819879  6.5785052495483 11.7805023851547  6.5785052495483 11.7805023851547  C 6.5785052495483 11.7805023851547  0.187037007506028 11.7805023851547  0.187037007506028 11.7805023851547  C 0.187037007506028 11.7805023851547  12.3857654379898 0.340183708819879  12.3857654379898 0.340183708819879  Z " fill-rule="evenodd" />
    </mask>
    <filter x="42px" y="25px" width="59px" height="52px" filterUnits="userSpaceOnUse" id="filter76">
      <feOffset dx="1" dy="1" in="SourceAlpha" result="shadowOffsetInner" />
      <feGaussianBlur stdDeviation="10" in="shadowOffsetInner" result="shadowGaussian" />
      <feComposite in2="shadowGaussian" operator="atop" in="SourceAlpha" result="shadowComposite" />
      <feColorMatrix type="matrix" values="0 0 0 0 0.972549019607843  0 0 0 0 0.937254901960784  0 0 0 0 0.847058823529412  0 0 0 1 0  " in="shadowComposite" />
    </filter>
    <g id="widget77">
      <path d="M 12.3857654379898 0.340183708819879  C 12.3857654379898 0.340183708819879  18.7776205727829 0.340183708819879  18.7776205727829 0.340183708819879  C 18.7776205727829 0.340183708819879  6.5785052495483 11.7805023851547  6.5785052495483 11.7805023851547  C 6.5785052495483 11.7805023851547  0.187037007506028 11.7805023851547  0.187037007506028 11.7805023851547  C 0.187037007506028 11.7805023851547  12.3857654379898 0.340183708819879  12.3857654379898 0.340183708819879  Z " fill-rule="nonzero" fill="#ffffff" stroke="none" fill-opacity="0" transform="matrix(1 0 0 1 61 44 )" />
      <path d="M 12.3857654379898 0.340183708819879  C 12.3857654379898 0.340183708819879  18.7776205727829 0.340183708819879  18.7776205727829 0.340183708819879  C 18.7776205727829 0.340183708819879  6.5785052495483 11.7805023851547  6.5785052495483 11.7805023851547  C 6.5785052495483 11.7805023851547  0.187037007506028 11.7805023851547  0.187037007506028 11.7805023851547  C 0.187037007506028 11.7805023851547  12.3857654379898 0.340183708819879  12.3857654379898 0.340183708819879  Z " stroke-width="7.98220833082888" stroke="#ffffff" fill="none" transform="matrix(1 0 0 1 61 44 )" mask="url(#clip75)" />
    </g>
  </defs>
  <g transform="matrix(1 0 0 1 -42 -25 )">
    <use xlink:href="#widget77" filter="url(#filter76)" />
    <use xlink:href="#widget77" />
  </g>
</svg>