<?xml version="1.0" encoding="utf-8"?>
<svg version="1.1" xmlns:xlink="http://www.w3.org/1999/xlink" width="106px" height="12px" preserveAspectRatio="xMinYMid meet" viewBox="440 415  106 10" xmlns="http://www.w3.org/2000/svg">
  <path d="M 447 420.5  L 535 420.5  A 5 5 0 0 1 540.5 425.5 L 540.5 525  A 5 5 0 0 0 545.5 530.5 L 630 530.5  " stroke-width="3" stroke-dasharray="9,3" stroke="#2f78ff" fill="none" />
  <path d="M 444 416.5  A 4 4 0 0 0 440 420.5 A 4 4 0 0 0 444 424.5 A 4 4 0 0 0 448 420.5 A 4 4 0 0 0 444 416.5 Z M 444 419.5  A 1 1 0 0 1 445 420.5 A 1 1 0 0 1 444 421.5 A 1 1 0 0 1 443 420.5 A 1 1 0 0 1 444 419.5 Z M 621.521882452311 526.092276983136  A 16.2397059063707 16.2397059063707 0 0 0 623.007333627491 528.803435668846 A 6.67022816787241 6.67022816787241 0 0 0 624.445452290199 530.5 A 6.67022816787241 6.67022816787241 0 0 0 623.007333627491 532.196564331154 A 16.2397059063707 16.2397059063707 0 0 0 621.521882452311 534.907723016864 L 624.278117547689 536.092276983136  A 13.2397059063707 13.2397059063707 0 0 1 625.545869493511 533.799123767176 A 3.67022816787241 3.67022816787241 0 0 1 628.144674846506 531.979910206562 A 1.5 1.5 0 0 0 629.4 530.5 A 1.5 1.5 0 0 0 628.144674846506 529.020089793438 A 3.67022816787241 3.67022816787241 0 0 1 625.545869493511 527.200876232824 A 13.2397059063707 13.2397059063707 0 0 1 624.278117547689 524.907723016864 L 621.521882452311 526.092276983136  Z " fill-rule="nonzero" fill="#2f78ff" stroke="none" />
</svg>