<?xml version="1.0" encoding="utf-8"?>
<svg version="1.1" xmlns:xlink="http://www.w3.org/1999/xlink" width="18px" height="19px" xmlns="http://www.w3.org/2000/svg">
  <g transform="matrix(1 0 0 1 -269 -171 )">
    <path d="M 16 16.4977678571429  C 16.0961538461539 17.5499776785714  15.2225480769231 18.40625  14.1490384615385 18.40625  L 2.46634615384613 18.40625  C 1.39283653846155 18.40625  0.519230769230774 17.5499776785714  0.519230769230774 16.4977678571429  L 0.519230769230774 3.77455357142858  C 0.519230769230774 2.72234374999999  1.39283653846155 1.86607142857142  2.46634615384613 1.86607142857142  L 11.5528846153846 1.86607142857142  C 11.9118028846154 1.86607142857142  12.2019230769231 2.15107142857144  12.2019230769231 2.50223214285714  C 12.2019230769231 2.85339285714286  11.9118028846154 3.13839285714286  11.5528846153846 3.13839285714286  L 2.46634615384613 3.13839285714286  C 2.10872596153848 3.13839285714286  1.81730769230768 3.42402901785715  2 3.77455357142858  L 2 16.4977678571429  C 1.81730769230768 16.8489285714286  2.10872596153848 17.1339285714286  2.46634615384613 17  L 14.1490384615385 17  C 14.5073076923077 17.1339285714286  14.7980769230769 16.8489285714286  14.7980769230769 16.4977678571429  L 14.7980769230769 6.31919642857142  C 14.7980769230769 5.96803571428572  15.0881971153846 5.68303571428572  15.4471153846154 5.68303571428572  C 15.8060336538462 5.68303571428572  16.0961538461539 5.96803571428572  16 6.31919642857142  L 16 16.4977678571429  Z M 8.75747596153849 9.92686383928572  C 8.63091346153846 10.0496428571429  8.46605769230769 10.1107142857143  8.30120192307692 10.1107142857143  C 8.13375000000002 10.1107142857143  7.96629807692307 10.047734375  7.83973557692309 9.92177455357142  C 7.58790865384617 9.67176339285714  7.58985576923078 9.2690736607143  7.8449278846154 9.02224330357143  L 16.3291586538462 0.797321428571422  C 16.5848798076923 0.549854910714288  16.9950721153846 0.553035714285727  17.2468990384615 0.802410714285713  C 17.499375 1.05242187499999  17.4967788461539 1.45511160714287  17.2417067307692 1.70194196428571  L 8.75747596153849 9.92686383928572  Z " fill-rule="nonzero" fill="#666666" stroke="none" transform="matrix(1 0 0 1 269 171 )" />
  </g>
</svg>