<?xml version="1.0" encoding="utf-8"?>
<svg version="1.1" xmlns:xlink="http://www.w3.org/1999/xlink" width="150px" height="60px" xmlns="http://www.w3.org/2000/svg">
  <defs>
    <filter x="468px" y="452px" width="150px" height="60px" filterUnits="userSpaceOnUse" id="filter140">
      <feOffset dx="0" dy="2" in="SourceAlpha" result="shadowOffsetInner" />
      <feGaussianBlur stdDeviation="5" in="shadowOffsetInner" result="shadowGaussian" />
      <feComposite in2="shadowGaussian" operator="atop" in="SourceAlpha" result="shadowComposite" />
      <feColorMatrix type="matrix" values="0 0 0 0 0.184313725490196  0 0 0 0 0.470588235294118  0 0 0 0 1  0 0 0 0.627450980392157 0  " in="shadowComposite" />
    </filter>
    <g id="widget141">
      <path d="M 478.5 463  A 2.5 2.5 0 0 1 481 460.5 L 605 460.5  A 2.5 2.5 0 0 1 607.5 463 L 607.5 497  A 2.5 2.5 0 0 1 605 499.5 L 481 499.5  A 2.5 2.5 0 0 1 478.5 497 L 478.5 463  Z " fill-rule="nonzero" fill="#0066ff" stroke="none" />
      <path d="M 478.5 463  A 2.5 2.5 0 0 1 481 460.5 L 605 460.5  A 2.5 2.5 0 0 1 607.5 463 L 607.5 497  A 2.5 2.5 0 0 1 605 499.5 L 481 499.5  A 2.5 2.5 0 0 1 478.5 497 L 478.5 463  Z " stroke-width="1" stroke="#2f78ff" fill="none" />
    </g>
  </defs>
  <g transform="matrix(1 0 0 1 -468 -452 )">
    <use xlink:href="#widget141" filter="url(#filter140)" />
    <use xlink:href="#widget141" />
  </g>
</svg>