<?xml version="1.0" encoding="utf-8"?>
<svg version="1.1" xmlns:xlink="http://www.w3.org/1999/xlink" width="50px" height="50px" xmlns="http://www.w3.org/2000/svg">
  <g transform="matrix(1 0 0 1 -310 -633 )">
    <path d="M 31.8214690909091 10.8306327272727  L 32.9757963636363 10.9357090909091  L 33.81536 11.7753890909091  L 34.13024 10.6733090909091  L 35.1797236363636 10.200989090909  L 34.2352 9.46626909090912  L 34.02528 8.31170909090906  L 33.1332363636363 8.9414690909091  L 31.9789090909091 8.73154909090908  L 32.3461527272727 9.83362909090908  L 31.8214690909091 10.8306327272727  Z M 41.0040727272727 34.8660072727273  L 41.4763927272728 33.8164072727272  L 40.3219490909091 33.8688872727273  L 39.4823854545454 33.1341672727273  L 39.1675054545454 34.2362472727273  L 38.1705018181818 34.8135272727272  L 39.1150254545454 35.4432872727273  L 39.3249454545455 36.5452509090909  L 40.269469090909 35.810530909091  L 41.3694545454546 35.9102545454546  L 41.0040727272727 34.8660072727273  Z M 23.9505163636364 8.41655272727269  L 23.7405963636364 9.57122909090913  L 24.84256 9.25634909090911  L 25.8920436363636 9.78103272727276  L 25.8920436363636 8.6264727272727  L 26.7316072727273 7.83927272727271  L 25.6296436363636 7.47191272727275  L 25.10496 6.42242909090908  L 24.4228363636364 7.31447272727269  L 23.2683927272727 7.47191272727275  L 23.9505163636364 8.41655272727269  Z M 41.369570909091 35.9102545454546  L 41.3714327272727 35.9156072727272  L 41.3741090909091 35.9109527272727  L 41.369570909091 35.9102545454546  Z M 32.5035927272727 15.7637527272727  L 33.0807563636364 15.0816290909091  C 30.8244654545454 13.1923490909091  27.9384145454546 12.1952290909092  24.9475200000001 12.1952290909092  C 18.8081745454546 12.1952290909092  13.5085090909091 16.5509527272727  12.3540654545455 22.5860363636364  L 13.1411490909091 22.7434763636363  C 14.1906327272727 17.1282327272727  19.1755345454546 13.0349090909091  24.89504 13.0349090909091  C 27.6761309090909 13.0349090909091  30.3522618181818 13.9795490909091  32.5035927272727 15.7637527272727  Z M 16.1845236363636 11.0405527272727  L 16.4469236363636 12.1427490909091  L 17.3389672727272 11.4080290909091  L 18.5458909090909 11.5129890909091  L 18.0736872727273 10.4633890909091  L 18.5458909090909 9.41378909090906  L 17.3389672727272 9.51874909090907  L 16.4469236363636 8.78402909090914  L 16.1845236363636 9.88599272727276  L 15.1875200000001 10.4632727272727  L 16.1845236363636 11.0405527272727  Z M 10.3076945454545 16.4461090909091  L 11.4620218181818 16.3935127272728  L 12.2491054545454 17.1807127272727  L 12.6689454545455 16.0787490909091  L 13.7184290909091 15.5539490909091  L 12.7739054545455 14.8717090909091  L 12.6689454545455 13.7696290909091  L 11.6719418181818 14.4518690909091  L 10.5699781818182 14.2944290909091  L 10.8848581818182 15.396509090909  L 10.3076945454545 16.4461090909091  Z M 19.1230545454546 39.5367272727273  L 17.8637672727273 39.4316509090909  L 17.0242036363637 38.5919709090909  L 16.7093236363636 39.6940509090909  L 15.71232 40.1663709090909  L 16.6568436363637 40.901090909091  L 16.8667636363637 42.0556509090909  L 17.8112872727273 41.4260072727272  L 18.9657309090909 41.6359272727273  L 18.5983709090909 40.5338472727273  L 19.1230545454546 39.5367272727273  Z M 26.3117672727273 41.8983272727273  L 26.5216872727273 40.7436509090909  L 25.4197236363636 41.0585309090909  L 24.37024 40.5338472727273  L 24.37024 41.6884072727273  L 23.5306763636364 42.4756072727273  L 24.63264 42.8429672727273  L 25.1573236363636 43.8925672727273  L 25.8394472727273 43.0004072727272  L 26.9938909090909 42.8429672727273  L 26.3117672727273 41.8983272727273  Z M 36.8063709090908 27.20416  C 35.6519272727273 32.8718836363637  30.7195054545455 36.9652072727273  25 36.9652072727273  C 22.2189090909091 36.9652072727273  19.5428945454545 36.0204509090909  17.3914472727273 34.2362472727273  L 16.8667636363637 34.8660072727273  C 19.1230545454545 36.7551709090909  22.0091054545454 37.7522909090909  25 37.7522909090909  C 31.1393454545454 37.7522909090909  36.4390109090909 33.3965672727272  37.5934545454546 27.3614836363636  L 36.8063709090908 27.20416  Z M 34.02528 39.8513745454545  L 33.7628800000001 38.7494109090909  L 32.8708363636364 39.4840145454546  L 31.6639127272727 39.3790545454546  L 32.1361163636364 40.4286545454546  L 31.6639127272727 41.4782545454545  L 32.8708363636364 41.3732945454545  L 33.7628800000001 42.1080145454546  L 34.02528 41.0059345454546  L 35.0222836363636 40.4286545454546  L 34.02528 39.8513745454545  Z M 49.6096290909091 25  C 49.6096290909091 11.4080290909091  38.5379781818182 0.387461818181805  25 0.387461818181805  C 11.4095418181818 0.387461818181805  0.390370909090905 11.4080290909091  0.390370909090905 25  C 0.390370909090905 38.5919709090909  11.4095418181818 49.6125381818182  25 49.6125381818182  C 38.5904581818182 49.6125381818182  49.6096290909091 38.5919709090909  49.6096290909091 25  Z M 47.9829818181818 25  C 47.9305018181819 37.6473309090909  37.6459345454545 47.9856581818182  25 47.9856581818182  C 12.3540654545455 47.9856581818182  2.01701818181817 37.6999272727272  2.01701818181817 25  C 2.01701818181817 12.3526690909091  12.3017018181818 2.01434181818183  25 2.01434181818183  C 37.6982981818182 2.01434181818183  47.9829818181818 12.300189090909  47.9829818181818 25  Z M 45.6217309090908 24.9475200000001  C 45.6217309090908 13.6121890909091  36.3340509090909 4.32346181818184  25 4.32346181818184  C 13.6134690909091 4.32346181818184  4.37826909090916 13.5597090909091  4.37826909090916 24.9475199999999  C 4.37826909090916 36.3354472727273  13.6134690909091 45.5716945454545  25 45.5716945454545  C 36.3865309090909 45.5716945454545  45.6217309090908 36.3354472727273  45.6217309090908 24.9475200000001  Z M 41.4239127272727 35.9156072727272  C 37.8033745454545 41.2159709090909  31.8214690909091 44.6795345454545  25 44.6795345454545  C 14.1381527272727 44.6795345454545  5.32267636363633 35.8631272727273  5.32267636363633 25  C 5.32267636363633 14.1369890909091  14.1381527272727 5.32058181818184  25 5.32058181818184  C 35.8618472727273 5.32058181818184  44.6772072727273 14.1369890909091  44.6772072727273 25  C 44.6772072727273 29.0389818181818  43.4709818181819 32.8153309090909  41.3741090909091 35.9109527272727  L 41.4239127272727 35.9156072727272  Z M 19.2581527272728 31.0758109090909  C 20.1328581818182 30.7837381818182  20.5454836363636 30.2481163636364  20.4954472727273 29.4678981818182  C 20.4661236363636 29.0424727272727  20.3852509090909 28.4850909090909  20.2545745454545 27.7971490909091  C 19.9292218181819 27.8151854545455  19.6242327272727 27.8100654545455  19.3425163636364 27.7844654545454  C 19.5013527272727 28.4506472727272  19.5872290909091 28.9951127272727  19.6024727272728 29.4179781818182  C 19.6203927272727 29.8498036363636  19.35648 30.1559563636364  18.8121309090909 30.3378327272727  L 14.1286109090909 31.9033890909091  C 13.5764654545455 32.0866618181818  13.2049163636364 31.8867490909091  13.01024 31.3051636363637  L 12.0865454545454 28.5402472727272  L 17.76672 26.6427054545454  L 17.9615127272727 27.2219636363636  L 18.7583709090909 26.9553745454546  L 17.2788072727273 22.5282036363636  L 9.63208727272729 25.0829672727273  L 9.86772363636362 25.7855709090909  L 16.7164218181819 23.4980945454546  L 17.5323636363636 25.9394036363636  L 11.8509090909091 27.8369454545455  L 11.4165236363636 26.5351854545454  L 10.5993018181819 26.8080581818182  L 12.2493381818181 31.7483927272727  C 12.5836509090909 32.7490036363636  13.2356363636363 33.0885527272727  14.2055272727272 32.76448  L 19.2581527272728 31.0758109090909  Z M 28.6496290909091 20.462749090909  L 28.42016 19.7786472727273  L 25.7606690909091 20.6666181818182  L 25.25344 19.1457454545455  L 24.4924218181819 19.4006981818181  L 25.0010472727272 20.9201745454545  L 22.3697163636364 21.8003490909091  L 22.5979054545455 22.4845672727273  L 25.22912 21.6043927272727  L 25.7236654545455 23.0853527272727  L 23.4061672727273 23.8604509090909  L 23.63552 24.5446690909091  L 29.0403781818182 22.7381236363636  L 28.8124218181818 22.0539054545454  L 26.4845672727273 22.83168  L 25.9901381818182 21.3506036363636  L 28.6496290909091 20.462749090909  Z M 21.5984581818182 30.0187636363637  C 22.6029090909091 29.3590981818181  23.5828072727273 28.7504  24.5373381818181 28.1917381818182  C 24.4566489683841 27.9512733839715  24.3857254689017 27.7076412642391  24.3247418181818 27.46144  C 23.2795398400659 28.1178829138732  22.2193404986007 28.7501382190228  21.1449890909091 29.3577018181818  L 21.5984581818182 30.0187636363637  Z M 20.6620800000001 27.18496  L 21.0489890909091 27.8356654545455  C 22.19936 27.2347636363636  23.1089745454545 26.7645381818181  23.77888 26.4289454545454  C 23.7177808734812 26.1810757896183  23.6656547708762 25.9310800882932  23.6226036363637 25.6794472727273  C 23.1037381818181 25.95744  22.4427927272727 26.2969890909091  21.6408145454545 26.6992581818182  C 22.0263272727273 25.4308945454545  22.3786763636364 24.0746763636364  22.6989090909091 22.6282763636364  L 21.8790109090909 22.51296  C 21.796158110951 22.9898205536998  21.7051873354711 23.4652349901633  21.6061381818182 23.9389963636363  C 21.2115490909091 24.0850327272727  20.8311563636363 24.2260654545455  20.4672872727272 24.3579054545454  C 20.6787200000001 23.5328872727273  20.9002763636364 22.3349236363637  21.1360290909091 20.7641309090909  L 20.3186909090909 20.7206109090909  C 20.1828945454546 22.3989236363636  19.9535418181819 23.7250036363637  19.630749090909 24.6987345454545  L 20.0280145454545 25.2855563636364  C 20.4494836363636 25.10496  20.9207563636364 24.910050909091  21.4409018181818 24.696290909091  C 21.1860654545455 25.79872  20.9271563636364 26.6289745454545  20.6620800000001 27.18496  Z M 29.5655272727273 27.4420072727273  L 29.7627636363636 28.0316218181819  L 30.5031854545455 27.7830690909091  L 29.2157381818182 23.9258472727273  L 24.1990690909091 25.6010181818182  L 25.4877963636364 29.4601018181818  L 26.2282181818181 29.2115490909091  L 26.0322618181818 28.6220509090909  L 29.5655272727273 27.4420072727273  Z M 29.3438545454545 26.7774545454546  L 25.8094254545454 27.9573818181818  L 25.1624436363636 26.01888  L 28.6957090909091 24.8395345454545  L 29.3438545454545 26.7774545454546  Z M 33.6697890909091 17.4429963636363  L 33.3279127272727 16.4167854545454  L 32.6055272727273 16.6590545454545  L 32.9488 17.6852654545455  L 28.6827927272727 19.1099054545455  L 28.9056290909091 19.77504  L 33.1703563636364 18.3502836363637  L 33.5227054545454 19.4048872727273  L 30.2072727272728 20.5117381818181  L 31.2834036363636 23.7328  L 32.0046254545454 23.4918109090909  L 31.8945454545454 23.1586618181818  L 34.1978472727272 22.3886836363637  C 33.4048290909091 23.93504  32.3545309090908 25.3252363636364  31.043810909091 26.5570618181819  C 31.3269236363636 26.7312581818181  31.5613963636363 26.8850909090909  31.7472290909091 27.0197236363637  C 33.0359563636364 25.6602472727273  34.0044509090908 24.2488727272728  34.6527127272727 22.7871127272728  L 35.7440872727273 26.0548363636364  L 36.4665890909091 25.8125672727273  L 35.3816145454546 22.56416  C 36.7958981818182 23.4070981818181  38.3907781818182 23.9248  40.1650909090909 24.1130763636363  C 40.225250909091 23.8734836363636  40.319970909091 23.5890909090909  40.4493672727273 23.2585018181818  C 38.6495709090909 23.2033454545455  36.9931345454546 22.7703563636363  35.4801745454546 21.9605818181818  L 37.8129163636364 21.1816436363637  L 37.9231127272727 21.5147927272727  L 38.6454981818181 21.27264  L 37.5693672727273 18.0515781818182  L 34.2450909090909 19.1623854545454  L 33.8927418181818 18.1080145454546  L 38.1112727272728 16.6987345454545  L 37.88832 16.0337163636364  L 33.6697890909091 17.4429963636363  Z M 34.4603636363636 19.80832  L 37.0635345454546 18.9395490909091  L 37.5963636363636 20.5359418181819  L 34.9933090909091 21.4047127272728  L 34.4603636363636 19.80832  Z M 33.7379781818182 20.05024  L 34.2722036363636 21.6466327272727  L 31.6779927272727 22.5128436363636  L 31.1451636363637 20.9164509090909  L 33.7379781818182 20.05024  Z " fill-rule="nonzero" fill="#000000" stroke="none" transform="matrix(1 0 0 1 310 633 )" />
  </g>
</svg>