<?xml version="1.0" encoding="utf-8"?>
<svg version="1.1" xmlns:xlink="http://www.w3.org/1999/xlink" width="28px" height="34px" xmlns="http://www.w3.org/2000/svg">
  <g transform="matrix(1 0 0 1 -320 -17 )">
    <path d="M 20.5809323597281 29.7262889023325  L 21.2559652873927 28.8291904729896  L 21.534475376429 29.9310613698999  L 22.5682670628523 30.301602025498  L 21.6336060860861 30.9305460330264  L 21.6005625162004 32.0665456745311  L 20.7603117391075 31.3352154332191  L 19.6934764827986 31.6618762743385  L 20.1041608513777 30.608760726849  L 19.4810535335336 29.6580314131433  L 20.5809323597281 29.7262889023325  Z M 13.1602906654023 32.0665456745311  L 12.8770600663821 30.9646747776209  L 13.8966902228544 31.4034729224082  L 14.8171896696697 30.7940310546481  L 14.7369409999473 31.9154040913266  L 15.5724712670565 32.6418587976967  L 14.5056360107477 32.9002621496269  L 14.1091131721195 33.9485021621743  L 13.5379314640957 32.9831462436423  L 12.4333321279174 32.9148887544532  L 13.1602906654023 32.0665456745311  Z M 6.3438742489858 30.0822029531044  L 6.49021005847959 28.9462033115996  L 7.26437369580106 29.760417646927  L 8.34537048206101 29.575147319128  L 7.83555540382486 30.5746319822545  L 8.3642525219957 31.574116645381  L 7.27853522575208 31.388846317582  L 6.50909209841416 32.2030606529094  L 6.3438742489858 31.0816876162309  L 5.35728766239919 30.5746319822545  L 6.3438742489858 30.0822029531044  Z M 1.18435683683686 24.7239900517577  L 1.90659486433805 23.8756469718357  L 2.12373832358674 24.9775178687459  L 3.12448644012431 25.4358181533015  L 2.17094342342341 25.9770025318725  L 2.07181271376641 27.1130021733773  L 1.26932601654289 26.3329165826444  L 0.183608720299219 26.5864443996325  L 0.646218698698647 25.5528309919114  L 0.0844780106422149 24.5874750733795  L 1.18435683683686 24.7239900517577  Z M 7.08027380643802 4.75867446393762  L 6.40996138875715 5.65577289328045  L 6.13145129972077 4.57340413613855  L 5.09293910331382 4.18336134077212  L 6.01343855012902 3.56904393806994  L 6.04648212001473 2.43304429656516  L 6.90089442705863 3.14487239810894  L 7.9535681534166 2.82308709193162  L 7.55704531478847 3.89570477918936  L 8.1801526326326 4.82693195312676  L 7.08027380643802 4.75867446393762  Z M 14.6519718202413 2.26727610853443  L 14.9304819092777 3.36914700544466  L 13.9297337927401 2.92547332571532  L 12.9950728159739 3.53491519347539  L 13.0942035256309 2.3989155519706  L 12.239791218587 1.68708745042684  L 13.3066264748959 1.4189330286124  L 13.717310843475 0.365817481122989  L 14.2743310215479 1.33117339965495  L 15.3742098477425 1.39943088884409  L 14.6519718202413 2.26727610853443  Z M 21.4825497666087 4.25161882996123  L 21.322052427164 5.3681163316977  L 20.5478887898424 4.55390199637024  L 19.4621714935989 4.75867446393762  L 19.971986571835 3.75918980081109  L 19.4621714935989 2.74020299791625  L 20.5478887898424 2.94497546548363  L 21.322052427164 2.11125899038784  L 21.4683882366577 3.24725863189262  L 22.4549748232443 3.73968766104278  L 21.4825497666087 4.25161882996123  Z M 26.6420671787577 9.60983173130783  L 25.9009471113219 10.4581748112299  L 25.7026856920078 9.33680177455133  L 24.6877760455192 8.89800362976405  L 25.6554805921711 8.3373171114248  L 25.7546113018282 7.20131746992002  L 26.5570979990517 7.98140306065291  L 27.6239332553606 7.72787524366472  L 27.1660437869448 8.76148865138582  L 27.7230639650176 9.7463467096861  L 26.6420671787577 9.60983173130783  Z " fill-rule="nonzero" fill="#000000" stroke="none" transform="matrix(1 0 0 1 320 17 )" />
  </g>
</svg>