<?xml version="1.0" encoding="utf-8"?>
<svg version="1.1" xmlns:xlink="http://www.w3.org/1999/xlink" width="20px" height="8px" xmlns="http://www.w3.org/2000/svg">
  <g transform="matrix(1 0 0 1 -326 -21 )">
    <path d="M 19.6030394961763 7.55413786992736  L 19.7421907932224 7.91252879673931  L 19.3391318638476 7.8535530746057  C 19.2863503373819 7.84447988658516  19.2431654520918 7.84447988658516  19.2047788873895 7.84447988658516  C 19.1615940020993 7.84447988658516  19.1136107962213 7.84901648059541  19.0656275903434 7.85808966861599  L 18.8688964462438 7.88984582668791  L 18.7969216374269 7.71291866028706  C 17.9812071375019 5.69413432571327  16.556105922927 3.96569200779728  14.6751642525116 2.71812865497075  C 12.7510376968061 1.4388091440723  10.491028699955 0.767393230551131  8.13985161193585 0.767393230551131  C 5.52956521217573 0.767393230551131  3.07282507122511 1.5839801524012  1.02874050082471 3.1264221158958  L 0.879992562603093 3.23983696615276  L 0.731244624381475 3.1264221158958  C 0.659269815564585 3.07198298777247  0.572900044984294 3.02661704766968  0.486530274403947 2.99486088959774  L 0.0930679862048578 2.85876306928939  L 0.419353786174838 2.60471380471381  C 2.61698461538464 0.898954456849197  5.28964918278604 0.000708842814114874  8.14464993252363 0.000708842814114874  C 11.4075079322237 0.000708842814114874  14.4736347878243 1.20290625553784  16.7768286699655 3.38047138047138  C 18.0435853051432 4.57813219918482  18.9936527815264 5.97993974836079  19.6030394961763 7.55413786992736  Z " fill-rule="nonzero" fill="#000000" stroke="none" transform="matrix(1 0 0 1 326 21 )" />
  </g>
</svg>