<?xml version="1.0" encoding="utf-8"?>
<svg version="1.1" xmlns:xlink="http://www.w3.org/1999/xlink" width="19px" height="8px" xmlns="http://www.w3.org/2000/svg">
  <g transform="matrix(1 0 0 1 -327 -21 )">
    <path d="M 18.7649882074074 7.99940592221293  C 18.1818770962963 6.402524830595  17.2574326518518 4.94346978557503  16.0248400592592 3.71254061078623  C 13.7919511703703 1.47405550914323  10.8195067259259 0.238373712057917  7.66217339259254 0.238373712057917  C 4.90306228148148 0.238373712057917  2.28617339259256 1.17939292676134  0.176543762962979 2.91410006497726  C 0.290321540740763 2.9568736656456  0.394617837037003 3.01390513320337  0.489432651851871 3.08994708994709  C 2.45684005925926 1.51207648751508  4.95046968888892 0.566304650515174  7.66217339259265 0.566304650515174  C 12.5640993185185 0.566304650515174  16.7596548740741 3.66026176552492  18.4141733925926 7.99940592221293  C 18.4758030222222 7.98990067761997  18.5326919111112 7.98514805532348  18.5943215407407 7.98514805532348  C 18.6512104296297 7.98514805532348  18.7080993185185 7.98990067761997  18.7649882074074 7.99940592221293  Z " fill-rule="nonzero" fill="#000000" stroke="none" transform="matrix(1 0 0 1 327 21 )" />
  </g>
</svg>