<?xml version="1.0" encoding="utf-8"?>
<svg version="1.1" xmlns:xlink="http://www.w3.org/1999/xlink" width="34px" height="17px" xmlns="http://www.w3.org/2000/svg">
  <g transform="matrix(1 0 0 1 -320 -15 )">
    <path d="M 33.6365700683381 16.7876129718235  C 33.1685187138984 12.6181995392522  31.3011888310816 8.75245436824384  28.2539794922812 5.73987240829346  C 24.7045900544465 2.23081694134326  19.9850722305124 0.302764486975013  14.9681467751114 0.302764486975013  C 9.9512213197105 0.302764486975013  5.23170349577651 2.23563707247918  1.6871895928839 5.74469253942938  C 1.08262326006587 6.34238880028354  0.526812276668636 6.97382597908913  0.0148811077501705 7.63900407584619  C 0.136769481302224 7.65346446925394  0.248906784970131 7.69202551834131  0.356168553695852 7.74022682970052  C 0.838846512961823 7.12807017543859  1.36052875176449 6.53519404572037  1.92121527010374 5.9808789650895  C 5.40722275369137 2.52966507177034  10.038980948668 0.630533404217613  14.9681467751114 0.630533404217613  C 19.897312601555 0.630533404217613  24.5290707965316 2.52966507177034  28.0150782801192 5.97123870281765  C 30.9891545947884 8.91151869572923  32.8223557330107 12.6808612440191  33.2952826223925 16.7538720538721  L 33.3537890416974 16.7538720538721  C 33.4512997405391 16.7538720538721  33.5439349044386 16.7683324472798  33.6365700683381 16.7876129718235  Z " fill-rule="nonzero" fill="#000000" stroke="none" transform="matrix(1 0 0 1 320 15 )" />
  </g>
</svg>