<?xml version="1.0" encoding="utf-8"?>
<svg version="1.1" xmlns:xlink="http://www.w3.org/1999/xlink" width="186px" height="48px" xmlns="http://www.w3.org/2000/svg">
  <g transform="matrix(1 0 0 1 -61 -67 )">
    <path d="M 53.6842500939916 47  L 5.99065167825688 47  C 3.51135715668443 47.25  1.36853063798185 46.0146346365225  0.13041621247919 44.1129077106971  C 2.07697736164675 38.924999622304  4.36883035923972 33.8561245577912  6.99127020676337 28.974513657081  C 9.37113363408696 24.4030716606896  12.3694314825854 20.1756446543029  15.9029790994825 16.4095181997403  C 19.6585270473447 12.6190195701302  23.4370069460391 10.6975202648154  27.1325790224934 10.6975202648154  C 36.5364428600005 10.6957702654481  45.4710837035522 22.9947658189566  53.6842500939916 47  Z M 53.6842500939916 47  C 55.2265599508646 44.3485040960416  57.0743671224128 41.5995213026525  59.1967382748602 39.0842600020751  C 60.9840344534919 36.9219008510665  63.0800149859002 35.0300288754099  65.4183529353155 33.4685120323528  C 67.7524957021587 31.8699733538597  70.5067083768151 30.9831124888527  73.3422239460231 30.9170129548037  C 80.0171856344732 30.9170129548037  86.4575358259453 36.4102609688138  92.4833469062163 47  L 53.6842500939916 47  Z M 147.176049641521 47  L 92.4921668873058 47  C 94.660818516175 40.9663910674067  97.3329861015239 34.8350830623103  100.483069754293 28.974513657081  C 102.862685320272 24.4028218829079  105.860351388304 20.1748601077492  109.393014650794 16.407768200373  C 113.148562598656 12.6172695707629  116.927042497351 10.6957702654481  120.622614573805 10.6957702654481  C 130.030006403748 10.6957702654481  138.962883251081 22.9947658189566  147.176049641521 47  Z M 85.4361820157941 5.25152223372294  C 85.4361820157941 2.3520283453737  87.8054860397483 0.0015241317699406  90.7281706694278 0.0015241317699406  C 93.6508552991073 0.0015241317699406  96.0201593230615 2.3520283453737  96.0201593230615 5.25152223372294  C 96.0201593230615 8.15101612207218  93.6508552991073 10.5015203356759  90.7281706694278 10.5015203356759  C 87.8054860397483 10.5015203356759  85.4361820157941 8.15101612207218  85.4361820157941 5.25152223372294  Z M 185.127345622112 45.7487824029412  C 183.937535891967 46.6920197961686  182.423260505775 47.25  180.757011434782 47  L 147.176049641521 47  C 148.71860551795 44.3512383146949  150.576365341172 41.5994110816102  152.697357803479 39.0860100014424  C 154.484507249114 36.9240118406054  156.58052235945 35.0326982158559  158.918972463934 33.4720120310874  C 161.253207224119 31.8736580158524  164.007362764851 30.9868155480601  166.842843474642 30.9205129535383  C 173.203553476726 30.9205129535383  179.349734200218 35.9076541488462  185.127345622112 45.7487824029412  Z " fill-rule="nonzero" fill="#e5e9f2" stroke="none" transform="matrix(1 0 0 1 61 67 )" />
  </g>
</svg>