<?xml version="1.0" encoding="utf-8"?>
<svg version="1.1" xmlns:xlink="http://www.w3.org/1999/xlink" width="18px" height="18px" xmlns="http://www.w3.org/2000/svg">
  <g>
    <path d="M 17.8201527077637 9  C 17.8201527077637 4.13684317529297  13.8638031635742 0.179847292236332  9 0.179847292236332  C 4.136843175293 0.179847292236332  0.179847292236332 4.1368091418457  0.179847292236332 9  C 0.179847292236332 13.8638031635742  4.1361968166504 17.8201527077637  9 17.8201527077637  C 13.8638031833496 17.8201527077637  17.8201527077637 13.8638031635742  17.8201527077637 9  Z M 16.5545277077637 9  C 16.5545277077637 13.1651836018066  13.1651836018066 16.5545277077637  9 16.5545277077637  C 4.83420407299803 16.5545277077637  1.44547229223633 13.165183621582  1.44547229223633 9  C 1.44547229223633 4.83420407299805  4.83417003955077 1.44547229223632  9 1.44547229223632  C 13.1651836018066 1.44547229223632  16.5545277077637 4.83417003955078  16.5545277077637 9  Z M 12.1640795068359 9  C 12.1640795068359 7.25530506811523  10.7446609182129 5.83595450683594  9 5.83595450683594  C 7.2553390817871 5.83595450683594  5.83592049316405 7.25533908178711  5.83592049316405 9  C 5.83592049316405 10.7446609182129  7.25530506811526 12.1640795068359  9 12.1640795068359  C 10.7446949318847 12.1640795068359  12.1640795068359 10.7446949318848  12.1640795068359 9  Z " fill-rule="nonzero" fill="#5584ff" stroke="none" />
  </g>
</svg>