<?xml version="1.0" encoding="utf-8"?>
<svg version="1.1" xmlns:xlink="http://www.w3.org/1999/xlink" width="100px" height="60px" xmlns="http://www.w3.org/2000/svg">
  <defs>
    <filter x="690px" y="502px" width="100px" height="60px" filterUnits="userSpaceOnUse" id="filter112">
      <feOffset dx="0" dy="2" in="SourceAlpha" result="shadowOffsetInner" />
      <feGaussianBlur stdDeviation="5" in="shadowOffsetInner" result="shadowGaussian" />
      <feComposite in2="shadowGaussian" operator="atop" in="SourceAlpha" result="shadowComposite" />
      <feColorMatrix type="matrix" values="0 0 0 0 0.184313725490196  0 0 0 0 0.470588235294118  0 0 0 0 1  0 0 0 0.627450980392157 0  " in="shadowComposite" />
    </filter>
    <g id="widget113">
      <path d="M 700.5 513  A 2.5 2.5 0 0 1 703 510.5 L 777 510.5  A 2.5 2.5 0 0 1 779.5 513 L 779.5 547  A 2.5 2.5 0 0 1 777 549.5 L 703 549.5  A 2.5 2.5 0 0 1 700.5 547 L 700.5 513  Z " fill-rule="nonzero" fill="#ffffff" stroke="none" fill-opacity="0" />
      <path d="M 700.5 513  A 2.5 2.5 0 0 1 703 510.5 L 777 510.5  A 2.5 2.5 0 0 1 779.5 513 L 779.5 547  A 2.5 2.5 0 0 1 777 549.5 L 703 549.5  A 2.5 2.5 0 0 1 700.5 547 L 700.5 513  Z " stroke-width="1" stroke="#2f78ff" fill="none" />
    </g>
  </defs>
  <g transform="matrix(1 0 0 1 -690 -502 )">
    <use xlink:href="#widget113" filter="url(#filter112)" />
    <use xlink:href="#widget113" />
  </g>
</svg>