<?xml version="1.0" encoding="utf-8"?>
<svg version="1.1" xmlns:xlink="http://www.w3.org/1999/xlink" width="25px" height="16px" xmlns="http://www.w3.org/2000/svg">
  <g transform="matrix(1 0 0 1 -118 -40 )">
    <path d="M 24.0917647058823 11.1811764705882  C 24.1835294117647 8.51764705882354  22.155294117647 6.25882352941177  19.4988235294118 6.0635294117647  L 19.5129411764706 6.0635294117647  C 18.9176470588235 2.94588235294118  16.4094117647059 0.548235294117646  13.2682352941176 0.0894117647058863  C 10.1270588235294 -0.367058823529405  7.03999999999996 1.2164705882353  5.57882352941175 4.03529411764706  C 2.31294117647059 4.25411764705882  -0.169411764705899 7.0564705882353  0.00941176470587379 10.3223529411765  C 0.188235294117646 13.5882352941177  2.95999999999998 16.1058823529412  6.22823529411767 16  L 19.1529411764706 16  C 21.8164705882353 15.9576470588235  23.9976470588235 13.8447058823529  24.0917647058823 11.1811764705882  Z M 16.7105882352941 8.53647058823529  C 16.88 8.71058823529413  16.7576470588235 9.00705882352941  16.5105882352941 9.00705882352941  L 14.4847058823529 9.00705882352941  C 14.3317647058823 9.00705882352941  14.2094117647059 9.13176470588235  14.2094117647059 9.28235294117647  L 14.2094117647059 12.7082352941177  C 14.2094117647059 12.8611764705882  14.0847058823529 12.9835294117647  13.9341176470588 12.9835294117647  L 10.5082352941176 12.9835294117647  C 10.355294117647 12.9835294117647  10.2329411764706 12.8588235294118  10.2329411764706 12.7082352941177  L 10.2329411764706 9.28235294117647  C 10.2329411764706 9.12941176470588  10.1082352941177 9.00705882352941  9.95764705882351 9.00705882352941  L 7.90352941176468 9.00705882352941  C 7.65647058823527 9.00705882352941  7.53411764705879 8.71058823529413  7.70823529411763 8.53647058823529  L 12.0141176470588 4.23058823529412  C 12.1223529411765 4.12235294117647  12.2964705882353 4.12235294117647  12.4047058823529 4.23058823529412  L 16.7105882352941 8.53647058823529  Z " fill-rule="nonzero" fill="#dcdee3" stroke="none" transform="matrix(1 0 0 1 118 40 )" />
  </g>
</svg>