<?xml version="1.0" encoding="utf-8"?>
<svg version="1.1" xmlns:xlink="http://www.w3.org/1999/xlink" width="15px" height="16px" xmlns="http://www.w3.org/2000/svg">
  <g transform="matrix(1 0 0 1 -613 -377 )">
    <path d="M 14.3803485576923 5.65296296296296  C 14.5858774038462 5.43296296296296  14.5810096153846 5.0835185185185  14.3689903846154 4.87018518518519  L 10.197295673077 0.669074074074075  C 10.09453125 0.566296296296287  9.96039663461534 0.518518518518533  9.81274038461538 0.510740740740744  C 9.66887019230774 0.512407407407409  9.53149038461538 0.572407407407411  9.43143028846157 0.677962962962965  L 1.67001201923074 8.84462962962962  C 1.59537259615388 8.92296296296297  1.54507211538464 9.02296296296296  1.52506009615388 9.13018518518518  L 0.477944711538498 14.8707407407407  C 0.444411057692264 15.0546296296296  0.502824519230785 15.242962962963  0.633713942307622 15.3724074074074  C 0.735937499999977 15.4740740740741  0.871153846153902 15.5290740740741  1.00961538461536 15.5290740740741  C 1.04855769230767 15.5290740740741  1.08858173076919 15.5246296296296  1.12752403846162 15.5157407407407  L 6.07049278846159 14.3835185185185  C 6.17379807692305 14.3601851851852  6.26844951923079 14.3051851851852  6.34200721153843 14.2268518518518  L 14.3803485576923 5.65296296296296  Z M 6.06346153846152 12.5646296296296  C 6.28088942307693 12.7751851851852  6.29116586538464 13.1262962962963  6.08617788461538 13.3501851851852  C 5.97962740384617 13.4662962962963  5.83629807692307 13.5246296296296  5.69242788461543 13.5246296296296  C 5.55937499999993 13.5246296296296  5.42632211538466 13.4746296296296  5.32139423076922 13.3740740740741  L 2.243329326923 10.3985185185185  C 2.02590144230771 10.187962962963  2.015625 9.8362962962963  2.22061298076926 9.61296296296297  C 2.42560096153841 9.38962962962964  2.76742788461536 9.37907407407408  2.98539663461543 9.58907407407409  L 6.06346153846152 12.5646296296296  Z " fill-rule="nonzero" fill="#272636" stroke="none" transform="matrix(1 0 0 1 613 377 )" />
  </g>
</svg>