<?xml version="1.0" encoding="utf-8"?>
<svg version="1.1" xmlns:xlink="http://www.w3.org/1999/xlink" width="8px" height="7px" xmlns="http://www.w3.org/2000/svg">
  <defs>
    <mask fill="white" id="clip85">
      <path d="M 7.33168618269234 0.878054031250031  C 7.45168660576918 0.681494421874959  7.45077688461538 0.365004703125123  7.3301479326923 0.170487843749925  C 7.20922125961543 -0.0235183437500837  7.01475607692305 -0.0225238437499229  6.89506993269229 0.173498187499945  L 3.74277237500006 5.34299153124994  L 0.546460874999994 0.195511359374905  C 0.425534201923128 0.0010213749999366  0.231069019230745 0.00249967187505717  0.111068605769233 0.198521703124925  C -0.00861753846152169 0.395027546875099  -0.0077078173077183 0.711517265624934  0.112921125000057 0.906034140625025  L 3.51014854807691 6.37653542187491  C 3.51537530769234 6.38502890625  3.52214031730763 6.38704476562498  3.52738361538458 6.39502756249999  C 3.52860760576924 6.39701654687497  3.52892186538462 6.3995162031249  3.53014585576921 6.40153206249988  C 3.59013778846156 6.49802446874992  3.66860532692307 6.54653945312498  3.74675859615387 6.54653945312498  C 3.82583812500002 6.54653945312498  3.905215375 6.49702998437488  3.96522385576928 6.39854859375009  L 7.33168618269234 0.878054031250031  Z " fill-rule="evenodd" />
    </mask>
  </defs>
  <g transform="matrix(1 0 0 1 -117 -40 )">
    <path d="M 7.33168618269234 0.878054031250031  C 7.45168660576918 0.681494421874959  7.45077688461538 0.365004703125123  7.3301479326923 0.170487843749925  C 7.20922125961543 -0.0235183437500837  7.01475607692305 -0.0225238437499229  6.89506993269229 0.173498187499945  L 3.74277237500006 5.34299153124994  L 0.546460874999994 0.195511359374905  C 0.425534201923128 0.0010213749999366  0.231069019230745 0.00249967187505717  0.111068605769233 0.198521703124925  C -0.00861753846152169 0.395027546875099  -0.0077078173077183 0.711517265624934  0.112921125000057 0.906034140625025  L 3.51014854807691 6.37653542187491  C 3.51537530769234 6.38502890625  3.52214031730763 6.38704476562498  3.52738361538458 6.39502756249999  C 3.52860760576924 6.39701654687497  3.52892186538462 6.3995162031249  3.53014585576921 6.40153206249988  C 3.59013778846156 6.49802446874992  3.66860532692307 6.54653945312498  3.74675859615387 6.54653945312498  C 3.82583812500002 6.54653945312498  3.905215375 6.49702998437488  3.96522385576928 6.39854859375009  L 7.33168618269234 0.878054031250031  Z " fill-rule="nonzero" fill="#333333" stroke="none" transform="matrix(1 0 0 1 117 40 )" />
    <path d="M 7.33168618269234 0.878054031250031  C 7.45168660576918 0.681494421874959  7.45077688461538 0.365004703125123  7.3301479326923 0.170487843749925  C 7.20922125961543 -0.0235183437500837  7.01475607692305 -0.0225238437499229  6.89506993269229 0.173498187499945  L 3.74277237500006 5.34299153124994  L 0.546460874999994 0.195511359374905  C 0.425534201923128 0.0010213749999366  0.231069019230745 0.00249967187505717  0.111068605769233 0.198521703124925  C -0.00861753846152169 0.395027546875099  -0.0077078173077183 0.711517265624934  0.112921125000057 0.906034140625025  L 3.51014854807691 6.37653542187491  C 3.51537530769234 6.38502890625  3.52214031730763 6.38704476562498  3.52738361538458 6.39502756249999  C 3.52860760576924 6.39701654687497  3.52892186538462 6.3995162031249  3.53014585576921 6.40153206249988  C 3.59013778846156 6.49802446874992  3.66860532692307 6.54653945312498  3.74675859615387 6.54653945312498  C 3.82583812500002 6.54653945312498  3.905215375 6.49702998437488  3.96522385576928 6.39854859375009  L 7.33168618269234 0.878054031250031  Z " stroke-width="2" stroke="#797979" fill="none" transform="matrix(1 0 0 1 117 40 )" mask="url(#clip85)" />
  </g>
</svg>