<?xml version="1.0" encoding="utf-8"?>
<svg version="1.1" xmlns:xlink="http://www.w3.org/1999/xlink" width="49px" height="31px" xmlns="http://www.w3.org/2000/svg">
  <defs>
    <filter x="77px" y="39px" width="49px" height="31px" filterUnits="userSpaceOnUse" id="filter135">
      <feOffset dx="0" dy="0" in="SourceAlpha" result="shadowOffsetInner" />
      <feGaussianBlur stdDeviation="2.5" in="shadowOffsetInner" result="shadowGaussian" />
      <feComposite in2="shadowGaussian" operator="atop" in="SourceAlpha" result="shadowComposite" />
      <feColorMatrix type="matrix" values="0 0 0 0 0  0 0 0 0 0  0 0 0 0 0  0 0 0 0.349019607843137 0  " in="shadowComposite" />
    </filter>
    <g id="widget136">
      <path d="M 22.8845042046871 20.671875  L 2.57949820562862 20.671875  C 1.51079322240777 20.671875  0.587377319730095 20.1295117953418  0.0550514863497114 19.2950327160997  C 0.884270354844404 17.0266049630641  1.86088400057598 14.8101707731354  2.97860340036847 12.6760235440688  C 3.99306834827257 10.6759187200635  5.27101727204753 8.82619499416029  6.77704333095453 7.17810079433263  C 8.37884041116604 5.51976620640218  9.98890968287154 4.67911460088618  11.5643861537838 4.67911460088618  C 15.574894993581 4.67911460088618  19.3831111504783 10.0598973728046  22.8845042046871 20.671875  Z M 38.779669559562 19.5288252713951  C 38.2325698330169 20.2293884601462  37.3858027974938 20.671875  36.4205017834426 20.6721137834239  L 22.8845042046871 20.671875  C 23.5421231857435 19.4036762496461  24.334113060453 18.1993910894345  25.2383186934486 17.0997803534235  C 26.0002066619018 16.1539110418899  26.8937685843036 15.3264656034335  27.8906840934045 14.6436689230999  C 28.8858025395274 13.9443926520267  30.0599393610771 13.556401075695  31.268746292611 13.5273938403655  C 33.8764325670507 13.5273938403655  36.3995411516487 15.5451397739165  38.779669559562 19.5288252713951  Z M 23.6365216132371 2.29726838525755  C 23.6365216132371 1.02874635889893  24.6465905998387 0.000406075104564252  25.8925738388872 0.000406075104564252  C 27.1385570779354 0.000406075104564252  28.1486260645371 1.02874635889893  28.1486260645371 2.29726838525755  C 28.1486260645371 3.56579041161615  27.1385570779354 4.59413069541051  25.8925738388872 4.59413069541051  C 24.6465905998387 4.59413069541051  23.6365216132371 3.56579041161615  23.6365216132371 2.29726838525755  Z " fill-rule="nonzero" fill="#d1dbe3" stroke="none" transform="matrix(1 0 0 1 82 44 )" />
    </g>
  </defs>
  <g transform="matrix(1 0 0 1 -77 -39 )">
    <use xlink:href="#widget136" filter="url(#filter135)" />
    <use xlink:href="#widget136" />
  </g>
</svg>