<?xml version="1.0" encoding="utf-8"?>
<svg version="1.1" xmlns:xlink="http://www.w3.org/1999/xlink" width="84px" height="91px" xmlns="http://www.w3.org/2000/svg">
  <g transform="matrix(1 0 0 1 -200 -248 )">
    <path d="M 40.7272727272727 91  C 25.4152330027459 91  11.424906418937 86.0565953150681  0.176059338235063 77.6180055038352  C 0.059582395189409 76.9115995775324  0.00154253981386887 76.1757963613535  0.00154253981386887 75.4101660645603  C 0.00154253981386887 61.6460530260346  18.797726220565 50.4477375893003  41.906289294631 50.4477375893003  C 65.0148523686965 50.4477375893003  83.8110360494484 61.6460530260346  83.809542379798 75.6221138660745  C 72.1608948694078 85.2719102222749  57.2098406008839 91  40.7272727272727 91  Z M 20.0784313725488 23.0409207161128  C 20.0784313725488 10.1380051150894  30.0172549019608 0  42.6666666666667 0  C 55.3160784313726 0  65.2549019607845 10.1380051150894  65.2549019607845 23.0409207161128  C 65.2549019607845 35.9438363171353  55.3160784313726 46.0818414322251  42.6666666666667 46.0818414322251  C 30.0172549019608 46.0818414322251  20.0784313725488 35.9438363171353  20.0784313725488 23.0409207161128  Z M 60 75.4101660645603  L 30.6666666666667 66.6426630434783  L 60 75.4101660645603  Z " fill-rule="nonzero" fill="#748aa1" stroke="none" transform="matrix(1 0 0 1 200 248 )" />
  </g>
</svg>