<?xml version="1.0" encoding="utf-8"?>
<svg version="1.1" xmlns:xlink="http://www.w3.org/1999/xlink" width="8px" height="14px" xmlns="http://www.w3.org/2000/svg">
  <g transform="matrix(1 0 0 1 -1063 -186 )">
    <path d="M 7.29617882291666 13.5953080908203  C 7.15017694791663 13.7560853759766  6.9581597447916 13.8359301513672  6.76616941666668 13.8359301513672  C 6.57417908854165 13.8359301513672  6.38216188541662 13.7560853759766  6.23567619791663 13.5958666552734  L 0.736173447916599 7.58078550537107  C 0.443175197916617 7.26087723388673  0.443175197916617 6.74132759521484  0.736173447916599 6.42086075927736  L 6.23567621354164 0.405221079101551  C 6.52867446354162 0.0847542431640704  7.00318058854168 0.0847542431640704  7.29617883854166 0.405221079101551  C 7.58917708854165 0.725129350585945  7.58917708854165 1.24467898925781  7.29617883854166 1.56514582519532  L 2.32716929166668 7.00052916992186  L 7.29617882291666 12.4353833447266  C 7.58917707291664 12.7558501806641  7.58917707291664 13.2748412548828  7.29617882291666 13.5953080908203  Z " fill-rule="nonzero" fill="#e6e7eb" stroke="none" transform="matrix(1 0 0 1 1063 186 )" />
  </g>
</svg>