<?xml version="1.0" encoding="utf-8"?>
<svg version="1.1" xmlns:xlink="http://www.w3.org/1999/xlink" width="13px" height="7px" xmlns="http://www.w3.org/2000/svg">
  <defs>
    <mask fill="white" id="clip54">
      <path d="M 11.913990046875 0.878054031250031  C 12.108990734375 0.681494421874959  12.1075124375 0.36500470312501  11.911490390625 0.170487843750038  C 11.714984546875 -0.02351834374997  11.3989786249999 -0.0225238437500366  11.204488640625 0.173498187500002  L 6.08200510937507 5.34299153124999  L 0.88799892187501 0.195511359375018  C 0.691493078125063 0.00102137499999344  0.37548715624996 0.00249967187500033  0.180486484375024 0.198521703125039  C -0.0140034999999443 0.395027546874985  -0.0125252031249943 0.711517265624991  0.183496828125044 0.906034140625025  L 5.70399139062494 6.37653542187502  C 5.71248487500003 6.38502890625  5.72347801562495 6.38704476562498  5.73199837499999 6.39502756249999  C 5.73398735937496 6.39701654687497  5.73449803124998 6.39951620312502  5.73648701562496 6.4015320625  C 5.83397390625004 6.49802446875003  5.96148365625004 6.54653945312498  6.08848271875002 6.54653945312498  C 6.216986953125 6.54653945312498  6.34597498437495 6.49702998437499  6.44348876562503 6.39854859374998  L 11.913990046875 0.878054031250031  Z " fill-rule="evenodd" />
    </mask>
  </defs>
  <g transform="matrix(1 0 0 1 -287 -17 )">
    <path d="M 11.913990046875 0.878054031250031  C 12.108990734375 0.681494421874959  12.1075124375 0.36500470312501  11.911490390625 0.170487843750038  C 11.714984546875 -0.02351834374997  11.3989786249999 -0.0225238437500366  11.204488640625 0.173498187500002  L 6.08200510937507 5.34299153124999  L 0.88799892187501 0.195511359375018  C 0.691493078125063 0.00102137499999344  0.37548715624996 0.00249967187500033  0.180486484375024 0.198521703125039  C -0.0140034999999443 0.395027546874985  -0.0125252031249943 0.711517265624991  0.183496828125044 0.906034140625025  L 5.70399139062494 6.37653542187502  C 5.71248487500003 6.38502890625  5.72347801562495 6.38704476562498  5.73199837499999 6.39502756249999  C 5.73398735937496 6.39701654687497  5.73449803124998 6.39951620312502  5.73648701562496 6.4015320625  C 5.83397390625004 6.49802446875003  5.96148365625004 6.54653945312498  6.08848271875002 6.54653945312498  C 6.216986953125 6.54653945312498  6.34597498437495 6.49702998437499  6.44348876562503 6.39854859374998  L 11.913990046875 0.878054031250031  Z " fill-rule="nonzero" fill="#666666" stroke="none" transform="matrix(1 0 0 1 287 17 )" />
    <path d="M 11.913990046875 0.878054031250031  C 12.108990734375 0.681494421874959  12.1075124375 0.36500470312501  11.911490390625 0.170487843750038  C 11.714984546875 -0.02351834374997  11.3989786249999 -0.0225238437500366  11.204488640625 0.173498187500002  L 6.08200510937507 5.34299153124999  L 0.88799892187501 0.195511359375018  C 0.691493078125063 0.00102137499999344  0.37548715624996 0.00249967187500033  0.180486484375024 0.198521703125039  C -0.0140034999999443 0.395027546874985  -0.0125252031249943 0.711517265624991  0.183496828125044 0.906034140625025  L 5.70399139062494 6.37653542187502  C 5.71248487500003 6.38502890625  5.72347801562495 6.38704476562498  5.73199837499999 6.39502756249999  C 5.73398735937496 6.39701654687497  5.73449803124998 6.39951620312502  5.73648701562496 6.4015320625  C 5.83397390625004 6.49802446875003  5.96148365625004 6.54653945312498  6.08848271875002 6.54653945312498  C 6.216986953125 6.54653945312498  6.34597498437495 6.49702998437499  6.44348876562503 6.39854859374998  L 11.913990046875 0.878054031250031  Z " stroke-width="2" stroke="#797979" fill="none" transform="matrix(1 0 0 1 287 17 )" mask="url(#clip54)" />
  </g>
</svg>