<?xml version="1.0" encoding="utf-8"?>
<svg version="1.1" xmlns:xlink="http://www.w3.org/1999/xlink" width="50px" height="44px" xmlns="http://www.w3.org/2000/svg">
  <g transform="matrix(1 0 0 1 -310 -435 )">
    <path d="M 24.112996031746 0.0173515769944288  C 37.6562996031745 -0.145444109461948  46.2434027777778 9.28588589981445  46.4884920634921 22.1736699907236  C 45.9689980158731 21.9125487012987  45.449503968254 21.6512279684601  44.9300595238095 21.3902562615956  C 44.5013888888889 6.74891581632647  29.2040674603175 -3.32272727272732  15.0958829365079 4.26953501855292  C 14.6134424603174 3.93377203153983  14.1311011904762 3.59825834879405  13.6490079365079 3.26239564007426  C 13.6490079365079 3.22500000000002  13.6490079365079 3.18790352504635  13.6490079365079 3.1504081632653  C 15.4802083333333 2.57705820964748  17.1336805555555 1.40218692022262  19.1037202380953 0.800516001855272  C 20.7732142857143 0.539344851576971  22.4434027777778 0.278073979591852  24.112996031746 0.0171022727272998  Z M 24.8922619047619 3.26239564007426  C 25.4277777777778 3.49664192949905  25.6 4.04929962894249  25.7829365079365 4.60519828385895  C 26.3024305555555 4.67969039888686  26.8219246031746 4.75433209647497  27.3413690476191 4.82882421150276  C 27.3413690476191 4.86621985157706  27.3413690476191 4.90331632653061  27.3413690476191 4.94081168831173  C 26.9705357142857 5.31357142857138  26.599255952381 5.68673005565859  26.2280257936508 6.05993854359929  C 26.3021329365079 6.54488520408165  26.3763888888889 7.02973214285714  26.450496031746 7.5143297773655  C 25.0123511904762 7.16091604823748  24.9938988095238 7.16490491651206  23.5561507936508 7.5143297773655  C 23.6675595238095 6.99213705936921  23.778621031746 6.46994434137292  23.8901785714286 5.94765190166976  C 23.4820436507936 5.61188891465679  23.0738095238096 5.27637523191095  22.6656746031746 4.94076182745829  C 22.7397817460317 4.90336618738405  22.8140376984127 4.86626971243044  22.8881448412698 4.82877435064938  C 23.4076388888889 4.71678687384042  23.9271329365079 4.60514842300557  24.4465773809524 4.49301136363636  C 24.5951884920634 4.08275626159553  24.7435515873016 3.67240143784784  24.8919642857143 3.26214633580707  Z M 49.6056547619048 26.2018286178108  C 49.104365079365 24.3834032931355  42.1170138888889 21.2910830241187  40.2547619047619 20.1593912337663  C 32.9453869047619 15.9449025974026  25.6336309523809 11.7290178571429  18.324503968254 7.51462894248607  C 16.3462301587301 6.20857374768093  11.4736111111112 2.63429846938777  8.9736111111111 2.47893205009274  C 6.58621031746031 3.66342648423  5.94960317460317 6.17960459183672  4.63209325396826 8.40958140074207  C 3.77698412698408 9.85679267161413  -0.389632936507951 15.5654116419295  0.0679563492063835 17.4736862244898  C 0.486111111111086 19.2175197124304  5.46701388888886 21.2131505102041  7.08139880952382 22.1734206864564  C 14.0567956349206 26.2012302875696  21.0344246031746 30.2306354359926  28.009871031746 34.2584450371058  C 31.2750496031746 36.1977829313544  34.5410714285715 38.1379185992579  37.80625 40.0771069109463  C 38.7585317460318 40.6416314935065  40.3959821428571 41.7270025510205  41.7025793650794 40.860371057514  C 43.1307043650794 39.9132641465677  47.0718253968254 31.893594619666  48.2705853174602 29.8942741187385  C 48.7513392857143 29.0926113172542  49.9988095238095 27.6256052875696  49.6064484126984 26.2016291743971  Z M 46.3773313492064 29.8945234230056  C 44.5595238095239 33.1020721243043  42.740873015873 36.3103687384045  40.922619047619 39.5178675788497  C 39.0824404761905 39.7302249536178  33.4203869047619 35.6351530612245  31.6829861111111 34.5941581632654  C 24.225248015873 30.2678814935065  16.7651785714286 25.9401089981447  9.3074900793651 21.6138323283859  C 7.46894841269847 20.5811641929499  3.32281746031748 19.0053119202227  2.18278769841271 17.4735865027829  C 0.984523809523807 17.1538787105752  2.38244047619048 15.1073399814471  2.8506944444444 14.3404301948052  C 4.89117063492063 10.909056122449  6.9326388888889 7.47683441558439  8.97326388888882 4.04565978664192  C 10.4225694444444 4.29995013914663  11.3317956349206 5.32788149350648  12.4241567460318 5.94785134508351  C 15.2585813492064 7.5568610853432  18.0252976190476 9.20092300556587  20.7731646825397 10.7595234230055  C 29.7893353174604 15.906310296846  38.8081845238096 21.0547924397032  47.8243055555556 26.2014795918368  C 48.3774801587301 27.4730310760668  46.9265873015873 28.9184972170686  46.3774801587301 29.8943738404453  Z M 33.9105654761905 5.72337778293132  L 33.9095238095238 5.72412569573288  C 34.0209325396825 5.72412569573288  34.1319940476191 5.72412569573288  34.2435515873016 5.72412569573288  C 34.157242063492 6.40652133580704  34.1030257936508 6.9994167439703  34.3549603174603 7.51467880333956  C 34.6889880952381 7.73830473098332  35.022867063492 7.96222982374769  35.3568948412698 8.18595547309832  C 35.3196924603175 8.26044758812611  35.2827876984127 8.33508928571428  35.2454861111111 8.40958140074207  C 34.7630456349206 8.52156887755103  34.2807043650794 8.63320732838594  33.7986111111111 8.74534438775515  C 33.6129464285714 9.23029104823752  33.4277777777777 9.71513798701301  33.2421626984127 10.1997356215213  C 33.1680555555555 10.1623399814471  33.0937996031745 10.1252435064935  33.0196924603175 10.0877481447125  C 32.7599206349206 9.67749304267159  32.4999503968254 9.267138218924  32.2403273809524 8.85688311688313  C 31.7578869047619 8.85688311688313  31.2755456349207 8.85688311688313  30.7934523809524 8.85688311688313  C 30.7934523809524 8.81948747680894  30.7934523809524 8.78239100185527  30.7934523809524 8.74489564007422  C 31.0902777777778 8.37213589981445  31.3872023809524 7.99892741187381  31.684126984127 7.6257687847866  C 31.5727182539683 7.06642973098332  31.4616567460318 6.5066419294991  31.3500992063492 5.94710343228201  C 31.3873015873016 5.94710343228201  31.4242063492064 5.94710343228201  31.4615079365079 5.94710343228201  C 31.906746031746 6.13373260667902  32.3521825396826 6.32031192022265  32.797371031746 6.5066419294991  C 33.1681051587302 6.24562036178111  33.5392857142857 5.98444921150275  33.9105654761905 5.72337778293132  Z M 10.3092757936508 9.19304499072359  C 9.97524801587304 9.19304499072359  9.64136904761909 9.19304499072359  9.30734126984123 9.19304499072359  C 9.27013888888888 8.11146335807052  9.23323412698414 7.02968228200371  9.19593253968253 5.94795106679032  C 9.52996031746028 5.94795106679032  9.86383928571428 5.94795106679032  10.197867063492 5.94795106679032  C 10.3542658730159 6.89904684601112  10.7454861111111 8.41337082560295  10.3092757936508 9.19304499072359  Z M 23.55625 8.40963126159556  C 29.840128968254 8.2941535250464  36.4114583333333 11.865487012987  37.1375 16.9140480055659  C 34.606001984127 15.5900927643785  33.5472718253968 13.1841570037105  31.2373015873015 11.7665630797774  C 28.9746527777778 10.3778385899815  24.7921130952381 10.4355275974026  22.8882936507936 8.63340677179963  C 22.8882936507936 8.59601113172545  22.8882936507936 8.55891465677178  22.8882936507936 8.52141929499072  C 23.1110615079365 8.48402365491648  23.3335813492063 8.44692717996293  23.5562003968254 8.40943181818182  Z M 6.63551587301583 9.0811572356215  C 7.47286706349212 9.24485041743969  8.4980158730159 9.85419990723562  8.97326388888882 10.4239598794063  C 8.15476190476187 12.0579997680891  6.35342261904765 13.9504185992579  6.30163690476195 15.7950208719852  C 7.74434523809521 18.6485076530612  11.946626984127 19.6578409090909  14.5396329365079 21.3899072356215  C 14.2428075396825 21.6882745825603  13.9460317460317 21.9867416512059  13.6489583333333 22.2852087198516  C 10.9750496031746 20.9174756493507  5.92807539682542 18.952060528757  5.18849206349211 15.6830832560296  C 4.44642857142856 15.9067091836735  3.70416666666665 16.1306342764378  2.96200396825395 16.3544596474954  C 2.96200396825395 16.2424721706865  2.96200396825395 16.1308337198516  2.96200396825395 16.0186966604824  C 3.03611111111115 15.6829336734694  3.11036706349211 15.3473202690167  3.18447420634919 15.0115572820037  C 5.7137896825397 14.7533777829314  6.85545634920629 12.6686955009276  7.52599206349208 10.6474860853432  C 7.08075396825399 10.4238601576995  6.63531746031742 10.1998852040817  6.19012896825399 9.97610969387756  C 6.33844246031754 9.67774234693883  6.48695436507938 9.37927527829316  6.63536706349208 9.08080820964756  Z M 16.9891369047618 12.4385876623377  L 16.9885416666667 12.4380890538034  C 17.3225694444445 11.7668123840446  17.6564484126984 11.0952864100186  17.9904761904762 10.4239598794063  C 17.6196428571428 10.2373307050093  17.2483630952381 10.0512001391466  16.877132936508 9.86462082560297  C 16.5803075396826 10.4613056586271  16.283382936508 11.0583395176253  15.9864583333333 11.6551739332097  C 15.2443948412698 11.2824141929499  14.5021329365079 10.9092057050093  13.7599702380953 10.5360470779221  C 14.093998015873 9.82747448979592  14.4277777777777 9.11860273654918  14.7616567460317 8.410030148423  C 14.4648313492063 8.26089633580705  14.1680555555555 8.11166280148427  13.8710813492063 7.96247912801482  C 13.5370535714285 8.55916396103896  13.2031746031746 9.15619782003716  12.8691468253969 9.75303223562156  C 12.3411210317461 9.78269944341372  11.8513392857143 9.37189587198515  11.3107142857143 9.08175556586269  C 11.1993055555556 9.3053814935065  11.0882440476191 9.52930658627088  10.9766865079364 9.75303223562156  C 10.9394841269841 9.86501971243041  10.9025793650794 9.97665816326531  10.8652777777778 10.0887952226345  C 11.2361111111111 10.2754243970315  11.6073908730159 10.4620037105751  11.978621031746 10.6483337198516  C 12.0917658730158 11.466400742115  11.3557043650793 12.2681632653062  10.9766865079364 12.9982258812616  C 10.4202380952381 12.6998585343229  9.86334325396831 12.4015410482375  9.30704365079362 12.1029243970316  C 9.19563492063492 12.0655287569573  9.08457341269843 12.0284322820037  8.97301587301592 11.9909369202226  C 8.78735119047622 12.2893042671614  8.60218253968253 12.5877713358071  8.41656746031748 12.8862384044527  C 9.01016865079362 13.2220013914657  9.60411706349208 13.5576147959184  10.197867063492 13.8933777829313  C 10.197867063492 13.9307734230056  10.197867063492 13.9678698979592  10.197867063492 14.0053652597403  C 9.5731150793651 14.8760354823748  8.55530753968253 15.5654615027829  7.08090277777779 15.5718935528757  C 7.04370039682544 15.60928919295  7.00679563492065 15.6463856679035  6.96949404761898 15.6838810296846  C 7.08090277777779 15.9822483766234  7.19196428571428 16.2807154452691  7.30352182539684 16.5791825139147  C 7.30352182539684 16.6536746289425  7.30352182539684 16.7283163265307  7.30352182539684 16.8028084415585  C 9.17202380952381 16.7590306122449  10.3907738095239 15.7928768552876  11.1998511904762 14.6767915120594  C 11.9419146825397 15.0870466141002  12.6841765873016 15.4974014378479  13.4263392857143 15.9076565398887  C 12.8327380952381 17.0638798701299  12.2387896825397 18.2203026437848  11.6454861111112 19.3764761131725  C 11.9423115079366 19.5256099257886  12.2390873015872 19.6748434601113  12.5360615079365 19.8240271335807  C 13.1296626984127 18.7796915584416  13.7236111111112 17.7352064007421  14.3173611111111 16.690870825603  C 15.0603174603174 16.4167857142857  15.7396825396826 17.4216314935065  16.766369047619 17.586172309833  C 16.8777777777777 17.3250510204082  16.9888392857143 17.0637302875696  17.1003968253968 16.8027585807051  C 16.4325892857142 16.3925034786642  15.7645337301587 15.9821486549165  15.0966765873016 15.5718935528757  C 15.4307043650794 14.9006168831169  15.7645833333333 14.2288914656772  16.098611111111 13.5577643784787  C 16.7921130952381 13.3072634508349  17.2080853174604 13.8308522727273  17.9911706349206 14.117103432282  C 18.1395337301587 13.930474257885  18.287996031746 13.7443436920223  18.4364087301587 13.5577643784787  C 18.4736111111111 13.4457769016698  18.5105158730158 13.3341384508349  18.5478174603174 13.2220013914657  C 18.0280257936508 12.9608801020408  17.5084325396826 12.6995593692022  16.9891369047618 12.4385876623377  Z M 14.0942956349206 14.8999686920223  C 13.3893849206349 14.5272089517625  12.6841765873016 14.1540004638219  11.9792658730158 13.7808418367347  C 12.3874007936508 12.997577690167  12.7956349206349 12.2143135435993  13.2037698412698 11.4309496753247  C 13.8715773809524 11.8037094155845  14.5396329365079 12.1769179035251  15.2074900793651 12.5500765306123  C 15.2446924603174 12.6245686456401  15.2815972222222 12.6992103432282  15.3188988095238 12.773702458256  C 14.9107638888889 13.4822750463822  14.5025297619048 14.1911467996289  14.0943948412698 14.8997193877551  Z M 38.362251984127 11.4310493970316  C 39.2049107142857 12.1961641929499  39.238244047619 12.6093610853433  41.0338789682539 12.5501762523191  C 40.7370535714286 12.9977272727273  40.4402777777778 13.4454777365492  40.1432043650793 13.8929788961039  C 40.328869047619 14.3779255565863  40.5140376984127 14.8627724953618  40.6996527777778 15.3473701298701  C 40.1432043650793 15.2353826530613  39.5863095238095 15.1237442022264  39.0300099206349 15.0116071428571  C 38.4832837301587 15.1923527365491  38.4301587301587 15.8007050092764  37.8055059523809 15.7948712894248  C 38.1621031746031 14.4549107142857  37.3029265873016 14.1309647495362  36.581001984127 13.5568170222634  C 37.0262400793651 13.3701878478664  37.4716765873015 13.1840572820037  37.916865079365 12.9974779684601  C 38.0652281746032 12.4755844155844  38.2137400793651 11.9530925324676  38.3621527777777 11.4309496753247  Z M 25.3375496031746 14.5641059833024  C 25.710119047619 14.8252272727273  25.8590773809523 15.1992833951763  26.0053571428572 15.68323283859  C 24.3409722222222 16.1906667439703  22.3971726190476 17.4305565862709  20.5506448412698 17.3615491651206  C 20.5878472222223 16.9512940630798  20.624751984127 16.5409392393321  20.6620535714285 16.1306841372913  C 22.366121031746 16.0649675324676  24.3008432539683 15.4080009276438  25.3377976190476 14.5641558441558  Z M 26.6734623015873 16.4664969851577  C 28.6400297619048 17.6227203153989  30.6070932539683 18.7791430890538  32.5736607142857 19.9353165584416  C 32.4252976190476 20.2336839053804  32.2768353174603 20.532150974026  32.1284226190476 20.8306180426716  C 30.1622023809524 19.7116407699443  28.1947916666666 18.5925139146568  26.2284226190476 17.4736363636363  C 26.2284226190476 17.3616488868275  26.2284226190476 17.2500104359926  26.2284226190476 17.1378733766234  C 26.3767361111111 16.9142474489796  26.5251984126984 16.6902724953618  26.6735119047619 16.4664969851577  Z M 23.8904761904762 17.585474257885  C 24.3814484126984 17.7846185064935  24.4587797619048 18.0185656307978  24.5583829365079 18.5926136363636  C 20.7756944444444 20.4325289888683  21.3398313492063 23.1341894712431  18.7697420634921 25.6420408163266  C 18.4729166666667 25.4929070037106  18.1761408730159 25.3436734693878  17.8791666666666 25.1944897959184  C 18.7325892857143 23.590715445269  19.5859623015873 21.9864923469388  20.4394345238096 20.3829174397032  C 19.7345238095238 20.5320512523192  19.0292162698413 20.6812847866419  18.3244047619047 20.8304684601113  C 18.3616071428571 20.4577087198516  18.3985119047619 20.084500231911  18.4358134920635 19.7113416048237  C 20.3605158730159 19.5437094155844  22.6519345238095 18.5922147495362  23.8905257936508 17.5853246753247  Z M 24.112996031746 19.4878652597403  C 26.5247023809524 20.8677643784787  28.9370535714286 22.2482618274583  31.3488095238095 23.6281110853432  C 31.3116071428572 23.7400985621521  31.2747023809524 23.851737012987  31.2374007936508 23.9638740723562  C 31.1259920634921 24.1505032467533  31.0149305555556 24.336633812616  30.903373015873 24.5232131261596  C 29.8806051587301 24.2654325139147  29.2142857142857 23.3266523654917  28.3431051587302 23.6279116419295  C 27.8404761904762 25.1770384972171  26.3643353174604 28.0325695732839  24.8922123015873 28.6636085343229  C 23.7660714285714 28.5512720315399  22.4679067460318 27.8080461502783  21.8863591269841 27.0970802411874  C 22.0720238095238 26.7243205009277  22.2571924603175 26.351112012987  22.4428075396825 25.9779533858999  C 23.1787202380953 26.4883290816327  23.7680555555555 27.0997228664194  24.8918154761904 27.2088184137292  C 25.7617063492063 25.89239216141  27.0598214285715 24.2754545454545  27.4520833333333 22.6209717068646  C 27.3779761904762 22.6209717068646  27.3037202380952 22.6209717068646  27.2296130952381 22.6209717068646  C 26.0422123015873 21.9123991187384  24.8546626984127 21.2035273654917  23.6674603174603 20.4949547773655  C 23.8160714285714 20.1591917903525  23.9643353174603 19.8235783858999  24.112748015873 19.4878153988868  Z M 3.40724206349199 21.2781690630798  C 4.01949404761905 21.3979846938775  4.51066468253964 21.6789506029685  4.96567460317465 22.1734705473098  C 4.84647817460313 33.5605426716141  13.4993551587302 40.0501820500928  23.3336805555555 41.7558719851577  C 26.8858134920635 42.3720025510204  34.7081845238095 39.2957873376624  34.9112103174603 39.4059798237477  C 35.3564484126984 39.6296057513915  35.801884920635 39.8535308441559  36.2470734126984 40.0772564935065  C 36.209871031746 40.1517486085344  36.1729662698413 40.2263903061224  36.1356646825396 40.3008824211503  C 33.7626488095239 41.1145118274583  31.6251488095239 42.5036850649351  28.7885416666667 43.0983256029685  C 14.9607142857143 45.9984322820037  3.34990079365082 34.5496324211503  3.40744047619052 21.277969619666  Z M 12.646875 26.5375916048238  C 15.1963293650794 27.5223933209647  16.077876984127 29.8844016697588  18.1015873015873 31.349163961039  C 19.4051091269841 32.2928803339518  21.3155257936508 32.9950208719852  23.111259920635 33.363293135436  C 23.7048611111111 33.4006887755102  24.2988095238096 33.4377852504638  24.8921130952381 33.4752806122449  C 25.5970238095238 33.8855357142857  26.3023313492063 34.2958905380334  27.0071428571429 34.7061456400742  C 26.9699404761905 34.780637755102  26.9330357142857 34.8552794526902  26.8957341269841 34.929771567718  C 20.0976686507937 35.2653849721707  13.7857142857143 31.9165306122449  12.6465277777778 26.5374918831169  Z M 11.5335813492063 27.7683569109462  C 12.4611111111111 28.8778107606679  11.1835813492063 29.0466396103896  13.0920138888889 30.1182490723562  C 13.0548115079366 30.1927411873841  13.0179067460317 30.2673828849722  12.9806051587302 30.3418750000001  C 11.5117063492063 30.5378780148423  11.6304563492063 31.0804638218925  11.199751984127 32.2442660018554  C 11.0883432539682 32.1697738868275  10.9772817460317 32.0951321892394  10.8657242063492 32.0206400742115  C 10.6800595238095 31.7222727272728  10.4948908730159 31.4239552411874  10.3092757936508 31.1254383116884  C 9.7528273809524 31.0880426716141  9.19593253968259 31.0509461966605  8.63963293650789 31.0134508348794  C 9.49305555555554 29.8196822820037  9.268501984127 29.7783476345084  8.97366071428576 28.3279452690167  C 9.53010912698414 28.4399327458256  10.087003968254 28.5515711966605  10.6436507936508 28.6637082560297  C 10.9404265873016 28.3652910482375  11.2371527777777 28.0666743970315  11.5339781746032 27.7683569109462  Z M 40.8111111111111 26.8734543135436  C 41.2563492063492 26.0530438311689  41.7017857142857 25.2321347402598  42.1469742063492 24.411724257885  C 41.8129464285715 24.2250950834879  41.4790674603175 24.0389645176253  41.1450396825396 23.8523852040817  C 40.6998015873016 24.5983035714286  40.2543650793651 25.3444213821892  39.8091765873016 26.0904394712431  C 38.2879464285714 25.3071753246754  36.7662698412698 24.5237615955473  35.2450396825396 23.7405473098331  C 34.3174107142857 25.493305890538  33.389632936508 27.2469619666048  32.4621527777778 28.9997205473098  C 32.7589781746032 29.1488543599258  33.055753968254 29.2980878942486  33.3527281746032 29.447271567718  C 33.464136904762 29.2981377551021  33.5751984126984 29.1489042207792  33.686755952381 28.9997205473098  C 34.762748015873 29.5590596011132  35.8389384920634 30.1188474025975  36.9150793650794 30.6780368738405  C 36.881498015873 31.9257548701299  35.3080853174604 33.6962639146568  34.6885912698413 34.9303200371057  C 35.0226190476191 35.1539459647495  35.356498015873 35.3778710575139  35.6905257936508 35.6015967068646  C 36.4325892857144 34.2963891465678  37.1748511904762 32.9905333951763  37.9170138888889 31.6852261131726  C 38.0284226190476 31.6107339981447  38.1394841269841 31.5360923005566  38.2510416666667 31.4616001855288  C 39.2899801587302 32.0582850185529  40.3290674603174 32.6553687384045  41.368005952381 33.2521532931355  C 41.4131944444445 33.5909577922078  41.3844742063492 33.5762987012987  41.2565972222222 33.9234299628943  C 41.5534226190476 34.1470558905381  41.8501984126984 34.3709809833024  42.1471726190476 34.5947066326531  C 43.0748015873016 32.9537859461967  44.0025793650794 31.3120674860854  44.9301587301587 29.6711966604823  C 45.0042658730159 29.5967045454545  45.0785218253968 29.5220628478664  45.1526289682539 29.4475707328386  C 43.7058035714285 28.5895153061225  42.2582837301587 27.7314598794063  40.8112599206349 26.8739529220779  Z M 37.694246031746 29.7825858070502  C 36.618253968254 29.2232467532468  35.5420634920636 28.6634589517626  34.4659226190476 28.1042694805195  C 34.3920634920635 27.2193390538033  35.3573908730158 26.1185111317254  35.8017857142858 25.3069260204082  C 36.8777777777777 25.8662650742115  37.9539682539683 26.4260528756957  39.0301091269841 26.9852423469388  C 39.0673115079366 27.0597344619666  39.1042162698413 27.1343761595547  39.1415178571428 27.2088682745826  C 38.6590773809523 28.066724257885  38.1767361111112 28.9245303803339  37.6946428571429 29.7824362244898  Z M 42.2584821428571 32.2445651669759  C 41.396626984127 32.565918367347  39.7322916666667 30.9699721706864  38.6963293650794 30.5662488404453  C 39.2158234126985 29.6338010204082  39.7353174603175 28.7012036178108  40.2547619047619 27.7688056586271  C 41.2937003968254 28.4029359925789  42.3327876984127 29.0370663265306  43.3717261904762 29.6711966604825  C 43.4458333333333 29.7085923005566  43.5200892857143 29.7456887755102  43.5941964285714 29.7831841372913  C 43.1491071428571 30.6035946196661  42.703621031746 31.4243541280148  42.2583333333333 32.24491419295  Z M 16.3204365079364 33.5872680890539  C 16.780753968254 33.8726217532467  16.8191468253968 34.5686792671614  17.2110119047619 34.8181331168831  C 17.7674603174603 34.892625231911  18.3243551587302 34.967266929499  18.8806547619047 35.0417590445269  C 18.6208829365079 35.3028803339518  18.3611607142857 35.5642010667904  18.1014384920635 35.8251727736549  C 18.0273313492063 35.9743065862709  17.9530753968255 36.1235401205938  17.8789682539683 36.2727237940631  C 18.0273313492063 36.7576704545455  18.1757936507936 37.242517393321  18.3242063492063 37.7271150278293  C 17.7677579365079 37.5779812152134  17.2108630952382 37.4287476808906  16.6545634920635 37.2795141465677  C 16.2464285714286 37.5406354359926  15.8381944444445 37.8019561688312  15.4300595238095 38.0629278756958  C 15.4557043650793 36.2075057977737  15.1989087301587 36.4453420686456  14.3167162698413 35.4893599257885  C 14.7978670634921 35.1416303339518  15.5339781746032 35.2164714749537  15.8751488095239 34.7060957792208  C 16.0237599206349 34.3333360389611  16.1720238095238 33.9601275510204  16.3204365079364 33.5869689239332  Z M 23.3337797619047 36.2729232374768  C 24.8977678571429 36.6783418367347  24.619990079365 36.658297773655  26.228125 36.2729232374768  C 25.9476190476191 38.0217926716141  26.5261904761904 37.8634346011132  27.0073412698413 39.0702666975882  C 26.4508928571428 39.182254174397  25.893998015873 39.2938926252319  25.3376984126984 39.4060296846012  C 25.1152281746032 39.816284786642  24.8924603174603 40.2266396103896  24.6698908730158 40.6368947124305  C 24.6698908730158 40.5624025974026  24.6698908730158 40.4877608998145  24.6698908730158 40.4132687847867  C 24.4474206349206 40.0030136827459  24.2246527777778 39.5926588589982  24.0019841269841 39.1824037569573  C 23.4824900793651 39.1079116419295  22.962996031746 39.0332699443414  22.4435515873016 38.9587778293136  C 22.4435515873016 38.9213821892394  22.4435515873016 38.8842857142857  22.4435515873016 38.8467903525046  C 22.814384920635 38.4740306122449  23.1856646825397 38.1008221243043  23.5568948412698 37.7276634972171  C 23.4825396825397 37.2427168367347  23.4082837301588 36.7578698979592  23.334126984127 36.2732722634508  Z " fill-rule="nonzero" fill="#000000" stroke="none" transform="matrix(1 0 0 1 310 435 )" />
  </g>
</svg>