<?xml version="1.0" encoding="utf-8"?>
<svg version="1.1" xmlns:xlink="http://www.w3.org/1999/xlink" width="19px" height="8px" xmlns="http://www.w3.org/2000/svg">
  <g transform="matrix(1 0 0 1 -323 -38 )">
    <path d="M 18.9952104296297 5.23545901791515  C 18.8577289481481 5.2212011510257  18.7297289481482 5.17842755035739  18.6112104296296 5.1213960827996  C 16.648543762963 6.68976144063862  14.1643956148149 7.62602803304557  11.4621733925926 7.62602803304557  C 6.55076598518525 7.62602803304557  2.35046968888889 4.52256567344288  0.705432651851879 0.169163649865403  C 0.662765985185217 0.173916272161897  0.615358577777783 0.178668894458358  0.572691911111122 0.178668894458358  C 0.496840059259227 0.178668894458358  0.42098820740739 0.169163649865403  0.349877096296268 0.154905782975955  C 0.932988207407391 1.76129211918687  1.86217339259258 3.23460503109625  3.09950672592595 4.47979207277453  C 5.33239561481486 6.71827717441752  8.30484005925928 7.95395897150285  11.4621733925926 7.95395897150285  C 14.2449882074074 7.95395897150285  16.8808400592593 6.9939292676135  18.9952104296297 5.23545901791515  Z " fill-rule="nonzero" fill="#000000" stroke="none" transform="matrix(1 0 0 1 323 38 )" />
  </g>
</svg>