<?xml version="1.0" encoding="utf-8"?>
<svg version="1.1" xmlns:xlink="http://www.w3.org/1999/xlink" width="20px" height="9px" xmlns="http://www.w3.org/2000/svg">
  <g transform="matrix(1 0 0 1 -323 -37 )">
    <path d="M 15.8273817205487 8.07810831426391  C 14.5280327191143 8.55652173913042  13.1627747103608 8.80061022120519  11.7645621979477 8.80061022120519  C 8.56326755673251 8.80061022120519  5.55499215123757 7.50694126620901  3.29525475743867 5.16369183829139  C 2.04769140461218 3.87002288329521  1.10613415719592 2.34202898550725  0.508245305086632 0.633409610983982  L 0.367011717974151 0.223340961098383  L 0.776589120600249 0.311212814645309  C 0.83308255544523 0.320976353928298  0.894283776527288 0.330739893211284  0.950777211372213 0.330739893211284  C 0.983731715031809 0.330739893211284  1.01668621869135 0.330739893211284  1.05434850858808 0.325858123569791  L 1.23795217183419 0.301449275362323  L 1.30386117915339 0.482074752097635  C 2.09947705322008 2.66422578184592  3.49768956563315 4.52906178489703  5.34314177056899 5.87643020594965  C 7.23096405163852 7.25797101449275  9.45303915554086 7.98535469107553  11.7645621979477 7.98535469107553  C 14.3161823384457 7.98535469107553  16.7171533193571 7.1115179252479  18.7179624701166 5.46636155606409  L 18.8356571260436 5.36872616323417  L 18.9721829269189 5.44195270785661  C 19.0663386516605 5.49077040427155  19.1652021626393 5.52494279176201  19.2687734598551 5.534706331045  L 19.8242922358307 5.59328756674293  L 19.3911759020192 5.96430205949657  C 18.3225084262018 6.88207475209765  17.1267307219831 7.59481311975591  15.8273817205487 8.07810831426391  Z " fill-rule="nonzero" fill="#000000" stroke="none" transform="matrix(1 0 0 1 323 37 )" />
  </g>
</svg>