<?xml version="1.0" encoding="utf-8"?>
<svg version="1.1" xmlns:xlink="http://www.w3.org/1999/xlink" width="24px" height="13px" xmlns="http://www.w3.org/2000/svg">
  <g transform="matrix(1 0 0 1 -323 -27 )">
    <path d="M 0.531019867949396 6.39379762537657  L 0.927020622524083 4.87517278043593  C 0.999459784946225 4.60486738732352  0.999459784946225 4.59012345679012  1.16848449726467 4.02493945300962  C 0.878727847575931 4.24118376749957  0.830435072627779 4.27067162856638  0.429605040558386 4.46234272550064  C 0.410287930579102 4.02985409652074  0.371653710620649 3.81852442554196  0.279897438219223 3.50398724082934  C 0.917362067534384 3.26316970878374  1.36165559705717 2.99777895918245  1.93151034144495 2.54071711264695  C 2.1971206036597 2.32938744166812  2.39512098094701 2.13280170122274  2.549657860781 1.93621596077736  L 3.11468332767407 2.60952212180281  C 3.03258561026223 2.67341248744755  3.03258561026223 2.67341248744755  2.97463428032449 2.73238820958117  C 2.97463428032449 2.73238820958117  2.95048789285039 2.75204678362574  2.90702439539706 2.79136393171479  C 2.88770728541789 2.80119321873707  2.85390234295414 2.83068107980388  2.82009740049045 2.87982751491522  C 2.61243846821355 3.07149861184948  2.45307231088475 3.20419398665012  2.18263277117524 3.40569437060666  L 1.34233848707788 6.61987122688876  C 1.22643582720241 7.05727449937974  1.16365521976985 7.32757989249219  1.1395088322958 7.5585681375155  L 0.241263218260713 7.3177506054699  C 0.328190213167318 7.10642093449112  0.419946485568801 6.8213716108453  0.531019867949396 6.39379762537657  Z M 2.9891221128089 0.117797861657502  L 3.5493183022071 0.820591883749765  C 3.44790347481609 0.884482249394543  3.44790347481609 0.884482249394543  3.26439093001318 1.01717762419518  C 2.55448713827582 1.52338590584207  1.96048600641393 1.8280938035324  1.19746016223354 2.06399669206688  C 1.15399666478027 1.71997164628745  1.07672822486325 1.46441018370845  0.955996287492951 1.19901943410716  C 1.85424190152804 0.948372615039284  2.55931641577064 0.579774351704168  2.9891221128089 0.117797861657502  Z M 5.26854109036032 1.71505700277629  L 5.33615097528769 1.49389804477522  C 5.39410230522543 1.27273908677419  5.42790724768912 1.08598263335105  5.44722435766835 0.869738318861138  L 6.37444563667231 1.12038513792898  C 6.29234791926052 1.31205623486324  6.23922586681755 1.48406875775297  6.17161598189023 1.72980093330969  L 6.11366465195249 1.94604524779964  L 7.11332509337859 2.21635064091205  C 7.47069162799471 2.31464351113476  7.69283839275607 2.35887530273493  7.92947299000184 2.38836316380174  L 7.70732622524054 3.23859649122805  C 7.49000873797399 3.1452182645165  7.2968376381815 3.08624254238288  6.92981254857574 2.98794967216021  L 5.91566427466518 2.71272963553664  L 5.70800534238822 3.50398724082934  L 7.00225171099788 3.85292693011992  C 7.35478896811924 3.94630515683147  7.60591139784947 4.00036623545397  7.85220455008493 4.03968338354303  L 7.63488706281834 4.88008742394709  C 7.44654524052066 4.80145312776891  7.2002520882852 4.71790418807964  6.81873916619509 4.6146966743458  L 6.64005589888694 4.56555023923447  L 6.46137263157897 5.24868568728217  L 6.62556806640259 5.29291747888238  C 6.98293460101871 5.39121034910509  7.19542281079038 5.44035678421643  7.44654524052066 5.47475928879436  L 7.21956919826448 6.33973654675408  C 7.01673954348234 6.25127296355368  6.76561711375211 6.16772402386438  6.42756768911528 6.07434579715283  L 6.25854297679683 6.03011400555261  L 5.77561522731565 7.87801996573928  C 5.68385895491411 8.22695965502983  5.5824441275231 8.36948431685276  5.36029736276174 8.44320396951974  C 5.16229698547448 8.52675290920904  4.92083311073384 8.5021796916534  4.41858825127332 8.36948431685276  C 4.21575859649124 8.31542323823026  4.05639243916238 8.26136215960776  3.6941966270515 8.1384960718294  C 3.74248940199959 7.76989780849429  3.75214795698923 7.54382420698209  3.70868445953596 7.21945773524719  C 4.11434376910012 7.39638490164805  4.35580764384076 7.4897631283596  4.61175935106581 7.5585681375155  C 4.88219889077533 7.63228779018252  4.96429660818717 7.612629216138  5.00293082814562 7.46027526729283  L 5.43273652518388 5.80895504755154  L 3.28370803999246 5.22902711323764  C 2.95048789285039 5.14056353003721  2.70419474061498 5.08650245141472  2.46273086587433 5.05701459034791  L 2.68970690813057 4.19203733238819  C 2.90702439539706 4.28541555909978  3.10985405017925 4.34930592474452  3.44307419732121 4.43776950794495  L 5.6403954574609 5.03244137279226  L 5.81907872476887 4.34930592474452  L 3.56380613469156 3.73006084234153  C 3.21126887757026 3.63668261562998  3.02292705527253 3.59245082402976  2.79595101301641 3.56296296296295  L 3.01326850028295 2.72255892255893  C 3.23058598754955 2.81593714927048  3.41409853235234 2.8749128714041  3.75697723448411 2.96829109811565  L 4.86288178079604 3.26808435229486  L 5.07054071307294 2.47682674700217  L 4.1578072665535 2.23109457144545  C 3.80527000943215 2.1377163447339  3.61209890963966 2.09348455313369  3.37546431239389 2.06399669206688  L 3.59761107715525 1.21376336464057  C 3.80527000943215 1.302226947841  4.02741677419351 1.38086124401914  4.38961258630445 1.47915411424181  L 5.26854109036032 1.71505700277629  Z M 4.18195365402755 6.89017662000117  L 3.3658057574043 7.2342016657806  C 3.12917116015842 6.43802941697678  3.02292705527253 6.1873825979089  2.67521907564611 5.59762537657276  L 3.43824491982645 5.30274676590467  C 3.7666357894737 5.85810148266288  3.90185555932845 6.14315080630869  4.18195365402755 6.89017662000117  Z M 12.8794824221845 4.00528087896509  L 14.9802181324279 4.56063559572331  C 15.385877441992 4.66875775296826  15.69495120166 4.73756276212416  15.9412443538955 4.7719652667021  L 15.7046097566497 5.6762596727509  C 15.4872922693831 5.58288144603935  15.1733892322204 5.47967393230552  14.772559200151 5.37155177506056  L 12.6766527674024 4.80636777128007  L 12.4110425051877 5.82369897808495  L 13.4541664440672 6.10874830173076  C 13.7825573137144 6.19721188493119  13.9708991360121 6.2414436765314  14.125436015846 6.24635832004252  L 14.5021196604415 6.91474983755685  C 14.3862170005659 7.00321342075728  14.2171922882475 7.13590879555792  13.9564113035276 7.37672632760352  C 13.4783128315412 7.7993856695611  12.763579762309 8.26627680311892  12.1309444104886 8.55624077027586  C 12.763579762309 9.19514442672337  13.6135326013959 9.74558449997047  14.6904614827391 10.2272195640617  C 14.4200219430296 10.4680370961073  14.2703143406904 10.6547935495304  14.0288504659498 11.0332210998878  C 13.2320196793058 10.605647114419  12.7925554272779 10.3353417213066  12.2613349028485 9.90285309232677  C 11.8508463157895 9.56374269005849  11.5417725561215 9.27377872290153  11.2278695189587 8.90026581605528  C 10.010891590266 9.27377872290153  9.05469464629317 9.39173016716876  7.72664333521976 9.29343729694605  C 7.69283839275607 8.9444976076555  7.64454561780792 8.71842400614331  7.51898440294286 8.33016716876367  C 8.68284027919259 8.46777718707543  9.66318361063946 8.41863075196409  10.653185497076 8.17781321991849  C 10.1364528051311 7.44553133675938  9.86601326542166 6.81645696733414  9.66318361063946 5.90724791777422  C 9.37342696095078 5.83844290861835  9.14162164119978 5.79421111701814  8.91947487643841 5.75489396892905  L 9.1464509186946 4.88991671096933  C 9.3541098509715 4.97838029416976  9.67767144312393 5.08650245141472  10.0785014751934 5.19462460865967  L 11.503138336163 5.58288144603932  L 11.7687485983776 4.56555023923443  L 9.78874482550464 4.02985409652074  C 9.38308551594037 3.92173193927579  9.08367031126204 3.85784157363105  8.83254788153181 3.82343906905311  L 9.06918247877758 2.91914466300431  C 9.31064635351822 3.01743753322702  9.60040300320696 3.11573040344969  10.0060623127712 3.22385256069465  L 11.9764075306546 3.75954870340834  L 12.0585052480664 3.44992616220684  C 12.145432242973 3.11081575993857  12.1744079079419 2.94371788056  12.1937250179212 2.73730285309233  L 13.1837269043577 3.00760824620474  C 13.1064584644407 3.17962076909443  13.0533364119977 3.34671864847304  12.9615801395963 3.69565833776359  L 12.8794824221845 4.00528087896509  Z M 13.1644097943784 6.85085947191211  L 10.6145512771175 6.1578947368421  C 10.629039109602 6.19721188493119  10.629039109602 6.19721188493119  10.6386976645916 6.23161438950912  C 10.80772237691 6.83120089786755  11.0636740841351 7.31283596195878  11.5321140011318 7.89276389627268  C 12.2420177928693 7.60279992911571  12.6718234899076 7.32757989249219  13.1644097943784 6.85085947191211  Z M 18.3655416562913 6.36430976430976  L 17.1871979475571 10.8710378640203  C 17.0954416751556 11.2298068403331  17.032661067723 11.5246854510012  16.9795390152801 11.8343079922027  L 16.0426591812866 11.5787465296237  C 16.1489032861724 11.3035264930002  16.2358302810791 11.0381357433989  16.3372451084701 10.640049618997  L 16.9505633503113 8.30067930769685  C 17.0519781777023 7.91242247031721  17.1002709526505 7.73058066040523  17.1968565025467 7.41604347569261  C 16.8153435804566 7.78955638253885  16.6463188681381 7.92225175733946  16.288952333522 8.1384960718294  C 16.2648059460479 7.76006852147204  16.211683893605 7.47993384133735  16.0909519562347 7.11625022151336  C 16.8588070779098 6.66410301848898  17.5011009847199 6.08908972768623  18.1095899490662 5.30274676590467  C 18.4090051537445 4.91940457203614  18.5683713110734 4.66875775296826  18.6891032484436 4.39845235985586  L 19.5197389775514 4.89483135448049  C 19.4328119826448 4.99803886821433  19.3458849877382 5.12090495599269  19.2106652178834 5.30274676590467  C 19.0464697830598 5.53864965443914  18.6987618034333 5.98096757044124  18.3655416562913 6.36430976430976  Z M 22.6249644067157 7.39638490164805  L 22.8519404489719 7.45536062378167  C 23.1948191511036 7.54873885049325  23.4073073608753 7.58805599858231  23.6197955706471 7.612629216138  L 23.3928195283909 8.48743576111995  C 23.185160596114 8.41371610845293  22.9436967213733 8.33016716876367  22.668427904169 8.25644751609664  L 22.4173054744388 8.18764250694074  L 21.4514499754764 11.8932837143363  C 21.3452058705905 12.3061137692716  21.1954982682513 12.5272727272727  20.9830100584795 12.6009923799397  C 20.7801804036974 12.6747120326068  20.5773507489153 12.6501388150511  19.993008172043 12.4928702226948  C 19.6791051348802 12.4093212830055  19.5100804225617 12.355260204383  19.1672017204301 12.2373087601158  C 19.2106652178834 11.8736251402918  19.2106652178834 11.6524661822908  19.1527138879457 11.2740386319334  C 19.5873488624787 11.4607950853565  19.8094956272402 11.5345147380235  20.0992522769288 11.6131490342017  C 20.5290579739672 11.7311004784689  20.5966678588945 11.7212711914466  20.6401313563479 11.5492586685569  L 21.5770111903414 7.96648354893967  L 19.4569583701189 7.38655561462577  C 19.1382260554612 7.29809203142534  18.7905180758348 7.22437237875835  18.52490781362 7.18505523066926  L 18.7567131333711 6.29550475515386  C 18.9885184531221 6.39379762537657  19.2686165478212 6.482261208577  19.6259830824373 6.58055407879967  L 21.7846701226184 7.16539665662473  L 21.9681826674212 6.46751727804359  C 22.0695974948123 6.08908972768619  22.1372073797397 5.75980861244017  22.1710123222033 5.46984464528324  L 23.1127214336917 5.72540610786224  C 23.0016480513111 6.02028471853033  22.9147210564045 6.30041939866498  22.8084769515186 6.69850552306691  L 22.6249644067157 7.39638490164805  Z M 18.6408104734956 8.2073010809853  L 19.4328119826448 7.94682497489514  C 19.7950077947557 8.7577411542324  19.9736910620637 9.29835194045721  20.1523743293718 10.1190974068167  L 19.2927629352952 10.4483785220627  C 19.1382260554612 9.50476696792487  18.9836891756273 8.97890011223343  18.6408104734956 8.2073010809853  Z " fill-rule="nonzero" fill="#000000" stroke="none" transform="matrix(1 0 0 1 323 27 )" />
  </g>
</svg>