<?xml version="1.0" encoding="utf-8"?>
<svg version="1.1" xmlns:xlink="http://www.w3.org/1999/xlink" width="34px" height="16px" xmlns="http://www.w3.org/2000/svg">
  <g transform="matrix(1 0 0 1 -316 -36 )">
    <path d="M 33.9025914436154 8.81708146334831  C 33.7855786050055 8.80315517475859  33.6636902314535 8.7753025975792  33.5564284627278 8.7288816356136  C 33.0591238986354 9.35092252595314  32.5130639851225 9.94046874291672  31.9231242571307 10.5021623827009  C 28.4371167735431 13.821261163244  23.8053585785665 15.6456049684936  18.876192752123 15.6456049684936  C 13.9470269256795 15.6456049684936  9.31526873070288 13.821261163244  5.8292612471152 10.5068044788975  C 2.86493600233024 7.68440999138675  1.03661039905001 4.06821705426357  0.553932439784035 0.164214152953438  C 0.432044066231981 0.164214152953438  0.319906762564131 0.145645768167189  0.212644993838353 0.108508998594655  C 0.685571883220177 4.11928011242575  2.55290176603705 7.83759916587332  5.59036003495328 10.7342671925291  C 9.13974947278797 14.1137132236275  13.8543917617799 15.9751937984496  18.8713172171808 15.9751937984496  C 23.8882426725818 15.9751937984496  28.6077604965159 14.1137132236275  32.1522743994085 10.7342671925291  C 32.786093941879 10.1307946869758  33.3711581349286 9.48554331565345  33.9025914436154 8.81708146334831  Z " fill-rule="nonzero" fill="#000000" stroke="none" transform="matrix(1 0 0 1 316 36 )" />
  </g>
</svg>