<?xml version="1.0" encoding="utf-8"?>
<svg version="1.1" xmlns:xlink="http://www.w3.org/1999/xlink" width="50px" height="27px" xmlns="http://www.w3.org/2000/svg">
  <g transform="matrix(1 0 0 1 -310 -21 )">
    <path d="M 45.7300377014453 26.7844393592677  C 45.5656301283805 26.8771929824561  45.3818804878964 26.9260106788711  45.1981308474122 26.9260106788711  C 45.1014205103153 26.9260106788711  45.0095456900732 26.9113653699466  44.9176708698311 26.8869565217391  L 0.788744052502864 14.706941266209  C 0.513119591776672 14.6288329519451  0.285850299598849 14.4530892448513  0.140784793953458 14.1992372234935  C 0.00055480516289208 13.9502669717773  -0.0381293296758258 13.6573607932876  0.0392389400016668 13.3790999237224  L 3.38058108670054 1.03310450038139  C 3.53531762605559 0.457055682684977  4.12525068234686 0.120213577421824  4.69584167121872 0.276430205949666  L 48.824768488547 12.4564454614798  C 49.1003929492733 12.5345537757437  49.327662241451 12.7102974828375  49.4727277470964 12.9641495041953  C 49.6129577358869 13.2131197559115  49.6516418707258 13.5060259344012  49.5742736010482 13.7842868039664  L 46.2329314543493 26.1302822273074  C 46.1555631846718 26.4085430968726  45.9814845778973 26.6379862700229  45.7300377014453 26.7844393592677  Z M 1.0015067941161 13.9160945842868  L 45.1304336114443 26.0912280701754  C 45.26582808338 26.1302822273074  45.4060580721706 26.047292143402  45.4447422070094 25.9106025934401  L 48.7860843537082 13.5646071700991  C 48.8054264211276 13.5011441647597  48.795755387418 13.4279176201373  48.761906769434 13.3693363844393  C 48.7280581514501 13.3107551487414  48.6748674660467 13.266819221968  48.6071702300789 13.247292143402  L 4.47824341275066 1.07215865751336  C 4.41538169363764 1.05263157894736  4.34284894081492 1.06239511823037  4.28482273855678 1.09656750572083  C 4.22679653629871 1.13073989321128  4.18327688460505 1.18443935926773  4.16393481718569 1.25278413424867  L 0.822592670486813 13.5987795575896  C 0.803250603067397 13.6622425629291  0.812921636777105 13.7354691075515  0.846770254760997 13.7940503432494  C 0.880618872744947 13.8526315789474  0.933809558148198 13.8965675057208  1.0015067941161 13.9160945842868  Z " fill-rule="nonzero" fill="#000000" stroke="none" transform="matrix(1 0 0 1 310 21 )" />
  </g>
</svg>