<?xml version="1.0" encoding="utf-8"?>
<svg version="1.1" xmlns:xlink="http://www.w3.org/1999/xlink" width="49px" height="26px" xmlns="http://www.w3.org/2000/svg">
  <g transform="matrix(1 0 0 1 -310 -21 )">
    <path d="M 45.0461618226121 25.5794862974429  C 44.917214454191 25.6510377250315  44.7787154288499 25.6891984864121  44.6402164035088 25.6891984864121  C 44.5685789766082 25.6891984864121  44.4969415497076 25.679658296067  44.425304122807 25.6605779153767  L 0.841093596491191 13.7591904598097  C 0.630957144249521 13.7019493177388  0.454251491228092 13.5636165577342  0.349183265107229 13.3775828460039  C 0.239339210526339 13.186779039101  0.210684239766067 12.9673546611627  0.267994181286554 12.7574704735696  L 3.5680916471735 0.693899782135074  C 3.68748735867445 0.259821121431026  4.13641523391817 0.00223598211213583  4.57101562378165 0.121488361426435  L 48.1552261500975 12.0228758169935  C 48.3653626023392 12.0801169590643  48.5420682553606 12.2184497190689  48.6471364814815 12.4044834307992  C 48.7569805360623 12.5952872377021  48.7856355068226 12.8147116156404  48.7283255653022 13.0245958032336  L 45.4282280994152 25.088166494668  C 45.3709181578947 25.2980506822612  45.2324191325536 25.4745442036464  45.0461618226121 25.5794862974429  Z M 0.92705850877195 13.4443641784199  L 44.5112690350877 25.3457516339869  C 44.7739396003899 25.4173030615755  45.0413859941521 25.2646600160532  45.1130234210526 25.0023047815617  L 48.4131208869396 12.9387340901273  C 48.4465516861598 12.8147116156404  48.4322242007797 12.6811489508084  48.3653626023392 12.5666666666667  C 48.2985010038987 12.4521843825249  48.1934327777777 12.3710927645912  48.0692612378168 12.3377020983832  L 4.48982653996103 0.436314642816184  C 4.36565499999995 0.402923976608181  4.23193180311887 0.41723426212591  4.11731192007795 0.484015594541914  C 4.00269203703709 0.550796926957918  3.92150295321636 0.655739020754508  3.88807215399606 0.779761495241371  L 0.583198859649144 12.8433321866758  C 0.549768060428846 12.9673546611627  0.564095545808982 13.1009173259947  0.630957144249521 13.2153996101365  C 0.69781874269006 13.3298818942782  0.802886968810924 13.4109735122119  0.92705850877195 13.4443641784199  Z " fill-rule="nonzero" fill="#000000" stroke="none" transform="matrix(1 0 0 1 310 21 )" />
  </g>
</svg>