<?xml version="1.0" encoding="utf-8"?>
<svg version="1.1" xmlns:xlink="http://www.w3.org/1999/xlink" width="34px" height="17px" xmlns="http://www.w3.org/2000/svg">
  <g transform="matrix(1 0 0 1 -319 -15 )">
    <path d="M 33.8782696786911 16.3768507688975  L 33.9211634299231 16.7256140350877  L 33.5875453647852 16.6407797270955  C 33.4969918899621 16.6172146415421  33.4112043874981 16.6077886073208  33.3254168850341 16.6125016244314  L 33.1014161841558 16.6266406757635  L 33.0775863223602 16.4051288715616  C 32.8488196491228 14.4445137535196  32.2959668554657 12.5593069092484  31.4333258584663 10.7966385098549  C 30.5659188891079 9.02454407623999  29.4077876058436 7.41269222438813  27.9827618704689 6.00350010829544  C 24.6227513572946 2.6808230452675  20.1522692844471 0.847459389213769  15.3958288700528 0.847459389213769  C 10.6393884556585 0.847459389213769  6.17367235517008 2.67611002815681  2.80889586963661 6.00350010829544  C 2.275106965416 6.53135802469136  1.76514792299105 7.10634611219407  1.29808263179797 7.70489928525017  L 1.17893332282017 7.85571583279187  L 1.002592345533 7.77088152479966  C 0.921570815428083 7.73317738791423  0.831017340604944 7.70489928525017  0.740463865781805 7.69076023391812  L 0.335356215257207 7.63420402858999  L 0.583186777931076 7.3137188650639  C 1.09314582035614 6.64918345245831  1.6507645863723 6.02235217673814  2.23697918654312 5.43793805501408  C 5.74950081520905 1.96444444444445  10.4201537271393 0.0509594975092007  15.3910628976937 0.0509594975092007  C 20.361972068248 0.0509594975092007  25.0326249801782 1.96444444444445  28.5451466088442 5.43793805501408  C 30.0416619296055 6.91782542776694  31.2617508535384 8.614511587611  32.1672856017697 10.4761533463288  C 33.0680543776419 12.3330820879359  33.6447370330946 14.3172622915313  33.8782696786911 16.3768507688975  Z " fill-rule="nonzero" fill="#000000" stroke="none" transform="matrix(1 0 0 1 319 15 )" />
  </g>
</svg>