<?xml version="1.0" encoding="utf-8"?>
<svg version="1.1" xmlns:xlink="http://www.w3.org/1999/xlink" width="34px" height="17px" xmlns="http://www.w3.org/2000/svg">
  <g transform="matrix(1 0 0 1 -316 -35 )">
    <path d="M 31.9881148283943 11.4457093350661  C 28.4755931997284 14.914489928525  23.8049402877982 16.8279748754603  18.8340311172438 16.8279748754603  C 13.8631219466895 16.8279748754603  9.19246903475914 14.914489928525  5.67994740609322 11.4409963179554  C 4.1834320853319 9.9611089452025  2.96810913375828 8.26913580246913  2.06257438552689 6.40749404375135  C 1.16180560965461 4.55527831925494  0.585122954202006 2.57109811565951  0.351590308605466 0.511509638293258  L 0.30869655737348 0.143894303660375  L 0.661378511947817 0.261719731427327  C 0.747166014411789 0.28999783409142  0.832953516875875 0.304136885423446  0.923506991699014 0.304136885423446  L 1.13320977549995 0.308849902534099  L 1.15703963729544 0.516222655403947  C 1.62410492848852 4.46573099415204  3.38274872900104 8.05233701537794  6.24233214446849 10.8801472817847  C 9.60234265764285 14.2028243448127  14.0728247304904 16.0361880008664  18.8292651448846 16.0361880008664  C 23.5857055592789 16.0361880008664  28.0514216597674 14.2075373619233  31.4161981453008 10.8801472817847  C 31.9785828836762 10.3240112627247  32.5076058155376 9.73017110677929  32.988969023808 9.10333983105913  L 33.1033523604266 8.95723630062813  L 33.2749273653548 9.02793155728827  C 33.3607148678187 9.06092267706305  33.4512683426419 9.08448776261642  33.5465877898241 9.09391379683779  L 33.9802912745034 9.12690491661254  L 33.7181627947522 9.47095516569201  C 33.1843738905316 10.1684816980723  32.6029252627199 10.8330171106779  31.9881148283943 11.4457093350661  Z " fill-rule="nonzero" fill="#000000" stroke="none" transform="matrix(1 0 0 1 316 35 )" />
  </g>
</svg>