<?xml version="1.0" encoding="utf-8"?>
<svg version="1.1" xmlns:xlink="http://www.w3.org/1999/xlink" width="113px" height="113px" xmlns="http://www.w3.org/2000/svg">
  <defs>
    <filter x="131px" y="72px" width="113px" height="113px" filterUnits="userSpaceOnUse" id="filter65">
      <feOffset dx="0" dy="2" in="SourceAlpha" result="shadowOffsetInner" />
      <feGaussianBlur stdDeviation="5" in="shadowOffsetInner" result="shadowGaussian" />
      <feComposite in2="shadowGaussian" operator="atop" in="SourceAlpha" result="shadowComposite" />
      <feColorMatrix type="matrix" values="0 0 0 0 0.8  0 0 0 0 0.8  0 0 0 0 0.8  0 0 0 0.309803921568627 0  " in="shadowComposite" />
    </filter>
    <g id="widget66">
      <path d="M 92.2052160962778 46.5  C 92.2052160962778 21.2962215614197  71.7037784385803 0.794783903722177  46.5 0.794783903722177  C 21.2962215614197 0.794783903722177  0.794783903722163 21.2962214589455  0.794783903722163 46.5  C 0.794783903722163 71.7037785410545  21.2962215614197 92.2052160962778  46.5 92.2052160962778  C 71.7037784385803 92.2052160962778  92.2052160962778 71.7037784385803  92.2052160962778 46.5  Z M 49 39.9416482300885  L 49 69.4543193225422  C 49.7792640128077 71.2676714100093  48.313528343171 72.7335833353498  46.5 72.7335833353498  C 44.686471656829 72.7335833353498  43.2207359871923 71.2678476657132  44 69.4543193225422  L 44 39.9416482300885  C 43.2207359871923 38.1282961426213  44.686471656829 36.6623842172808  46.5 36.6623842172808  C 48.3133520874672 36.6623842172808  49.7792640128077 38.1281198869175  49 39.9416482300885  Z M 51.4188078913596 25.1854008117136  C 51.4188078913596 27.8972321304186  49.2151805869746 30.1042087030731  46.5 30.1042087030731  C 43.7848194130254 30.1042087030731  41.5811921086404 27.8972321304186  41.5811921086404 25.1854008117136  C 41.5811921086404 22.4670473146476  43.7848194130254 20.266592920354  46.5 20.266592920354  C 49.2151805869746 20.266592920354  51.4188078913596 22.4668710589438  51.4188078913596 25.1854008117136  Z " fill-rule="nonzero" fill="#272636" stroke="none" transform="matrix(1 0 0 1 141 80 )" />
    </g>
  </defs>
  <g transform="matrix(1 0 0 1 -131 -72 )">
    <use xlink:href="#widget66" filter="url(#filter65)" />
    <use xlink:href="#widget66" />
  </g>
</svg>