<?xml version="1.0" encoding="utf-8"?>
<svg version="1.1" xmlns:xlink="http://www.w3.org/1999/xlink" width="175px" height="109px" xmlns="http://www.w3.org/2000/svg">
  <defs>
    <mask fill="white" id="clip121">
      <path d="M 106.86170212766 10  L 174.255319148936 10  L 175 109  L 0 109  L 0 10  L 48.031914893617 10  L 78.1914893617021 0  L 106.86170212766 10  Z " fill-rule="evenodd" />
    </mask>
  </defs>
  <g transform="matrix(1 0 0 1 -436 -501 )">
    <path d="M 106.86170212766 10  L 174.255319148936 10  L 175 109  L 0 109  L 0 10  L 48.031914893617 10  L 78.1914893617021 0  L 106.86170212766 10  Z " fill-rule="nonzero" fill="#ffffff" stroke="none" transform="matrix(1 0 0 1 436 501 )" />
    <path d="M 106.86170212766 10  L 174.255319148936 10  L 175 109  L 0 109  L 0 10  L 48.031914893617 10  L 78.1914893617021 0  L 106.86170212766 10  Z " stroke-width="2" stroke="#d8d8d8" fill="none" transform="matrix(1 0 0 1 436 501 )" mask="url(#clip121)" />
  </g>
</svg>