<?xml version="1.0" encoding="utf-8"?>
<svg version="1.1" xmlns:xlink="http://www.w3.org/1999/xlink" width="178px" height="40px" xmlns="http://www.w3.org/2000/svg">
  <defs>
    <linearGradient gradientUnits="userSpaceOnUse" x1="115" y1="481" x2="293" y2="481" id="LinearGradient117">
      <stop id="Stop118" stop-color="#d88bff" offset="0" />
      <stop id="Stop119" stop-color="#9c56ff" offset="1" />
    </linearGradient>
  </defs>
  <g transform="matrix(1 0 0 1 -115 -461 )">
    <path d="M 115.5 465  A 3.5 3.5 0 0 1 119 461.5 L 289 461.5  A 3.5 3.5 0 0 1 292.5 465 L 292.5 497  A 3.5 3.5 0 0 1 289 500.5 L 119 500.5  A 3.5 3.5 0 0 1 115.5 497 L 115.5 465  Z " fill-rule="nonzero" fill="#ffffff" stroke="none" />
    <path d="M 115.5 465  A 3.5 3.5 0 0 1 119 461.5 L 289 461.5  A 3.5 3.5 0 0 1 292.5 465 L 292.5 497  A 3.5 3.5 0 0 1 289 500.5 L 119 500.5  A 3.5 3.5 0 0 1 115.5 497 L 115.5 465  Z " stroke-width="1" stroke="url(#LinearGradient117)" fill="none" />
  </g>
</svg>