<?xml version="1.0" encoding="utf-8"?>
<svg version="1.1" xmlns:xlink="http://www.w3.org/1999/xlink" width="355px" height="88px" xmlns="http://www.w3.org/2000/svg">
  <defs>
    <filter x="15px" y="387px" width="355px" height="88px" filterUnits="userSpaceOnUse" id="filter61">
      <feOffset dx="5" dy="5" in="SourceAlpha" result="shadowOffsetInner" />
      <feGaussianBlur stdDeviation="10" in="shadowOffsetInner" result="shadowGaussian" />
      <feComposite in2="shadowGaussian" operator="atop" in="SourceAlpha" result="shadowComposite" />
      <feColorMatrix type="matrix" values="0 0 0 0 0.184313725490196  0 0 0 0 0.470588235294118  0 0 0 0 1  0 0 0 0.298039215686275 0  " in="shadowComposite" />
    </filter>
    <g id="widget62">
      <path d="M 30.5 410  A 7.5 7.5 0 0 1 38 402.5 L 337 402.5  A 7.5 7.5 0 0 1 344.5 410 L 344.5 442  A 7.5 7.5 0 0 1 337 449.5 L 38 449.5  A 7.5 7.5 0 0 1 30.5 442 L 30.5 410  Z " fill-rule="nonzero" fill="#ffffff" stroke="none" fill-opacity="0" />
      <path d="M 30.5 410  A 7.5 7.5 0 0 1 38 402.5 L 337 402.5  A 7.5 7.5 0 0 1 344.5 410 L 344.5 442  A 7.5 7.5 0 0 1 337 449.5 L 38 449.5  A 7.5 7.5 0 0 1 30.5 442 L 30.5 410  Z " stroke-width="1" stroke="#4287ff" fill="none" />
    </g>
  </defs>
  <g transform="matrix(1 0 0 1 -15 -387 )">
    <use xlink:href="#widget62" filter="url(#filter61)" />
    <use xlink:href="#widget62" />
  </g>
</svg>