<?xml version="1.0" encoding="utf-8"?>
<svg version="1.1" xmlns:xlink="http://www.w3.org/1999/xlink" width="37px" height="19px" xmlns="http://www.w3.org/2000/svg">
  <g transform="matrix(1 0 0 1 -29 -277 )">
    <path d="M 21.710939886498 18.703125  L 2.4472162463656 18.703125  C 1.43331664689964 18.703125  0.557255405897763 18.2124154338807  0.0522283332036295 17.4574105526616  C 0.838923157160139 15.4050235380103  1.7654540518285 13.3996783185511  2.82585450804186 11.4687832065385  C 3.78829561246374 9.65916455624793  5.00070869399389 7.98560499471645  6.42950264731576 6.49447214725333  C 7.94915628751642 4.99407418674483  9.47665790426277 4.23348463889704  10.97134071 4.23348463889704  C 14.7761824298076 4.23348463889704  18.3891054504537 9.10181190872797  21.710939886498 18.703125  Z M 36.7909685565076 17.6689371503098  C 36.2719252261954 18.3027800353703  35.4685821412122 18.703125  34.552783743266 18.7033410421455  L 21.710939886498 18.703125  C 22.3348348172437 17.5557070830132  23.0862098265836 16.4661157475836  23.9440459399383 15.4712298435736  C 24.6668627305221 14.6154433236147  25.5146009645957 13.8668022126303  26.460392601435 13.2490337875665  C 27.4044793323722 12.6163552565956  28.5184040092271 12.2653152589621  29.6652208417079 12.2390706174736  C 32.1391796148941 12.2390706174736  34.5328980156668 14.0646502716388  36.7909685565076 17.6689371503098  Z M 22.4243922997377 2.07848091999492  C 22.4243922997377 0.930770515194268  23.3826628767701 0.000367401285075175  24.564749539457 0.000367401285075175  C 25.7468362021439 0.000367401285075175  26.7051067791762 0.930770515194268  26.7051067791762 2.07848091999492  C 26.7051067791762 3.22619132479556  25.7468362021439 4.15659443870476  24.564749539457 4.15659443870476  C 23.3826628767701 4.15659443870476  22.4243922997377 3.22619132479556  22.4243922997377 2.07848091999492  Z " fill-rule="nonzero" fill="#d1dbe3" stroke="none" transform="matrix(1 0 0 1 29 277 )" />
  </g>
</svg>