<?xml version="1.0" encoding="utf-8"?>
<svg version="1.1" xmlns:xlink="http://www.w3.org/1999/xlink" width="27px" height="17px" xmlns="http://www.w3.org/2000/svg">
  <g transform="matrix(1 0 0 1 -203 -769 )">
    <path d="M 11.7052946179402 0.215263345474909  C 12.3927743787376 0.146320732231288  13.0841986710963 0.127469229476105  13.5057026710963 0.101615765387123  C 17.3409380996678 0.230883136639591  20.5844901262458 1.19661815858785  23.3321550830565 3.4410229957972  C 25.1043877209302 4.89043346296819  26.3266365714286 6.68294107705231  26.9014147242525 8.85840327561414  C 26.9769247840532 9.14386873634066  26.9577655282392 9.40617377939657  26.6974248504984 9.60222930643499  C 26.5092379013399 9.75597686641186  26.2433860694395 9.78795205184645  26.021215255814 9.68356005006081  C 25.7890499667774 9.58553228654148  25.6831104584718 9.39701736060522  25.6267596544851 9.17295391202015  C 25.2351215946844 7.64813748463621  24.4467739003322 6.32799441412158  23.3332820996678 5.18720979994396  C 21.6675524518272 3.47441706098812  19.6017321461794 2.41280873297842  17.2541578471761 1.84026196843183  C 14.1131642790698 1.07543000280191  11.0133067906977 1.19931123040999  8.00361060465116 2.38910970094332  C 5.25481860465118 3.47603287867753  3.1123611960133 5.22060386513488  1.82587242524917 7.83395933875033  C 1.66050298516109 8.18771175729125  1.51601811425829 8.55004969713218  1.39309828571427 8.91926667339123  C 1.23700656478405 9.35823712636591  0.911298950166099 9.56560355505746  0.528113514950178 9.44818569982249  C 0.144928079734228 9.33076784458763  -0.0122906578073128 8.9892865153638  0.133657913621278 8.54169820715413  C 0.928204199335539 6.1314002473149  2.46601751495018 4.23978764098251  4.59044265780733 2.77098708209576  C 6.71486780066445 1.30218652320912  9.10357820598006 0.473798087979844  11.7052946179402 0.215263345474909  Z M 17.4192657009967 14.0425636880545  C 17.0259634932458 15.7323923082657  15.4588546840931 16.9353058331967  13.6477066843854 16.9376143218454  C 11.8674293206211 16.929785575466  10.3215354609329 15.7640531763379  9.89925148172756 14.1109676869338  C 9.79387548172758 13.6913873256748  9.98434118272425 13.3439812638461  10.3669631362126 13.257264376576  C 10.7360608637874 13.1737792008967  11.05444289701 13.3876089765574  11.1744700863787 13.7996487367143  C 11.5080668172757 14.9468966978612  12.4913882790698 15.6847979706733  13.6713740066445 15.6783346237041  C 14.8615028837209 15.6697167938731  15.823974538206 14.9151185011674  16.1434835880399 13.7393239787056  C 16.2494230963455 13.3493673820865  16.577384744186 13.1376920638834  16.9408474152824 13.2244089257495  C 17.3296679335548 13.3170505456244  17.5156255681063 13.6342942284487  17.4192657009967 14.0425636880545  Z " fill-rule="nonzero" fill="#666666" stroke="none" transform="matrix(1 0 0 1 203 769 )" />
  </g>
</svg>