<?xml version="1.0" encoding="utf-8"?>
<svg version="1.1" xmlns:xlink="http://www.w3.org/1999/xlink" width="27px" height="17px" xmlns="http://www.w3.org/2000/svg">
  <g transform="matrix(1 0 0 1 -203 -778 )">
    <path d="M 17.9158759891833 0.875334053894449  C 17.9191784099513 0.423494561830921  18.3231743169281 0.0546785765965296  18.819087575987 0.0514853628645824  C 19.3210552471606 0.0482921491325214  19.7448656787453 0.434138607604268  19.7399120475933 0.889703515688439  C 19.7349584164413 1.33728538944251  19.3232568610059 1.71089119527494  18.8317468555976 1.7135522067183  C 18.3253759567334 1.71674542045037  17.912023164954 1.34101080546327  17.9158759891833 0.875334053894449  Z M 8.76157065657114 0.891300122554526  C 8.75551621849647 1.34899383979325  8.32730255922121 1.72579285935774  7.82588529150894 1.7135522067183  C 7.33052243591129 1.70184375636768  6.92982894970254 1.32185154817273  6.93533298431583 0.873737447028475  C 6.94083701892916 0.415511527500939  7.3685002747431 0.0392447102251481  7.87101834937803 0.0514853628645824  C 8.36638120497565 0.0631938132152072  8.76707469118443 0.443186021410156  8.76157065657114 0.891300122554526  Z M 12.134991601947 13.8541441387966  C 12.1498524954029 14.1569670653378  12.1162778842618 14.4613866238465  12.1085722617631 14.7674027641195  C 12.1052698409951 14.8791651945368  12.1047194375338 14.9909275998524  12.1085722617631 15.1026900051679  C 12.1212315413737 15.3155707951273  12.2274593315306 15.6279733628646  12.552747621417 15.6460682406793  C 12.8780359113034 15.664163118494  13.1449814083288 15.2735268394241  13.2996447030827 15.0771443204135  C 13.4994410557058 14.8243483839055  13.664561990265 14.571552422296  13.8428926078961 14.3043870239941  C 14.2331284542996 13.7189648327795  14.5149348707409 12.9999599424142  15.1022150524608 12.5789881579918  C 15.3467565468741 12.4061712891811  15.6124041901622 12.2631717033614  15.893144385073 12.1532265529715  C 16.1606267028714 12.0480749255114  16.4368079381419 11.9649338961426  16.7187491097891 11.9046882096715  C 19.9231962963764 11.2037781720192  22.5210992060573 9.61621962347726  24.2449619123851 6.84610824215576  C 25.0815747063277 5.50229819121444  25.4987802963764 4.03022748911042  25.519695627907 2.45757057954961  C 25.5257500659816 1.99668364857882  25.7717802833964 1.72685723883353  26.1768769972958 1.73484027316363  C 26.5676632471606 1.74229110520491  26.8125926576528 2.01690733554813  26.8021349918875 2.45969938870428  C 26.7371874094105 5.33359016611291  25.5956512796106 7.75457704688074  23.4997160411033 9.76523618899967  C 21.7103553747972 11.4815876160945  19.5445189486209 12.5385407840532  17.1084345527312 13.1042715156885  C 16.9257007074094 13.1468476736803  16.741866055165 13.1862306179403  16.5580314029205 13.230403382798  C 15.9916665527312 13.367179295681  15.6052835305571 13.7093851915836  15.3075154137371 14.1883669752676  C 14.9613118182802 14.7450502679956  14.6063017934018 15.3022657630122  14.1968018518118 15.815308493171  C 13.944166792861 16.1314364769287  13.6810740941049 16.4422424377999  13.3293664640346 16.6545910254706  C 12.3386407787993 17.2527860716132  11.0936288242293 16.7019570040605  10.9075925581395 15.5838006231081  C 10.8360401600865 15.1580390180879  10.8448465895079 14.717907976375  10.8525522639264 14.2852277416021  C 10.8712659816117 13.500761994832  10.732013983775 13.3070404621632  9.95319350135208 13.1085291339978  C 7.52261314007572 12.4885138191214  5.33531100486749 11.4241098191214  3.49091001838832 9.7556565478036  C 1.72026306976744 8.15319633517902  0.534144259599799 6.22715730675532  0.133450747431027 3.89132276707267  C 0.0486886663061057 3.39637491472865  0.0233701070849293 2.8897186120339  0.000803591130335235 2.38678772535991  C -0.0168093196322445 2.00945650350684  0.257291474310449 1.7428233074935  0.618355911303411 1.73537247545221  C 0.987676426176307 1.72845384569951  1.26838203569497 1.97645998671101  1.27883970146024 2.34953359025462  C 1.35644653758789 5.7731890306386  3.16452092157922 8.22131820302695  5.99029076041103 10.0749777452935  C 7.30245188534343 10.9366127737172  8.75111301676583 11.516712942045  10.2834353964305 11.9121390417127  C 10.5448283092219 11.9743858029425  10.7985513654793 12.063597708158  11.0402397404002 12.1782400354374  C 11.7376005365062 12.5268323337025  12.0942617977285 13.0994816950905  12.134991601947 13.8541441387966  Z " fill-rule="nonzero" fill="#666666" stroke="none" transform="matrix(1 0 0 1 203 778 )" />
  </g>
</svg>