<?xml version="1.0" encoding="utf-8"?>
<svg version="1.1" xmlns:xlink="http://www.w3.org/1999/xlink" width="22px" height="22px" xmlns="http://www.w3.org/2000/svg">
  <g>
    <path d="M 21.7801866428223 11  C 21.7801866428223 5.0561416586914  16.9446483110352 0.219813357177739  11 0.219813357177739  C 5.05614165869144 0.219813357177739  0.219813357177739 5.05610006225586  0.219813357177739 11  C 0.219813357177739 16.9446483110352  5.05535166479493 21.7801866428223  11 21.7801866428223  C 16.9446483352051 21.7801866428223  21.7801866428223 16.9446483110352  21.7801866428223 11  Z M 20.2333116428223 11  C 20.2333116428223 16.0907799577637  16.0907799577637 20.2333116428223  11 20.2333116428223  C 5.90847164477537 20.2333116428223  1.76668835717774 16.0907799819336  1.76668835717774 11  C 1.76668835717774 5.90847164477539  5.90843004833983 1.76668835717773  11 1.76668835717773  C 16.0907799577637 1.76668835717773  20.2333116428223 5.90843004833985  20.2333116428223 11  Z M 14.8672082861328 11  C 14.8672082861328 8.86759508325195  13.1323633444824 7.13283328613282  11 7.13283328613282  C 8.86763665551757 7.13283328613282  7.13279171386718 8.86763665551758  7.13279171386718 11  C 7.13279171386718 13.1323633444824  8.86759508325199 14.8672082861328  11 14.8672082861328  C 13.132404916748 14.8672082861328  14.8672082861328 13.132404916748  14.8672082861328 11  Z " fill-rule="nonzero" fill="#5584ff" stroke="none" />
  </g>
</svg>