<?xml version="1.0" encoding="utf-8"?>
<svg version="1.1" xmlns:xlink="http://www.w3.org/1999/xlink" width="14px" height="14px" xmlns="http://www.w3.org/2000/svg">
  <g transform="matrix(1 0 0 1 -64 -245 )">
    <path d="M 13.4417100830078 13.4669074609375  C 13.6332101464844 13.2905257861328  13.6432890917969 12.9931967089844  13.4669074462891 12.8042163671875  L 11.2318998876953 10.4129850537109  C 12.1390055517578 9.32193852050781  12.6353939306641 7.96128002441407  12.6353939306641 6.53006888183594  C 12.6353939306641 3.17125820312501  9.90147825683594 0.43734252929687  6.54014784179688 0.43734252929687  C 3.18133716308594 0.43734252929687  0.447421489257806 3.17125820312501  0.447421489257806 6.53006888183594  C 0.447421489257806 9.88887956054688  3.18133716308594 12.622795234375  6.54014784179688 12.622795234375  C 7.41953639160157 12.622795234375  8.26868807617187 12.4388543652344  9.06240553222656 12.0760120996094  C 9.29926089355469 11.9676633642578  9.40257015624999 11.6904921923828  9.29422142089844 11.4561565673828  C 9.18587268554687 11.2193012060547  8.90870151367187 11.1159919433594  8.67436588867187 11.2243406787109  C 8.00159584960937 11.5292289648438  7.28347054199219 11.6854527197266  6.54014784179688 11.6854527197266  C 3.69788343261719 11.6854527197266  1.38476400390626 9.37233329101562  1.38476400390626 6.53006888183594  C 1.38476400390626 3.68780447265624  3.69788343261719 1.37468504394531  6.54014784179688 1.37468504394531  C 9.38241225097656 1.37468504394531  11.6955316796875 3.68780447265624  11.6955316796875 6.53006888183594  C 11.6955316796875 7.86804973632812  11.1840248828125 9.13547791503908  10.2592810498047 10.1005375585937  C 10.0803796533203 10.2869981640625  10.0854191259766 10.5843272412109  10.2718797460937 10.7632286376953  C 10.2869981787109 10.7758273339844  10.3046363330078 10.7808668066406  10.319754765625 10.7934654882812  C 10.3323534619141 10.8111036572266  10.3399126708984 10.8337812988281  10.3550311035156 10.8514194677734  L 12.7790190039062 13.4442298193359  C 12.8697295703125 13.5424995947266  12.9957164746094 13.5928943652344  13.1217033642578 13.5928943652344  C 13.2376113085937 13.5928943652344  13.3509995166016 13.5500588183594  13.4417100830078 13.4669074609375  Z " fill-rule="nonzero" fill="#b7b7b7" stroke="none" transform="matrix(1 0 0 1 64 245 )" />
  </g>
</svg>