<?xml version="1.0" encoding="utf-8"?>
<svg version="1.1" xmlns:xlink="http://www.w3.org/1999/xlink" width="16px" height="16px" xmlns="http://www.w3.org/2000/svg">
  <g transform="matrix(1 0 0 1 -326 -245 )">
    <path d="M 15.5 8  C 15.5 3.86429435267857  12.1357056473214 0.5  8 0.5  C 3.8648127232143 0.5  0.5 3.86429435267857  0.5 8  C 0.5 12.1357056473214  3.8642943526786 15.5  8 15.5  C 12.1351872767857 15.5  15.5 12.1357056473214  15.5 8  Z M 8.75911455915178 8.0021310546875  L 11.0594678180803 10.3100005691964  C 11.268397109375 10.5199953794643  11.2678499441964 10.8585731529018  11.0584022991071 11.0675024441964  C 10.9539520591518 11.1714343303571  10.8173344698661 11.2239330245536  10.6801985267857 11.2239330245536  C 10.5425154185268 11.2239330245536  10.4053794754464 11.1714343136161  10.3009004241072 11.0664369084821  L 7.99732179687499 8.75588917410714  L 5.68625569196428 11.0423330133928  C 5.58180545200895 11.1451993638393  5.44570623325893 11.1971509095982  5.30963580915181 11.1971509095982  C 5.17143433035716 11.1971509095982  5.03375123883927 11.1441050502232  4.92875381696427 11.038042109375  C 4.72089004464289 10.8275001339286  4.72250272879467 10.4889223604911  4.93304472098214 10.280540234375  L 7.24143260602676 7.99732178013393  L 4.94159771763395 5.6899994140625  C 4.73266842633927 5.48052295758929  4.73321559151788 5.14142683035715  4.94266323660713 4.9324975390625  C 5.15213969308036 4.72302108258928  5.49068865513391 4.72411541294643  5.70016511160713 4.93356305803572  L 8.00319657366072 7.24356362723213  L 10.3142626785714 4.95714858258928  C 10.5242574888393 4.74876645647322  10.86390078125 4.75089749441965  11.0717645535714 4.96143948660715  C 11.2801466796875 5.17198146205357  11.2780156417411 5.51107758928572  11.0674736495536 5.71894136160714  L 8.75911455915178 8.0021310546875  Z " fill-rule="nonzero" fill="#999999" stroke="none" transform="matrix(1 0 0 1 326 245 )" />
  </g>
</svg>