<?xml version="1.0" encoding="utf-8"?>
<svg version="1.1" xmlns:xlink="http://www.w3.org/1999/xlink" width="91px" height="91px" xmlns="http://www.w3.org/2000/svg">
  <g transform="matrix(1 0 0 1 -42 -28 )">
    <path d="M 90.7034376187368 80.2628179683837  C 90.7034376187368 88.6443042430138  84.2451164242204 90.3611378469207  74.5491591453144 90.3611378469207  C 70.9555526013839 90.3611378469207  66.8364658552752 90.1167275074754  62.4687648199637 89.8544334846568  C 57.326969293271 89.5504108672986  51.501484471271 89.198698427609  45.5177905561418 89.198698427609  C 39.5340966410126 89.198698427609  33.6916608447486 89.5444496395071  28.5668162923199 89.8544334846568  C 24.2047655817628 90.1167275074754  20.0913291604086 90.3611378469207  16.492072291724 90.3611378469207  C 12.4760851611 90.6551317483182  8.44900313485392 89.9887939082457  4.71114517836759 88.4118163591515  C 1.78218270023572 86.9221678254834  0.0271746305098475 83.6813180077115  0.298241545019316 80.2628179683837  C 0.298241545019316 65.4372444513116  20.5772570893049 53.3776806294222  45.5008395818779 53.3776806294222  C 70.4244220744508 53.3776806294222  90.7034376187368 65.4372444513116  90.7034376187368 80.2628179683837  Z M 69.5882352941177 71  L 24.0882352941177 71  L 69.5882352941177 71  Z M 21.4117647058823 24.0882352941178  C 21.4117647058823 10.5988235294115  32.0105882352942 0  45.5 0  C 58.9894117647058 0  69.5882352941177 10.5988235294115  69.5882352941177 24.0882352941178  C 69.5882352941177 37.5776470588232  58.9894117647058 48.1764705882354  45.5 48.1764705882354  C 32.0105882352942 48.1764705882354  21.4117647058823 37.5776470588232  21.4117647058823 24.0882352941178  Z " fill-rule="nonzero" fill="#748aa1" stroke="none" transform="matrix(1 0 0 1 42 28 )" />
  </g>
</svg>