<?xml version="1.0" encoding="utf-8"?>
<svg version="1.1" xmlns:xlink="http://www.w3.org/1999/xlink" width="18px" height="18px" xmlns="http://www.w3.org/2000/svg">
  <g>
    <path d="M 17.4374825570914 15.4904195012019  C 17.4375174429086 16.5639104567308  16.5639104567308 17.4375174429086  15.4903846153846 17.4375174429086  L 2.50961538461539 17.4375174429086  C 1.43608954326922 17.4375174429086  0.562482557091357 16.5639104567308  0.562482557091357 15.4904195012019  L 0.562482557091357 2.5096502704327  C 0.562482557091357 1.43612442908653  1.43608954326922 0.562517442908643  2.50961538461539 0.562517442908643  L 15.4903846153846 0.562517442908643  C 16.5638755709135 0.562517442908643  17.4374825570914 1.43612442908653  17.4374825570914 2.5096502704327  L 17.4374825570914 15.4904195012019  Z M 15.4903846153846 2  L 2.50961538461539 2  C 2.15199440129206 1.86059436598558  1.86055948016826 2.15202928710937  2 2.5096502704327  L 2 15.4904195012019  C 1.86055948016826 15.8487033759014  2.15199440129206 16.1394405198317  2.50961538461539 16  L 15.4903846153846 16  C 15.8486684900841 16.1394405198317  16.1394056340144 15.8486684900841  16 15.4904195012019  L 16 2.5096502704327  C 16.1394056340144 2.15202928710937  15.8486336042668 1.86059436598558  15.4903846153846 2  Z " fill-rule="nonzero" fill="#dcdee3" stroke="none" />
  </g>
</svg>