<?xml version="1.0" encoding="utf-8"?>
<svg version="1.1" xmlns:xlink="http://www.w3.org/1999/xlink" width="18px" height="18px" xmlns="http://www.w3.org/2000/svg">
  <g>
    <path d="M 17.4374825570914 2.5096502704327  C 17.4375174429086 1.43608954326925  16.5639104567308 0.562517442908671  15.4903846153846 0.562517442908671  L 2.50961538461539 0.562517442908671  C 1.43608954326925 0.562517442908671  0.562482557091329 1.43612442908653  0.562482557091329 2.5096502704327  L 0.562482557091329 15.4904195012019  C 0.562482557091329 16.5639104567308  1.43608954326925 17.4375174429086  2.50961538461539 17.4375174429086  L 15.4903846153846 17.4375174429086  C 16.5638755709135 17.4375174429086  17.4374825570914 16.5639104567308  17.4374825570914 15.4904195012019  L 17.4374825570914 2.5096502704327  Z M 13.3608127351262 6.59012307241588  C 13.6146713108473 6.84258603290263  13.6172531655649 7.25344891902043  13.365418210637 7.50786572866588  L 8.16857483473558 12.7611608676382  C 8.16728391751803 12.7624517848558  8.16466717698316 12.7631146965144  8.16337623948317 12.7650685253906  C 8.16142241060697 12.7663594426082  8.16142241060697 12.768976183143  8.15946858173078 12.770267120643  C 8.1179147663762 12.8104951126803  8.06666157827524 12.8351622453425  8.01861825045071 12.8624460982572  C 7.99461402944712 12.8760880348558  7.97514549203726 12.8968474894832  7.9498154679988 12.9065817683293  C 7.87194131835938 12.9377384134615  7.7894965993089 12.9539621844952  7.70708676607572 12.9539621844952  C 7.62401402118388 12.9539621844952  7.54027838491587 12.9377384134615  7.46174132361779 12.9052908511118  C 7.43578327373797 12.8942656550481  7.41502381911059 12.8721803771034  7.39035668644834 12.8585733466046  C 7.34231335862381 12.8313243795072  7.29235108774037 12.8072852726863  7.2507972723858 12.7663943689904  C 7.24950635516828 12.7651034517728  7.24884344350963 12.762486711238  7.24755252629205 12.761195773738  C 7.24626160907454 12.7592419448618  7.24364486853966 12.7592419448618  7.24235393103965 12.7572881159856  L 4.68642807692308 10.1306405363582  C 4.43654695087139 9.87360700646033  4.44237357196513 9.46277900615985  4.69940710186299 9.21289788010816  C 4.95644063176081 8.96367966571515  5.36660574068509 8.96821534930888  5.61714975811299 9.2258769050481  L 7.71158754356972 11.378092276893  L 12.4430700788762 6.59532166766829  C 12.6949050338041 6.34024196664666  13.1063959254808 6.33828813777043  13.3608127351262 6.59012307241588  Z " fill-rule="nonzero" fill="#5584ff" stroke="none" />
  </g>
</svg>