<?xml version="1.0" encoding="utf-8"?>
<svg version="1.1" xmlns:xlink="http://www.w3.org/1999/xlink" width="52px" height="31px" xmlns="http://www.w3.org/2000/svg">
  <defs>
    <filter x="98px" y="142px" width="52px" height="31px" filterUnits="userSpaceOnUse" id="filter50">
      <feOffset dx="0" dy="0" in="SourceAlpha" result="shadowOffsetInner" />
      <feGaussianBlur stdDeviation="2.5" in="shadowOffsetInner" result="shadowGaussian" />
      <feComposite in2="shadowGaussian" operator="atop" in="SourceAlpha" result="shadowComposite" />
      <feColorMatrix type="matrix" values="0 0 0 0 0  0 0 0 0 0  0 0 0 0 0  0 0 0 0.349019607843137 0  " in="shadowComposite" />
    </filter>
    <g id="widget51">
      <path d="M 24.6448506819708 20.671875  L 2.77792114452313 20.671875  C 1.6270080856699 20.671875  0.632560190478557 20.1295117953418  0.0592862160689265 19.2950327160997  C 0.9522911513709 17.0266049630641  2.00402892369721 14.8101707731354  3.20772673885836 12.6760235440688  C 4.30022745198585 10.6759187200635  5.6764801391281 8.82619499416029  7.29835435641257 7.17810079433263  C 9.02336659664036 5.51976620640218  10.7572873507847 4.67911460088618  12.4539543194595 4.67911460088618  C 16.7729638392411 4.67911460088618  20.8741197005151 10.0598973728046  24.6448506819708 20.671875  Z M 41.7627210641436 19.5288252713951  C 41.173536743249 20.2293884601462  40.2616337819164 20.671875  39.2220788437074 20.6721137834239  L 24.6448506819708 20.671875  C 25.353055738493 19.4036762496461  26.2059679112571 18.1993910894345  27.1797278237138 17.0997803534235  C 28.0002225589711 16.1539110418899  28.9625200138654 15.3264656034335  30.0361213313587 14.6436689230999  C 31.1077873502603 13.9443926520267  32.3722423888522 13.556401075695  33.6740344689657 13.5273938403655  C 36.4823119952854 13.5273938403655  39.1995058556217 15.5451397739165  41.7627210641436 19.5288252713951  Z M 25.4547155834861 2.29726838525755  C 25.4547155834861 1.02874635889893  26.5424821844417 0.000406075104564252  27.8843102880323 0.000406075104564252  C 29.2261383916227 0.000406075104564252  30.3139049925784 1.02874635889893  30.3139049925784 2.29726838525755  C 30.3139049925784 3.56579041161615  29.2261383916227 4.59413069541051  27.8843102880323 4.59413069541051  C 26.5424821844417 4.59413069541051  25.4547155834861 3.56579041161615  25.4547155834861 2.29726838525755  Z " fill-rule="nonzero" fill="#d1dbe3" stroke="none" transform="matrix(1 0 0 1 103 147 )" />
    </g>
  </defs>
  <g transform="matrix(1 0 0 1 -98 -142 )">
    <use xlink:href="#widget51" filter="url(#filter50)" />
    <use xlink:href="#widget51" />
  </g>
</svg>