<?xml version="1.0" encoding="utf-8"?>
<svg version="1.1" xmlns:xlink="http://www.w3.org/1999/xlink" width="2px" height="2px" xmlns="http://www.w3.org/2000/svg">
  <g transform="matrix(1 0 0 1 -39 -198 )">
    <path d="M 1.88507195 1.17146142500002  C 1.98993522499999 1.12131934999996  2.011629325 1.00665787500003  1.950179775 0.827323475000014  C 1.91032200000001 0.709029274999978  1.8651942 0.637346675000003  1.81454055 0.612198924999973  C 1.76386129999999 0.58720467500001  1.7041514 0.588944300000037  1.635538725 0.617622449999999  L 1.3534132 0.735891074999984  C 1.3534132 0.671397200000001  1.35249222499999 0.607773150000014  1.350727025 0.544993299999987  C 1.3488595 0.482341374999976  1.34798967500001 0.418640574999984  1.34798967500001 0.354146700000001  C 1.34798967500001 0.243015650000018  1.24491714999999 0.187424550000003  1.038772125 0.187424550000003  C 0.9302505 0.187424550000003  0.851609424999992 0.200829849999991  0.802772125000011 0.227768400000002  C 0.753934825000009 0.254630200000008  0.729554575000009 0.296815975000015  0.729554575000009 0.354146725000021  L 0.729554575000009 0.692912250000006  L 0.3823212 0.590683950000027  C 0.324478825000007 0.572827249999989  0.274669399999993 0.581806774999961  0.233148749999998 0.617622475000019  C 0.191551349999997 0.653489350000029  0.156298450000008 0.725120800000013  0.127338900000005 0.832721450000008  C 0.0731036750000058 1.02988697500001  0.105670400000008 1.14283440000003  0.225013475000004 1.17148697499999  L 0.539654550000002 1.25214907499998  L 0.344356550000008 1.5317675  C 0.304524350000008 1.582011825  0.28738397499999 1.64200314999999  0.292807500000002 1.71194615000002  C 0.298231025000007 1.78183797499997  0.340698225000004 1.84730397499999  0.420285875000012 1.90819070000003  C 0.488924150000003 1.95843502500003  0.564904624999997 1.98266180000002  0.64815057500001 1.98081984999999  C 0.731294200000001 1.97905465000002  0.798218424999995 1.94045042499999  0.848872074999996 1.86518625000002  L 1.017103625 1.61780197499996  L 1.20697809999999 1.89207362500002  C 1.24304965000001 1.94582277500001  1.29554525 1.97815925000003  1.36428585000001 1.98887840000003  C 1.43294969999999 1.99962312500003  1.50350665 1.98532240000003  1.5758544 1.94584837500003  C 1.66989625 1.89570637499997  1.726843225 1.83563829999997  1.74674652500001 1.76569532499997  C 1.76659867500001 1.69580350000001  1.7566726 1.62506747499998  1.716942725 1.553308125  C 1.69159032500001 1.51027809999999  1.66083997500001 1.46722249999999  1.62466609999999 1.42421804999998  C 1.588492225 1.38121359999997  1.55595109999999 1.33818357500002  1.5270427 1.29512797500001  L 1.88507195 1.17146142500002  Z " fill-rule="nonzero" fill="#333333" stroke="none" transform="matrix(1 0 0 1 39 198 )" />
  </g>
</svg>