<?xml version="1.0" encoding="utf-8"?>
<svg version="1.1" xmlns:xlink="http://www.w3.org/1999/xlink" width="16px" height="18px" xmlns="http://www.w3.org/2000/svg">
  <g transform="matrix(1 0 0 1 -32 -187 )">
    <path d="M 15.9769285393258 9.91622103640776  C 15.9769055505618 9.67944984466021  15.7773033483146 9.48752032281556  15.5311119775281 9.48752032281556  C 15.2849206067416 9.48752032281556  15.0853184044944 9.67944984466021  15.0853184044944 9.91622103640776  C 15.0853184044944 9.93868658737864  15.0876639550562 9.96054857038831  15.0911133033708 9.98207525970878  L 15.0911133033708 14.9095628519418  C 15.0911133033708 16.0843655533981  14.1017716629214 17.0394753495146  12.8851180898876 17.0394753495146  L 3.17870235955056 17.0394753495146  C 1.96188782022472 17.0394753495146  0.972707146067414 16.0843655533981  0.972707146067414 14.9095628519418  L 0.972707146067414 9.37190658495143  C 0.972707146067414 8.19712623058251  2.00576350561798 7.32937499999997  3.22255505617977 7.32937499999997  L 10.8286175505618 7.32937499999997  L 10.8286175505618 7.32515013349513  C 10.8302272359551 7.32517248058252  10.8317909438202 7.32537366990289  10.8334006516854 7.32537366990289  C 11.0796380224719 7.32537366990289  11.2792172134831 7.13344414805823  11.2792172134831 6.89667295631068  C 11.2792172134831 6.65990176456307  11.079615011236 6.46797224271847  10.8334006516854 6.46797224271847  C 10.8317909662921 6.46797224271847  10.830227258427 6.46819577912623  10.8286175505618 6.46819577912623  L 10.8286175505618 6.46707809708738  L 3.6699813258427 6.46707807524274  L 3.61985080898876 4.68606331310679  C 3.61985080898876 2.54461626699026  5.49498467415729 0.865668844660206  7.89400532584271 0.852323635922346  C 10.2378594382022 0.864797046116507  12.0026831910112 2.50882787621362  12.0026831910112 4.68606331310679  L 12.0026831910112 5.53807749757283  C 12.0026831910112 5.77348512378637  12.1999858202247 5.96409577427187  12.4438546292135 5.96409577427187  C 12.6877004494382 5.96409577427187  12.8849800898876 5.77350747087377  12.8849800898876 5.53807749757283  L 12.8849800898876 4.68606331310679  C 12.8849800898876 2.03206652912621  10.7548705168539 0.0261504174757192  7.92155411235956 0.000354167475734357  L 7.8663875505618 0.000354167475734357  C 4.98565413483146 0.0261504174757192  2.73739292134832 2.07534344417479  2.73739292134832 4.68606331310679  L 2.77512876404494 6.46707807524274  C 1.28243546067415 6.67601882038838  0.090295235955054 7.8736894514563  0.090295235955054 9.37190658495143  L 0.090295235955054 14.9095851990292  C 0.090295235955054 16.5536160291262  1.47592080898876 17.8914224708738  3.1787253258427 17.8914224708738  L 12.8851180449438 17.8914224708738  C 14.5878075730337 17.8914224708738  15.9735481348315 16.5536160291262  15.9735481348315 14.9095851990292  L 15.9735481797753 9.96680763349514  C 15.9755947865169 9.9501764199029  15.9769285393258 9.93336638592234  15.9769285393258 9.91622103640776  Z " fill-rule="nonzero" fill="#333333" stroke="none" transform="matrix(1 0 0 1 32 187 )" />
  </g>
</svg>