<?xml version="1.0" encoding="utf-8"?>
<svg version="1.1" xmlns:xlink="http://www.w3.org/1999/xlink" width="2px" height="2px" xmlns="http://www.w3.org/2000/svg">
  <g transform="matrix(1 0 0 1 -37 -198 )">
    <path d="M 1.81734867500001 1.17146142500002  C 1.92226310000001 1.12131934999996  1.9439572 1.00665787500003  1.88250765 0.827323475000014  C 1.84264987500001 0.709029274999978  1.79741975 0.637346675000003  1.74684282500001 0.612198924999973  C 1.69616357499999 0.58720467500001  1.63645367500001 0.588944300000037  1.56784100000001 0.617622449999999  L 1.285741075 0.735891074999984  C 1.285741075 0.671397200000001  1.28482009999999 0.607773150000014  1.28300372499999 0.544993299999987  C 1.28113619999999 0.482341374999976  1.28031755000001 0.418640574999984  1.28031755000001 0.354146700000001  C 1.28031755000001 0.243015650000018  1.17721945 0.187424550000003  0.971023249999995 0.187424550000003  C 0.862552800000003 0.187424550000003  0.783886125000002 0.200829849999991  0.735074424999993 0.227768400000002  C 0.686237124999991 0.254630200000008  0.661831274999997 0.296815975000015  0.661831274999997 0.354146725000021  L 0.661831274999997 0.692912250000006  L 0.314623474999998 0.590683950000027  C 0.256704350000007 0.572827249999989  0.206946074999998 0.581806774999961  0.165399849999993 0.617622475000019  C 0.123751300000002 0.653489350000029  0.0884983999999918 0.725120800000013  0.0596411500000045 0.832721450000008  C 0.00538034999999581 1.02988697500001  0.0379214749999974 1.14283440000003  0.157290149999994 1.17148697499999  L 0.471931224999992 1.25214907499998  L 0.276633224999991 1.5317675  C 0.236775450000003 1.582011825  0.219660650000002 1.64200314999999  0.22505859999999 1.71194615000002  C 0.230507699999997 1.78183797499997  0.272974924999993 1.84730397499999  0.352613725000005 1.90819070000003  C 0.421277574999998 1.95843502500003  0.497181300000001 1.98266180000002  0.580427274999998 1.98081984999999  C 0.663596474999999 1.97905465000002  0.730495125000004 1.94045042499999  0.781174374999999 1.86518625000002  L 0.949329175000003 1.61780197499996  L 1.13920364999999 1.89207362500002  C 1.17535194999999 1.94582277500001  1.227796375 1.97815925000003  1.296536975 1.98887840000003  C 1.36517524999999 1.99962312500003  1.43575777499999 1.98532240000003  1.508105525 1.94584837500003  C 1.602121775 1.89570637499997  1.65909435 1.83563829999997  1.67902325 1.76569532499997  C 1.6988498 1.69580350000001  1.688923725 1.62506747499998  1.64916830000001 1.553308125  C 1.62381589999999 1.51027809999999  1.59306555000001 1.46722249999999  1.556942825 1.42421804999998  C 1.52076895000001 1.38121359999997  1.48820222500001 1.33818357500002  1.459293825 1.29512797500001  L 1.81734867500001 1.17146142500002  Z " fill-rule="nonzero" fill="#333333" stroke="none" transform="matrix(1 0 0 1 37 198 )" />
  </g>
</svg>