<?xml version="1.0" encoding="utf-8"?>
<svg version="1.1" xmlns:xlink="http://www.w3.org/1999/xlink" width="9px" height="6px" xmlns="http://www.w3.org/2000/svg">
  <defs>
    <mask fill="white" id="clip137">
      <path d="M 8.24814695552885 0.75261774107139  C 8.38314743149033 0.584138075892724  8.38212399519227 0.312861174107184  8.24641642427883 0.1461324375  C 8.11037391706736 -0.020158580357247  7.8916005865384 -0.0193061517857132  7.7569536742788 0.148712732142712  L 4.21061892187504 4.57970702678563  L 0.61476848437502 0.16758116517849  C 0.478725977163492 0.000875464285627459  0.259952646634588 0.0021425758930036  0.124952181490414 0.170161459821429  C -0.00969473076918348 0.338595040178689  -0.00867129447118487 0.609871941964229  0.127036265625065 0.776600691964404  L 3.94891711658653 5.46560179017843  C 3.95479722115385 5.47288191964276  3.96240785697108 5.47460979910716  3.96830656730765 5.48145219642856  C 3.96968355649039 5.48315704017864  3.97003709855767 5.48529960267842  3.97141408774036 5.48702748214282  C 4.03890501201926 5.5697352589284  4.12718099278845 5.61131953125005  4.21510342067307 5.61131953125005  C 4.30406789062499 5.61131953125005  4.393367296875 5.56888284374986  4.46087683774044 5.48447022321443  L 8.24814695552885 0.75261774107139  Z " fill-rule="evenodd" />
    </mask>
  </defs>
  <g transform="matrix(1 0 0 1 -185 -65 )">
    <path d="M 8.24814695552885 0.75261774107139  C 8.38314743149033 0.584138075892724  8.38212399519227 0.312861174107184  8.24641642427883 0.1461324375  C 8.11037391706736 -0.020158580357247  7.8916005865384 -0.0193061517857132  7.7569536742788 0.148712732142712  L 4.21061892187504 4.57970702678563  L 0.61476848437502 0.16758116517849  C 0.478725977163492 0.000875464285627459  0.259952646634588 0.0021425758930036  0.124952181490414 0.170161459821429  C -0.00969473076918348 0.338595040178689  -0.00867129447118487 0.609871941964229  0.127036265625065 0.776600691964404  L 3.94891711658653 5.46560179017843  C 3.95479722115385 5.47288191964276  3.96240785697108 5.47460979910716  3.96830656730765 5.48145219642856  C 3.96968355649039 5.48315704017864  3.97003709855767 5.48529960267842  3.97141408774036 5.48702748214282  C 4.03890501201926 5.5697352589284  4.12718099278845 5.61131953125005  4.21510342067307 5.61131953125005  C 4.30406789062499 5.61131953125005  4.393367296875 5.56888284374986  4.46087683774044 5.48447022321443  L 8.24814695552885 0.75261774107139  Z " fill-rule="nonzero" fill="#333333" stroke="none" transform="matrix(1 0 0 1 185 65 )" />
    <path d="M 8.24814695552885 0.75261774107139  C 8.38314743149033 0.584138075892724  8.38212399519227 0.312861174107184  8.24641642427883 0.1461324375  C 8.11037391706736 -0.020158580357247  7.8916005865384 -0.0193061517857132  7.7569536742788 0.148712732142712  L 4.21061892187504 4.57970702678563  L 0.61476848437502 0.16758116517849  C 0.478725977163492 0.000875464285627459  0.259952646634588 0.0021425758930036  0.124952181490414 0.170161459821429  C -0.00969473076918348 0.338595040178689  -0.00867129447118487 0.609871941964229  0.127036265625065 0.776600691964404  L 3.94891711658653 5.46560179017843  C 3.95479722115385 5.47288191964276  3.96240785697108 5.47460979910716  3.96830656730765 5.48145219642856  C 3.96968355649039 5.48315704017864  3.97003709855767 5.48529960267842  3.97141408774036 5.48702748214282  C 4.03890501201926 5.5697352589284  4.12718099278845 5.61131953125005  4.21510342067307 5.61131953125005  C 4.30406789062499 5.61131953125005  4.393367296875 5.56888284374986  4.46087683774044 5.48447022321443  L 8.24814695552885 0.75261774107139  Z " stroke-width="2" stroke="#797979" fill="none" transform="matrix(1 0 0 1 185 65 )" mask="url(#clip137)" />
  </g>
</svg>