<?xml version="1.0" encoding="utf-8"?>
<svg version="1.1" xmlns:xlink="http://www.w3.org/1999/xlink" width="19px" height="19px" xmlns="http://www.w3.org/2000/svg">
  <g transform="matrix(1 0 0 1 -240 -171 )">
    <path d="M 15.7954690122768 15.7706415482003  C 14.1147257254464 17.4443743240792  11.878613538644 18.3668201824079  9.5 18.3668201824079  C 7.12138646135602 18.3668201824079  4.88527427455358 17.4450240827288  3.20326568394253 15.7712913068499  C 1.52060733468193 14.0962932271903  0.59375 11.8697221787807  0.59375 9.50003419363838  C 0.59375 7.13096177350727  1.52064154820033 4.90377517996652  3.20265013881138 3.22939264543805  C 4.88465872942243 1.55565986955915  7.12077089634488 0.633863769880008  9.49938445486887 0.633863769880008  C 11.8779980133929 0.633863769880008  14.1141101803153 1.55565986955915  15.7954690122768 3.22939264543805  C 17.4787429066685 4.9037751600865  18.4049846962193 7.13096177350727  18.4049846962193 9.49938443498883  C 18.4056344548688 11.8690724002511  17.4787429066685 14.0962932073103  15.7954690122768 15.7706415482003  Z M 14.8984319496373 4.13142253592355  C 13.4575505950056 2.69625217494419  11.5395444105748 1.90550124616351  9.5 1.90550124616351  C 7.45984002441406 1.90550124616351  5.54244940499441 2.69560241629463  4.10091829171316 4.13080699079242  C 2.66000272356305 5.56471204799107  1.86607142857142 7.47191177036831  1.86607142857142 9.5  C 1.86607142857142 11.5280882296317  2.65935298479351 13.4352879520089  4.10026853306363 14.868543250558  C 5.54179964634486 16.3037136115374  7.4591902657645 17.0938489951869  9.49935024135044 17.0938489951869  C 11.5388946519252 17.0938489951869  13.456900836356 16.3037478250558  14.8984319496373 14.868543250558  C 16.3393475177874 13.4339884347098  17.133278812779 11.5274384709821  17.1326290541294 9.49935024135044  C 17.1326290541294 7.47126201171875  16.3393474979074 5.56471204799107  14.8984319496373 4.13142253592355  Z M 14.5893541015625 9.5  C 14.5893541015625 9.14882493233816  14.3049327294922 8.86385638253347  13.9531420968192 8.86385638253347  L 10.1361778111049 8.86385638253347  L 10.1361778111049 5.04689209681919  C 10.1361778111049 4.69571702915738  9.85117506766184 4.41071428571428  9.5 4.41071428571428  C 9.14882493233816 4.41071428571428  8.86382218889509 4.69571702915738  8.86382218889509 5.04689209681919  L 8.86382218889509 8.86385638253347  L 5.04689209681919 8.86385638253347  C 4.69571702915738 8.86385638253347  4.41071428571428 9.14885912597657  4.41071428571428 9.50003419363838  C 4.41071428571428 9.85120926130023  4.69571702915738 10.1362120047433  5.04689209681919 10.1362120047433  L 8.86385638253347 10.1362120047433  L 8.86385638253347 13.9531762904576  C 8.86385638253347 14.3049669231306  9.14885912597657 14.5893541015625  9.50003419363838 14.5893541015625  C 9.85120926130023 14.5893541015625  10.1362120047433 14.305001116769  10.1362120047433 13.9531762904576  L 10.1362120047433 10.1361778111049  L 13.9531762904576 10.1361778111049  C 14.3049669231306 10.1361778111049  14.5893541015625 9.85117506766184  14.5893541015625 9.5  Z " fill-rule="nonzero" fill="#666666" stroke="none" transform="matrix(1 0 0 1 240 171 )" />
  </g>
</svg>