<?xml version="1.0" encoding="utf-8"?>
<svg version="1.1" xmlns:xlink="http://www.w3.org/1999/xlink" width="344px" height="88px" xmlns="http://www.w3.org/2000/svg">
  <g transform="matrix(1 0 0 1 -15 -552 )">
    <path d="M 99.5756251743393 87  L 11.1116926290249 87  C 6.51300117772111 87.609375  2.53840360270827 85.3188017218854  0.241901039275918 81.7926830469175  C 3.85245800950608 72.1734367996886  8.10347566633175 62.7748976175712  12.9676786093192 53.7235774058377  C 17.3819414180645 45.2473620375288  22.9433003306019 37.40900779652  29.4974612329112 30.4259816620186  C 36.4633969426555 23.3977654529498  43.4718677224919 19.8349854910119  50.3265578643022 19.8349854910119  C 67.7692085306462 19.8317407005184  84.3415262243306 42.6361282893154  99.5756251743393 87  Z M 99.5756251743393 87  C 102.436361199184 82.2295180114104  105.863745468991 77.1324457486681  109.800401638854 72.4687320871809  C 113.115547776638 68.4593578280192  117.003253602879 64.9515118731558  121.340493347763 62.0561993933209  C 125.669951705617 59.0922422602815  130.778571989254 57.4478544064144  136.037996028914 57.3252948536984  C 148.418973354265 57.3252948536984  160.364784193286 67.5106922130088  171.541691842175 87  L 99.5756251743393 87  Z M 272.987834012499 87  L 171.558051484519 87  C 175.58055047355 75.9585167708166  180.536990349601 64.5900498447004  186.379887447478 53.7235774058377  C 190.793690513407 45.2468989078917  196.35387757508 37.4075531164517  202.906398142602 30.4227368715249  C 209.872333852346 23.3945206624562  216.880804632183 19.8317407005184  223.735494773993 19.8317407005184  C 241.184689297274 19.8317407005184  257.75373506249 42.6361282893154  272.987834012499 87  Z M 158.470337609941 9.73719747502798  C 158.470337609941 4.36105255704706  162.865014428565 0.00282599432341613  168.286123015874 0.00282599432341613  C 173.707231603183 0.00282599432341613  178.101908421808 4.36105255704706  178.101908421808 9.73719747502798  C 178.101908421808 15.1133423930088  173.707231603183 19.4715689557323  168.286123015874 19.4715689557323  C 162.865014428565 19.4715689557323  158.470337609941 15.1133423930088  158.470337609941 9.73719747502798  Z M 343.381366879724 84.8258673721202  C 341.1744617351 86.5747867053958  338.365725131679 87.609375  335.275101854837 87  L 272.987834012499 87  C 275.84902636394 82.2345877084969  279.294871197335 77.1322413804857  283.228970119356 72.4719768776745  C 286.543844091098 68.4632719544558  290.431614053818 64.9564612752329  294.769061828265 62.0626889743079  C 299.098690818931 59.0990742377262  304.207205128352 57.4547204953615  309.466564509416 57.3317844346856  C 321.264655642314 57.3317844346856  332.66482956492 66.5787754009856  343.381366879724 84.8258673721202  Z " fill-rule="nonzero" fill="#e5e9f2" stroke="none" transform="matrix(1 0 0 1 15 552 )" />
  </g>
</svg>