<?xml version="1.0" encoding="utf-8"?>
<svg version="1.1" xmlns:xlink="http://www.w3.org/1999/xlink" width="12px" height="16px" xmlns="http://www.w3.org/2000/svg">
  <defs>
    <mask fill="white" id="clip47">
      <path d="M 10.944268234375 15.5374949609375  C 10.725265421875 15.7212404296875  10.4372396171875 15.8124916015625  10.149254125 15.8124916015625  C 9.8612686328125 15.8124916015625  9.573242828125 15.7212404296875  9.353514296875 15.5381333203125  L 1.104260171875 8.66375486328126  C 0.664762796875003 8.29814541015625  0.664762796875003 7.70437439453124  1.104260171875 7.33812658203125  L 9.3535143203125 0.463109804687505  C 9.7930116953125 0.0968619921874989  10.5047708828125 0.0968619921874989  10.9442682578125 0.463109804687505  C 11.3837656328125 0.828719257812494  11.3837656328125 1.4224902734375  10.9442682578125 1.7887380859375  L 3.4907539375 8.000604765625  L 10.944268234375 14.2118666796875  C 11.383765609375 14.5781144921875  11.383765609375 15.1712471484375  10.944268234375 15.5374949609375  Z " fill-rule="evenodd" />
    </mask>
  </defs>
  <g transform="matrix(1 0 0 1 -40 -80 )">
    <path d="M 10.944268234375 15.5374949609375  C 10.725265421875 15.7212404296875  10.4372396171875 15.8124916015625  10.149254125 15.8124916015625  C 9.8612686328125 15.8124916015625  9.573242828125 15.7212404296875  9.353514296875 15.5381333203125  L 1.104260171875 8.66375486328126  C 0.664762796875003 8.29814541015625  0.664762796875003 7.70437439453124  1.104260171875 7.33812658203125  L 9.3535143203125 0.463109804687505  C 9.7930116953125 0.0968619921874989  10.5047708828125 0.0968619921874989  10.9442682578125 0.463109804687505  C 11.3837656328125 0.828719257812494  11.3837656328125 1.4224902734375  10.9442682578125 1.7887380859375  L 3.4907539375 8.000604765625  L 10.944268234375 14.2118666796875  C 11.383765609375 14.5781144921875  11.383765609375 15.1712471484375  10.944268234375 15.5374949609375  Z " fill-rule="nonzero" fill="#272636" stroke="none" transform="matrix(1 0 0 1 40 80 )" />
    <path d="M 10.944268234375 15.5374949609375  C 10.725265421875 15.7212404296875  10.4372396171875 15.8124916015625  10.149254125 15.8124916015625  C 9.8612686328125 15.8124916015625  9.573242828125 15.7212404296875  9.353514296875 15.5381333203125  L 1.104260171875 8.66375486328126  C 0.664762796875003 8.29814541015625  0.664762796875003 7.70437439453124  1.104260171875 7.33812658203125  L 9.3535143203125 0.463109804687505  C 9.7930116953125 0.0968619921874989  10.5047708828125 0.0968619921874989  10.9442682578125 0.463109804687505  C 11.3837656328125 0.828719257812494  11.3837656328125 1.4224902734375  10.9442682578125 1.7887380859375  L 3.4907539375 8.000604765625  L 10.944268234375 14.2118666796875  C 11.383765609375 14.5781144921875  11.383765609375 15.1712471484375  10.944268234375 15.5374949609375  Z " stroke-width="2" stroke="#797979" fill="none" transform="matrix(1 0 0 1 40 80 )" mask="url(#clip47)" />
  </g>
</svg>