<?xml version="1.0" encoding="utf-8"?>
<svg version="1.1" xmlns:xlink="http://www.w3.org/1999/xlink" width="59px" height="39px" xmlns="http://www.w3.org/2000/svg">
  <g transform="matrix(1 0 0 1 -288 -110 )">
    <path d="M 58.9111831298557 26.6823529411765  C 59.1355738068811 20.3262032085561  54.1759644839067 14.9358288770054  47.6801420643729 14.4697860962567  L 47.7146637069922 14.4697860962567  C 46.2590011098778 7.02994652406414  40.1256559378467 1.30828877005342  32.4445904550499 0.213368983957253  C 24.763524972253 -0.875935828877004  17.2147924528301 2.90294117647056  13.6418024417314 9.62967914438514  C 5.65579578246394 10.151871657754  -0.414259711431782 16.8393048128343  0.0230144284128642 24.6328877005348  C 0.460288568257511 32.4264705882352  7.23803773584899 38.4344919786097  15.2297980022199 38  L 46.8343618201997 38  C 53.3474450610432 38.0807486631016  58.6810388457268 33.0385026737968  58.9111831298557 26.6823529411765  Z M 40.8621176470588 20.3711229946523  C 41.2763773584905 20.7866310160427  40.9771897891231 21.4941176470588  40.3730610432852 21.4941176470588  L 35.4192053274139 21.4941176470588  C 35.0452208657047 21.4941176470588  34.7460332963373 21.7917112299465  34.7460332963373 22.1510695187166  L 34.7460332963373 30.3264705882352  C 34.7460332963373 30.6914438502673  34.4410921198668 30.983422459893  34.0728612652608 30.983422459893  L 25.6956093229745 30.983422459893  C 25.3216248612652 30.983422459893  25.022437291898 30.6858288770054  25.022437291898 30.3264705882352  L 25.022437291898 22.1510695187166  C 25.022437291898 21.7860962566845  24.7174961154274 21.4941176470588  24.3492652608213 21.4941176470588  L 19.3263662597113 21.4941176470588  C 18.7222375138734 21.4941176470588  18.423049944506 20.7866310160427  18.8488168701443 20.3711229946523  L 29.3779178690344 10.0957219251337  C 29.6425837957825 9.83743315508013  30.0683507214206 9.83743315508013  30.3330166481686 10.0957219251337  L 40.8621176470588 20.3711229946523  Z " fill-rule="nonzero" fill="#dcdee3" stroke="none" transform="matrix(1 0 0 1 288 110 )" />
  </g>
</svg>